<?xml version="1.0" encoding="UTF-8" standalone="no"?>
<!-- Created with Inkscape (http://www.inkscape.org/) -->

<svg
   width="180.34mm"
   height="56.530998mm"
   viewBox="0 0 180.34 56.531001"
   version="1.1"
   id="svg8"
   inkscape:version="1.4 (e7c3feb1, 2024-10-09)"
   sodipodi:docname="cardTemplate.svg"
   xmlns:inkscape="http://www.inkscape.org/namespaces/inkscape"
   xmlns:sodipodi="http://sodipodi.sourceforge.net/DTD/sodipodi-0.dtd"
   xmlns="http://www.w3.org/2000/svg"
   xmlns:svg="http://www.w3.org/2000/svg"
   xmlns:rdf="http://www.w3.org/1999/02/22-rdf-syntax-ns#"
   xmlns:cc="http://creativecommons.org/ns#"
   xmlns:dc="http://purl.org/dc/elements/1.1/">
  <defs
     id="defs2">
    <clipPath
       id="clipPath1"
       clipPathUnits="userSpaceOnUse">
      <ellipse
         ry="13.545869"
         rx="13.531675"
         cy="80.293907"
         cx="74.235283"
         id="ellipse1"
         style="fill:#e0e0e0;stroke-width:1.79917;stroke-dasharray:3.59833, 10.795" />
    </clipPath>
    <clipPath
       id="clipPath1-6"
       clipPathUnits="userSpaceOnUse">
      <ellipse
         ry="13.545869"
         rx="13.531675"
         cy="80.293907"
         cx="74.235283"
         id="ellipse1-5"
         style="fill:#e0e0e0;stroke-width:1.79917;stroke-dasharray:3.59833, 10.795" />
    </clipPath>
    <clipPath
       id="clipPath1-4"
       clipPathUnits="userSpaceOnUse">
      <ellipse
         ry="13.545869"
         rx="13.531675"
         cy="80.293907"
         cx="74.235283"
         id="ellipse1-6"
         style="fill:#e0e0e0;stroke-width:1.79917;stroke-dasharray:3.59833, 10.795" />
    </clipPath>
    <clipPath
       id="clipPath1-9"
       clipPathUnits="userSpaceOnUse">
      <ellipse
         ry="13.545869"
         rx="13.531675"
         cy="80.293907"
         cx="74.235283"
         id="ellipse1-67"
         style="fill:#e0e0e0;stroke-width:1.79917;stroke-dasharray:3.59833, 10.795" />
    </clipPath>
  </defs>
  <sodipodi:namedview
     id="base"
     pagecolor="#ffffff"
     bordercolor="#666666"
     borderopacity="1.0"
     inkscape:pageopacity="0.0"
     inkscape:pageshadow="2"
     inkscape:zoom="0.86637601"
     inkscape:cx="344.53863"
     inkscape:cy="199.10524"
     inkscape:document-units="mm"
     inkscape:current-layer="layer1"
     showgrid="false"
     showguides="true"
     units="in"
     inkscape:window-width="1440"
     inkscape:window-height="900"
     inkscape:window-x="0"
     inkscape:window-y="0"
     inkscape:window-maximized="0"
     inkscape:showpageshadow="2"
     inkscape:pagecheckerboard="0"
     inkscape:deskcolor="#d1d1d1" />
  <metadata
     id="metadata5">
    <rdf:RDF>
      <cc:Work
         rdf:about="">
        <dc:format>image/svg+xml</dc:format>
        <dc:type
           rdf:resource="http://purl.org/dc/dcmitype/StillImage" />
      </cc:Work>
    </rdf:RDF>
  </metadata>
  <g
     inkscape:label="Layer 1"
     inkscape:groupmode="layer"
     id="layer1"
     transform="translate(0,-239.84999)">
    <path
       inkscape:connector-curvature="0"
       id="frontOfCardFromPopup"
       style="fill:#000000;fill-opacity:1;fill-rule:nonzero;stroke:none;stroke-width:0.352778"
       d="m 93.4265,239.84999 h 83.05165 c 1.71026,0 3.08539,1.37548 3.08539,3.08398 v 50.18123 c 0,1.70885 -1.37513,3.08574 -3.08539,3.08574 H 93.4265 c -1.70885,0 -3.083974,-1.37689 -3.083974,-3.08574 v -50.18123 c 0,-1.7085 1.375124,-3.08398 3.083974,-3.08398 z" />
    <g
       id="logoFromPopup"
       style="fill:#ffffff"
       transform="translate(0.71665017,-0.3995189)">
      <path
         d="m 120.08167,269.58264 -2.47086,-1.48696 -0.0963,-0.28681 -0.0981,-0.28787 8.4642,-4.45382 8.46243,-4.45241 9.03288,4.44818 9.03181,4.44959 v 0.52386 l -2.78235,1.5173 -2.78236,1.51835 -6.1281,-3.07304 -6.1267,-3.07305 -3.16547,1.63442 -3.16512,1.63583 -5.07683,2.89948 -0.31397,-0.0138 -0.31433,-0.0127 z"
         style="fill:#ffffff;fill-opacity:1;fill-rule:nonzero;stroke:none;stroke-width:0.352778"
         id="path2079-3"
         inkscape:connector-curvature="0" />
      <path
         d="m 126.07078,272.91602 -1.80658,-1.13277 0.004,-0.24941 0.006,-0.25082 2.18122,-1.16876 2.18299,-1.1684 2.92982,-1.5628 2.92806,-1.56387 5.53296,2.72556 5.53403,2.72592 v 0.41733 l -2.12055,1.27071 -2.1209,1.26929 -6.76063,-3.27448 -1.05975,0.53622 -1.05974,0.53728 -1.82316,1.03788 -1.82315,1.0361 -0.91758,-0.0522 z"
         style="fill:#ffffff;fill-opacity:1;fill-rule:nonzero;stroke:none;stroke-width:0.352778"
         id="path2081-9"
         inkscape:connector-curvature="0" />
      <path
         d="m 132.15619,276.63396 -2.56751,-1.58468 v -0.5073 l 5.03802,-2.78341 2.80176,1.4538 2.80141,1.45238 0.008,0.39123 -2.60738,1.58891 -2.60703,1.59033 -0.30056,-0.0138 z"
         style="fill:#ffffff;fill-opacity:1;fill-rule:nonzero;stroke:none;stroke-width:0.352778"
         id="path2083-4"
         inkscape:connector-curvature="0" />
    </g>
    <path
       inkscape:connector-curvature="0"
       id="rearOfCardFromPopup"
       style="fill:#000000;fill-opacity:1;fill-rule:nonzero;stroke:none;stroke-width:0.352778"
       d="M 3.5589901,239.84999 H 86.61063 c 1.708859,0 3.085401,1.37549 3.085401,3.08398 v 50.18123 c 0,1.70885 -1.376542,3.08574 -3.085401,3.08574 H 3.5589901 c -1.70886,0 -3.0839901,-1.37689 -3.0839901,-3.08574 v -50.18123 c 0,-1.70849 1.3751301,-3.08398 3.0839901,-3.08398 z" />
    <rect
       style="opacity:1;fill:#000000;fill-opacity:1;stroke:none;stroke-width:10.3415;stroke-miterlimit:4;stroke-dasharray:none;stroke-dashoffset:39.2203;stroke-opacity:1"
       id="qrCodeContainer"
       width="22.090128"
       height="22.091316"
       x="33.189301"
       y="257.54175"
       inkscape:label="#qrCodeContainer" />
    <path
       inkscape:connector-curvature="0"
       style="fill:#ffffff;fill-opacity:1;fill-rule:nonzero;stroke:#ffffff;stroke-width:0.1;stroke-miterlimit:4;stroke-dasharray:none;stroke-opacity:1"
       d="m 44.233587,251.87091 c 0.9652,0 1.930742,0.0727 2.785878,0.21807 2.758718,0.46849 5.467678,1.67558 7.600568,3.38584 3.252259,2.60703 5.373611,6.16819 6.095754,10.23607 0.321017,1.80552 0.321017,3.94798 0,5.75314 -0.430043,2.42112 -1.367321,4.69406 -2.757971,6.68796 -2.958391,4.24709 -7.758372,6.90231 -12.902573,7.1422 -1.590318,0.0744 -3.1486,-0.0686 -4.679299,-0.42839 -2.345621,-0.55104 -4.679918,-1.68246 -6.527769,-3.16519 -3.253671,-2.60738 -5.373105,-6.1687 -6.095235,-10.23658 -0.32103,-1.80516 -0.32103,-3.94762 0,-5.75314 0.72213,-4.06788 2.841564,-7.62904 6.095235,-10.23607 2.131839,-1.71026 4.840442,-2.91735 7.60057,-3.38584 0.854432,-0.14535 1.819645,-0.21807 2.784842,-0.21807 z m -0.136424,0.65784 c -0.134326,0.001 -0.220927,0.008 -0.232026,0.0196 -0.02331,0.0219 -0.04674,0.42966 -0.05374,0.90485 l -0.01241,0.86713 -0.479557,0.0274 v -1.79834 l -0.399976,0.032 c -0.79093,0.0632 -2.027021,0.27564 -2.75022,0.47284 l -0.296105,0.0796 -0.02379,1.25522 -0.0217,1.25522 -0.480073,0.0279 v -1.18959 c 0,-0.6544 -0.01511,-1.18908 -0.03411,-1.18908 -0.12945,0.003 -0.145947,0.0982 -0.158647,0.89194 l -0.01241,0.81959 h -0.41031 l -0.02379,-0.73019 c -0.01939,-0.61598 -0.03305,-0.729 -0.09095,-0.7152 -0.03704,0.008 -0.226771,0.0755 -0.421163,0.15141 l -0.35605,0.13694 v 0.49558 h -0.227375 c -0.209212,0 -0.22841,-0.01 -0.22841,-0.10749 0,-0.1517 -0.03041,-0.1655 -0.195855,-0.0801 -0.283631,0.14636 -0.295114,0.16045 -0.146243,0.18655 0.136528,0.0247 0.136424,0.0244 0.136424,0.34262 v 0.31988 h -0.455784 l -0.01394,-0.28939 c -0.01659,-0.34011 0.02476,-0.34188 -0.597894,0.0232 -1.648181,0.96732 -3.244341,2.34677 -4.4018,3.80339 l -0.487826,0.61495 v 1.82831 l -0.228409,-0.015 -0.228928,-0.0165 -0.0052,-0.30283 c -0.003,-0.16828 -7.93e-4,-0.40433 0.0041,-0.5271 0.0127,-0.26034 -0.02978,-0.2531 -0.199472,0.0362 -0.137901,0.23565 -0.142227,0.25528 -0.05012,0.25528 0.05121,0 0.06924,0.0549 0.06924,0.22841 v 0.22737 h -0.438216 l -0.124024,0.25219 c -0.06737,0.13935 -0.122473,0.3142 -0.122473,0.3886 0,0.0896 -0.0236,0.13488 -0.0677,0.13488 -0.06491,0 -0.248126,0.31166 -0.318326,0.53743 -0.02892,0.095 -0.01765,0.10181 0.176734,0.10181 h 0.209288 v 1.32446 h -0.457851 l -0.0052,-0.30851 c -0.004,-0.16933 -0.004,-0.44109 0,-0.60513 l 0.0083,-0.2961 -0.09922,0.20567 c -0.0907,0.18873 -0.0994,0.26688 -0.0894,0.94774 l 0.0098,0.74156 h -0.503843 l -0.05168,0.19379 c -0.0275,0.10618 -0.06867,0.2663 -0.09198,0.3545 -0.0236,0.0868 -0.04289,0.44237 -0.04289,0.78703 v 0.62839 h -0.108521 c -0.08683,0 -0.114742,0.0288 -0.136943,0.14727 -0.05644,0.3101 -0.115708,0.9895 -0.126606,1.44953 l -0.01085,0.47956 0.382924,0.0279 v 0.44649 l -0.194305,0.0139 c -0.119989,0.01 -0.19072,0.0353 -0.188619,0.0713 0.0013,0.0317 0.0069,0.20123 0.01085,0.37621 l 0.0072,0.31936 h 0.364947 v 2.5802 l 0.141076,0.52452 c 0.195789,0.7359 0.465526,1.52982 0.659907,1.94045 0.0639,0.13512 0.06505,0.13246 0.06615,-0.14728 v -0.2868 h 0.457338 v 0.68781 c 0,0.50588 -0.01371,0.67937 -0.05219,0.65577 -0.153112,-0.0949 0.267464,0.74174 0.806153,1.60146 0.25223,0.40251 0.303324,0.45898 0.428914,0.47128 0.133408,0.0138 0.140044,0.025 0.140044,0.20671 0,0.17498 0.04275,0.24521 0.489376,0.80718 0.85725,1.07773 2.210511,2.34888 3.307292,3.10524 l 0.336412,0.231 0.02223,-0.56069 0.02326,-0.56224 h 0.456303 l 0.0078,0.72605 0.0078,0.72502 0.298172,0.17208 c 0.506952,0.29492 1.165516,0.626 1.190625,0.601 0.01381,-0.0138 0.02429,-0.22844 0.02429,-0.47645 v -0.45062 l 0.218075,0.0139 0.216006,0.0134 0.01291,0.56896 c 0.01236,0.54014 0.03677,0.63823 0.158131,0.63923 0.019,10e-4 0.0341,-0.12233 0.0341,-0.27543 v -0.27544 l 0.480076,0.0274 0.01241,0.37207 c 0.01376,0.35664 0.01945,0.3736 0.137977,0.4191 0.329139,0.12559 0.990317,0.33369 1.400948,0.44235 0.252238,0.0663 0.492151,0.12929 0.53485,0.14159 0.0688,0.0194 0.0798,-0.0246 0.0925,-0.35656 l 0.01241,-0.37879 h 0.456303 l 0.01344,0.42168 c 0.0067,0.23282 0.03302,0.42271 0.05633,0.42271 0.02471,0 0.05967,0.004 0.07906,0.0109 0.0191,0.006 0.04407,-0.18283 0.05788,-0.42272 l 0.0217,-0.43253 h 0.410826 l 0.01344,0.49041 c 0.01124,0.45332 0.01982,0.49041 0.10232,0.49041 0.07301,0 0.0894,-0.0314 0.0894,-0.16226 v -0.16124 l 0.480076,0.0274 0.02739,0.37466 0.278018,0.0289 c 0.15276,0.0166 0.337678,0.0289 0.409279,0.0289 h 0.129707 v -1.78438 l 0.479557,0.0274 0.02326,0.89038 c 0.01939,0.75071 0.03315,0.88987 0.09095,0.88987 0.05639,0 0.0701,-0.0934 0.0801,-0.52452 0.0057,-0.28963 0.02061,-0.55157 0.03152,-0.58187 0.01376,-0.0332 0.102066,-0.0579 0.208256,-0.0579 0.106191,0 0.194405,0.0247 0.206706,0.0579 0.01241,0.0303 0.02606,0.29041 0.03307,0.57722 l -5.29e-4,5.3e-4 c 0.0067,0.30303 0.03024,0.52517 0.05633,0.52917 0.117131,0.0194 1.323205,-0.062 1.700673,-0.11421 l 0.422714,-0.0579 v -1.63143 h 0.4563 l 0.0041,0.30851 c 0.0019,0.16934 0.0026,0.50865 0.0026,0.75241 0,0.24554 0.01561,0.4547 0.03359,0.4656 0.04657,0.0289 0.120947,-0.0301 0.155546,-0.12247 0.02328,-0.0607 0.0824,-0.0796 0.256315,-0.0796 0.12382,0 0.232812,0.0203 0.240813,0.0449 0.0085,0.0264 0.172196,0.003 0.402559,-0.0579 l 0.388585,-0.1018 0.02223,-0.59221 0.02326,-0.59428 0.479557,-0.0274 v 0.53175 c 0,0.48785 0.0071,0.53068 0.0801,0.50178 0.04409,-0.0166 0.192788,-0.0691 0.330729,-0.11575 0.334788,-0.11466 1.194353,-0.46195 1.505852,-0.61082 l 0.252179,-0.11989 v -1.48415 l 0.240295,-0.0134 0.238228,-0.0139 v 0.62425 c 0,0.54963 0.0094,0.62001 0.07286,0.59531 0.0399,-0.0152 0.08095,-0.0274 0.09095,-0.0274 0.01138,0 0.01913,-0.10334 0.01913,-0.22893 v -0.22738 h 0.228878 c 0.172189,0 0.227375,0.0164 0.227375,0.0672 0,0.0772 0.04011,0.0857 0.129707,0.0289 0.0455,-0.0289 0.06173,-0.21892 0.06873,-0.76326 l 0.0072,-0.72606 h 0.457341 l 0.01241,0.56069 c 0.01238,0.54008 0.01656,0.5585 0.103354,0.5116 0.0579,-0.0317 0.08992,-0.0952 0.08992,-0.18345 0,-0.12811 0.0095,-0.13539 0.194305,-0.13539 0.17921,0 0.245136,-0.0398 0.810286,-0.48886 0.737312,-0.58561 1.843426,-1.68 2.367296,-2.34146 0.209198,-0.26458 0.428159,-0.54112 0.48886,-0.61702 0.07582,-0.0953 0.109487,-0.19597 0.110588,-0.33073 0,-0.18348 0.0067,-0.1943 0.132292,-0.1943 0.115718,0 0.162689,-0.0457 0.358116,-0.35295 0.265999,-0.41628 0.605131,-0.99783 0.605131,-1.03663 0,-0.0138 -0.102135,-0.0258 -0.227375,-0.0258 h -0.228928 v -0.68471 h 0.497644 l 0.02791,0.57051 0.101804,-0.17209 c 0.123841,-0.20955 0.18737,-0.4273 0.110069,-0.3793 -0.03699,0.0236 -0.05219,-0.0646 -0.05219,-0.31265 v -0.34468 h 0.199469 c 0.110422,0 0.21943,-0.0261 0.24443,-0.0579 0.1143,-0.15028 0.54264,-1.38651 0.73949,-2.13476 0.394052,-1.4979 0.594415,-3.26972 0.521417,-4.64519 l -0.02894,-0.55966 h -0.351399 v -0.22737 c 0,-0.22296 0.0021,-0.22893 0.133324,-0.22893 0.07443,0 0.147571,-0.0205 0.162782,-0.0455 0.0702,-0.11289 -0.327938,-2.31739 -0.439767,-2.44016 -0.02191,-0.0247 -0.03979,0.19687 -0.03979,0.51367 v 0.55707 h -0.50333 l 0.01138,-0.99374 0.01241,-0.99219 0.125056,-0.015 c 0.07018,-0.008 0.125573,-0.0275 0.125573,-0.0455 -0.0013,-0.0275 -0.129542,-0.3927 -0.283702,-0.80615 -0.162449,-0.43568 -0.164264,-0.42031 -0.165364,1.57923 -0.0019,1.0654 -0.003,2.08308 -0.0041,2.26653 l -0.0031,0.33073 h -0.456303 v -2.67321 c 0,-1.99813 0.01379,-2.6664 0.05219,-2.6417 0.07726,0.0469 0.01376,-0.16924 -0.11007,-0.37879 l -0.101803,-0.17363 -0.01241,1.6092 -0.01085,1.60972 h -0.50178 v -3.33209 h 0.228936 c 0.12524,0 0.226859,-0.0122 0.226859,-0.0274 0,-0.048 -0.555131,-0.97724 -0.602031,-1.00614 -0.0286,-0.018 -0.04166,0.0539 -0.03566,0.1943 0.0061,0.12277 0.0082,0.35972 0.0052,0.52658 l -0.0072,0.30334 -0.227375,0.0165 -0.228409,0.015 v -1.82883 l -0.490926,-0.61444 c -0.61031,-0.76624 -1.663214,-1.84001 -1.689304,-1.72289 -0.01376,0.0635 -0.06597,0.0801 -0.242361,0.0801 h -0.224793 v -0.22893 c 0,-0.12949 0.02056,-0.22686 0.04806,-0.22686 0.08961,0 -0.0122,-0.0992 -0.498679,-0.48369 -0.437091,-0.34462 -0.505976,-0.38447 -0.679545,-0.38447 -0.18438,0 -0.194302,-0.007 -0.194302,-0.13229 0,-0.11571 -0.0453,-0.16144 -0.353983,-0.35864 -0.44767,-0.28504 -0.883333,-0.53602 -1.397331,-0.80201 -0.374613,-0.19435 -0.406564,-0.20389 -0.427366,-0.11989 -0.01905,0.073 -0.06304,0.0884 -0.246496,0.0884 h -0.223242 v -0.40359 l -0.376203,-0.14624 c -0.354182,-0.13759 -1.094451,-0.40773 -1.117761,-0.40773 -0.0056,0 -0.01625,0.38444 -0.02326,0.85576 l -0.01241,0.85576 H 48.63859 v -0.91364 c 0,-0.55527 -0.01757,-0.92628 -0.04547,-0.94568 -0.11851,-0.0868 -0.159681,-0.0304 -0.159681,0.21756 v 0.25373 l -0.218075,-0.0134 -0.216006,-0.014 -0.02739,-0.47956 H 48.1425 c 0.243771,0 0.143375,-0.0663 -0.234093,-0.15451 -0.610309,-0.1432 -0.757949,-0.15975 -0.784449,-0.091 -0.01659,0.0416 -0.100584,0.0636 -0.248047,0.0636 -0.203917,0 -0.223243,-0.009 -0.223243,-0.10749 0,-0.10053 -0.02733,-0.11158 -0.389638,-0.16278 -0.213781,-0.0289 -0.406715,-0.0427 -0.428916,-0.0289 -0.02191,0.0138 -0.04092,0.24147 -0.04392,0.50746 -0.0013,0.26458 -0.01476,0.50122 -0.02997,0.52452 -0.03422,0.0555 -0.372493,0.056 -0.406693,-5.3e-4 -0.01508,-0.0233 -0.02784,-0.27837 -0.02894,-0.56482 v -0.52245 l -0.709517,-0.0336 c -0.201258,-0.009 -0.383471,-0.0127 -0.517797,-0.0114 z m -3.424081,0.48421 0.480075,0.0274 0.01241,0.59118 c 0.0066,0.32526 0.0029,0.6189 -0.0098,0.6506 -0.01482,0.0385 -0.106259,0.0605 -0.25373,0.0605 h -0.228928 z m 1.141534,0.005 0.0026,0.67282 c 0.0056,0.86678 -0.004,1.2552 -0.03152,1.3007 -0.0127,0.019 -0.112797,0.0346 -0.224274,0.0346 h -0.202573 l -0.0041,-0.31832 c -0.0019,-0.17639 -0.0031,-0.48505 -0.0031,-0.68472 0,-0.20144 0.0021,-0.51025 0.0031,-0.68523 l 0.0041,-0.31987 z m 0.684712,5.3e-4 v 0.97461 c 0,0.53587 -0.01508,0.98763 -0.03307,1.00563 -0.01765,0.0184 -0.125478,0.0271 -0.239778,0.0191 l -0.206706,-0.0134 -0.01241,-0.9927 -0.01241,-0.99322 z m 5.2958,0.0863 v 0.25528 0.2558 l -0.479558,-0.0274 v -0.45579 z m -1.346687,0.57515 0.01291,0.61444 c 0.0067,0.3376 0.0011,0.64236 -0.01138,0.67696 -0.01659,0.0429 -0.08947,0.0574 -0.240814,0.0465 l -0.217556,-0.0134 v -1.32448 z m -1.323951,0 0.01241,0.61444 c 0.0067,0.3376 0.0024,0.64236 -0.01138,0.67696 -0.01622,0.0429 -0.08948,0.0574 -0.240814,0.0465 l -0.216005,-0.0134 v -1.32448 z m 5.319056,0.66301 v 0.66456 l 5.29e-4,0.66353 -0.480073,-0.0274 -0.01394,-0.54829 c -0.01799,-0.74747 -0.01503,-0.75241 0.266134,-0.75241 z m -0.684712,0 v 0.66146 0.66301 H 49.30098 v -1.32447 z m 1.654161,0.64337 c 0.03002,-6.6e-4 0.06819,0.001 0.11679,0.004 l 0.214455,0.0139 0.01394,0.33331 0.01241,0.33332 -0.482139,-0.0274 -0.01551,-0.22428 c -0.0068,-0.12418 -0.0013,-0.27453 0.01394,-0.33383 0.01773,-0.0734 0.03603,-0.0972 0.126089,-0.0992 z m 0.992703,0.1323 v 0.22841 0.22789 h -0.455784 v -0.45632 z m -1.323948,0 v 0.22841 0.22789 h -0.456303 v -0.45632 z m -7.257954,0.5488 v 0.31109 c 0,0.17251 -0.01561,0.32668 -0.03359,0.34468 -0.01799,0.0184 -0.12496,0.0276 -0.23926,0.0196 l -0.206706,-0.0139 -0.02791,-0.66146 z m 3.971332,0.0868 v 0.2222 c 0,0.12242 -0.01508,0.2378 -0.03307,0.2558 -0.01799,0.0184 -0.125129,0.0266 -0.239779,0.0196 l -0.206705,-0.0139 v -0.4563 z m -1.324467,0 v 0.2222 c 0,0.12242 -0.01352,0.2378 -0.03152,0.2558 -0.01799,0.0184 -0.126537,0.0266 -0.239778,0.0196 l -0.207738,-0.0139 v -0.4563 z m -3.332097,0.004 v 0.22066 c 0,0.12136 -0.01378,0.23443 -0.02997,0.25063 -0.01799,0.0165 -0.119914,0.0305 -0.228925,0.0305 h -0.198438 v -0.50178 z m -1.323948,0 v 0.22066 c 0,0.12136 -0.01389,0.23443 -0.03049,0.25063 -0.01659,0.0165 -0.119925,0.0305 -0.228925,0.0305 h -0.196887 v -0.50178 z m -3.973402,0 v 0.22066 c 0,0.12136 -0.01198,0.23443 -0.02997,0.25063 -0.01659,0.0165 -0.118885,0.0305 -0.227893,0.0305 h -0.197922 v -0.50178 z m 11.91762,0.54364 v 0.34416 0.34624 h -0.461471 l 0.01344,-0.33228 0.01394,-0.33073 0.216524,-0.0139 z m 0.684712,0.004 v 0.34468 0.34571 l -0.479557,-0.0274 -0.01498,-0.22582 c -0.02471,-0.39019 0.004,-0.43718 0.267166,-0.43718 z m 0.638204,5.3e-4 v 0.34313 0.34209 h -0.456303 v -0.68522 z m -2.647384,0.13745 v 0.22893 0.22738 h -0.456303 v -0.45631 z m -15.888954,1.96268 v 0.25373 0.25321 l -0.43253,-0.0274 -0.02739,-0.47955 z m -0.661459,1.34617 0.01394,0.20102 c 0.0099,0.12947 -0.0067,0.21468 -0.04548,0.23978 v 0.002 c -0.03281,0.0201 -0.141819,0.0333 -0.242361,0.0264 l -0.181901,-0.0114 v -0.45733 z m 0.661459,0.663 v 0.22686 0.22893 h -0.455785 v -0.45579 z m 23.829036,0.54674 0.01241,0.33228 c 0.0089,0.18169 0.007,0.47774 -0.0011,0.65836 l -0.01551,0.32969 -0.211873,0.0165 h -5.29e-4 c -0.117118,0.009 -0.218276,0.0208 -0.224274,0.0248 -0.0063,0.005 -0.01241,-0.29949 -0.01241,-0.67697 v -0.68471 z m 0.665594,0.11472 0.01551,0.17622 c 0.0067,0.0963 0.003,0.20366 -0.01085,0.23926 -0.02646,0.0705 -0.329914,0.087 -0.430466,0.0238 -0.0385,-0.025 -0.05347,-0.10875 -0.04547,-0.23823 l 0.0155,-0.20102 z m -25.156089,0 0.01394,0.20102 c 0.0099,0.12948 -0.0067,0.21478 -0.04548,0.23978 -0.03281,0.0215 -0.141819,0.0344 -0.242361,0.0274 l -0.181901,-0.0109 v -0.45734 z m -1.401979,0.55656 c 0.04551,6.6e-4 0.07671,0.004 0.08216,0.009 0.0094,0.0109 0.01913,0.61214 0.01913,1.33532 v 1.3162 h -0.502811 v -2.63911 l 0.232542,-0.0155 c 0.06332,-0.005 0.12347,-0.006 0.168984,-0.006 z m 27.220043,0.10594 v 0.22737 0.22893 h -0.456304 v -0.4563 z m -26.479522,0 v 0.22737 0.22893 H 30.76516 v -0.4563 z m 0.661458,0.57102 0.01241,0.65061 0.01291,0.65009 H 31.40181 l 0.01241,-0.65009 0.01394,-0.65061 z m 0.661459,0.63717 v 0.99371 l -5.29e-4,0.99168 H 32.08858 l -0.0011,-0.30696 c -0.0051,-0.86254 -0.0051,-1.06383 -0.0021,-1.34359 l 0.0041,-0.30334 0.228925,-0.015 z m 24.49463,0.77566 0.01551,0.17674 c 0.0067,0.0963 0.003,0.20366 -0.01085,0.23926 -0.02646,0.0702 -0.329914,0.087 -0.430466,0.0238 -0.0385,-0.0236 -0.05347,-0.10928 -0.04547,-0.23875 l 0.0155,-0.20163 z m -0.660942,0.57051 v 0.66249 0.66146 h -0.457854 v -1.32395 z m 1.322917,0.092 v 0.22789 0.22841 h -0.456304 v -0.4563 z m -26.479522,0 v 0.22789 0.22841 H 30.76516 v -0.4563 z m -2.466515,0.54363 0.479558,0.0274 0.01241,1.3131 0.01241,1.31206 h -0.504362 z m 1.142567,0.004 v 1.00511 1.00458 h -0.457854 l -0.0021,-0.31987 c -0.0019,-0.17497 -0.0031,-0.49316 -0.0031,-0.70694 0,-0.21343 0.0021,-0.52208 0.0031,-0.68471 l 0.0021,-0.29817 z m 27.165265,0.0868 v 0.22325 c 0,0.12277 -0.01508,0.23676 -0.03307,0.25476 -0.01765,0.0184 -0.125478,0.0276 -0.239778,0.0196 l -0.206706,-0.0139 v -0.45579 z m -25.664583,0 0.484724,0.0279 0.01394,0.17673 c 0.0085,0.0963 0.0043,0.20537 -0.01085,0.24237 -0.01799,0.0472 -0.08396,0.0622 -0.242361,0.0522 l -0.216524,-0.0155 -0.01394,-0.24082 z m 26.9875,0.004 v 0.22169 c 0,0.12135 -0.01405,0.23418 -0.03204,0.25218 -0.01765,0.0184 -0.126373,0.0276 -0.239263,0.0196 l -0.208256,-0.0145 -0.02739,-0.47904 z m -0.685228,1.23352 0.0031,0.31987 c 0.0011,0.17638 0.0021,0.47427 0.0021,0.66301 0,0.18766 -0.0011,0.49635 -0.0021,0.68368 l -0.0031,0.34262 h -0.455788 v -2.00918 z m -25.817548,0.0264 0.01241,2.25981 c 0.0057,1.24284 0.0013,2.28604 -0.01085,2.31924 -0.01659,0.0395 -0.09335,0.0555 -0.24081,0.0455 l -0.216524,-0.0139 v -4.61057 z m -1.300694,0.0646 v 0.22014 c 0,0.12136 -0.01508,0.23573 -0.03307,0.25373 -0.01799,0.0181 -0.125478,0.0271 -0.239778,0.0191 l -0.206706,-0.0139 -0.02739,-0.47904 z m 27.80347,0.002 v 0.2206 c 0,0.12136 -0.01405,0.23418 -0.03204,0.25218 -0.01765,0.0181 -0.126373,0.0271 -0.239263,0.0191 l -0.208256,-0.0139 -0.01394,-0.23978 -0.01344,-0.23823 z m -2.007629,0.59273 v 0.66301 0.66094 h -0.457854 v -1.32395 z m -25.156605,0 v 0.66301 0.66094 h -0.450617 l -0.01497,-0.35398 c -0.0071,-0.19438 -0.0085,-0.49212 -0.0016,-0.66146 l 0.01394,-0.30851 z m 1.322917,0.003 v 1.64279 1.64383 h -0.455785 v -3.28662 z m 27.165268,0.0879 v 0.22892 0.22893 h -0.501261 v -0.45785 z m -2.670122,0.663 0.01394,0.17674 c 0.0076,0.0967 0.004,0.20481 -0.0098,0.24081 l 5.29e-4,5.3e-4 c -0.01939,0.0482 -0.08603,0.0635 -0.24443,0.0522 l -0.216008,-0.0139 v -0.4563 z m -27.78125,0.66146 v 0.22893 0.22893 H 28.75598 v -0.45786 z m 27.780734,0.57309 0.01394,0.26872 c 0.0081,0.14747 0.003,0.29823 -0.01085,0.33383 -0.01799,0.0471 -0.08695,0.0612 -0.242879,0.0512 l -0.216009,-0.0139 v -0.63976 z m 2.670638,0.0625 v 0.25373 0.25373 h -0.506947 l 0.02791,-0.47955 z m -1.323951,0 v 0.25373 0.25373 h -0.506944 l 0.02739,-0.47955 z m -0.684712,0.004 v 0.25063 0.25115 h -0.456304 v -0.50178 z m -26.479522,0 v 0.25063 0.25115 H 30.76516 v -0.50178 z m -0.639236,0.59428 v 1.29397 c 0,0.7112 -0.01508,1.30802 -0.03307,1.32602 -0.01799,0.0184 -0.125478,0.0271 -0.239778,0.0191 l -0.206706,-0.0134 -0.01241,-1.31207 -0.01241,-1.31361 z m 27.297558,0.63562 0.241329,0.0139 0.242364,0.0139 0.01394,0.26872 c 0.0067,0.14746 0.0029,0.29771 -0.01085,0.33331 -0.01799,0.0472 -0.08731,0.0621 -0.24288,0.0512 l -0.217559,-0.0139 -0.01241,-0.33383 z m 1.829863,5.3e-4 v 0.31419 c 0,0.17357 -0.01352,0.32926 -0.03152,0.34726 -0.01762,0.0184 -0.126888,0.0271 -0.239778,0.0191 l -0.20774,-0.0139 v -0.63924 z m -0.684712,0.004 0.0031,0.31988 c 0.0029,0.17639 0.0041,0.49453 0.0041,0.70796 0,0.21342 -0.0021,0.52104 -0.0041,0.68472 l -0.0031,0.29662 h -0.456303 v -2.00918 z m -29.127421,0 v 1.00459 1.00459 h -0.457854 l -0.0021,-0.29662 c -0.0019,-0.16369 -0.0031,-0.47129 -0.0031,-0.68472 0,-0.21343 0.0021,-0.53157 0.0031,-0.70796 l 0.0021,-0.31988 z m 27.141496,0.0238 0.01394,0.26872 c 0.0081,0.14746 0.003,0.29771 -0.01085,0.33331 -0.01799,0.0472 -0.08695,0.0612 -0.24288,0.0512 l -0.216008,-0.0139 v -0.63924 z m -27.804505,0.091 0.01394,0.23978 0.01394,0.23978 H 28.75182 l 0.02739,-0.47956 z m 3.309874,0.56999 v 0.98237 0.98134 h -0.455785 v -1.96371 z m 27.165268,0.63776 v 0.34416 l 5.3e-4,0.34468 -0.479558,-0.0274 -0.01241,-0.33125 -0.01394,-0.33021 z m -2.670637,0.0233 0.01394,0.26872 c 0.0081,0.14746 0.003,0.29771 -0.01085,0.33331 -0.01799,0.0472 -0.08695,0.0612 -0.24288,0.0512 l -0.216008,-0.015 v -0.63821 z m -25.15609,0 0.01241,1.93994 c 0.0059,1.06821 0.0028,1.96122 -0.0052,1.98592 h -0.0016 c -0.0095,0.0263 -0.121164,0.0405 -0.250632,0.0305 l -0.235644,-0.0165 0.01188,-1.96939 0.01241,-1.97042 z m -2.648415,0.091 0.01394,0.23978 0.01394,0.23978 H 28.75182 l 0.02739,-0.47956 z m 28.010176,1.29502 0.216008,0.0155 0.218075,0.0139 0.01344,0.23978 0.01394,0.23926 h -0.46147 z m -26.023219,5.2e-4 v 0.25374 0.25476 h -0.46147 l 0.02791,-0.47956 0.216009,-0.0139 z m 27.78125,0.0289 0.01394,0.23978 0.01394,0.23926 h -0.467153 l 0.02739,-0.47904 z m -28.44374,0 0.01497,0.17467 c 0.0071,0.0977 0.003,0.20518 -0.01085,0.23978 -0.01659,0.0427 -0.09949,0.0646 -0.256831,0.0646 H 30.0763 l 0.02739,-0.47904 z m 26.503808,0.57051 v 0.31936 0.31988 h -0.503328 v -0.63924 z m 1.322916,0.0868 v 0.23048 0.23151 h -0.506944 l 0.01344,-0.21756 0.01394,-0.21653 z m 0.630971,0.004 0.01497,0.2284 0.01654,0.22738 h -0.479042 v -0.45578 z m -1.315683,0 v 0.2284 0.22738 h -0.456303 v -0.45578 z m -25.156605,0 v 0.2284 0.22738 h -0.455785 v -0.45578 z m -1.322917,0 v 0.2284 0.22738 H 30.76516 v -0.45578 z m -1.142047,1.31981 0.479557,0.0274 0.01344,0.21704 0.01394,0.21756 h -0.506944 z m 2.464964,0.004 v 0.22893 0.22892 h -0.455785 v -0.45785 z m 24.283789,1.22628 0.234612,0.0155 v 0.96996 c 0,0.5334 -0.01508,0.98401 -0.03307,1.00201 -0.01765,0.0184 -0.12496,0.0271 -0.23926,0.0191 l -0.207225,-0.0139 -0.01188,-0.95757 c -0.0074,-0.52636 -0.0053,-0.97809 0.0047,-1.00459 0.0099,-0.0263 0.118467,-0.0405 0.25218,-0.0305 z m -25.606706,0.0982 v 0.22841 0.22789 H 30.76516 v -0.4563 z m 1.322917,0.54828 v 0.34158 0.34365 h -0.455785 v -0.68523 z m -0.862478,0.0966 c 0.04343,0.002 0.0854,0.007 0.115755,0.015 0.09241,0.0233 0.107487,0.0536 0.107487,0.22325 0,0.10865 -0.01355,0.21196 -0.03152,0.22996 v 5.2e-4 c -0.01799,0.0184 -0.125478,0.0271 -0.239778,0.0191 l -0.206706,-0.0139 v -0.22893 c 0,-0.21766 0.0055,-0.22856 0.130741,-0.24236 0.0358,-0.004 0.08059,-0.005 0.124024,-0.003 z m 5.016231,3.22977 0.240812,0.0134 0.239779,0.014 0.01241,0.89038 c 0.0085,0.49036 0.0013,0.93842 -0.01241,0.99632 -0.02328,0.092 -0.04836,0.10326 -0.241329,0.091 l -0.214458,-0.0139 -0.01241,-0.99477 z m 12.42043,5.3e-4 v 0.34675 0.34778 l -0.480073,-0.0274 v -0.63975 z m -1.324467,0 v 0.34675 0.34778 l -0.480073,-0.0274 v -0.63975 z m -8.445995,0 0.239779,0.015 0.239779,0.0139 0.01394,0.26872 c 0.0066,0.14746 0.0024,0.29653 -0.01035,0.33073 -0.01683,0.0412 -0.102616,0.062 -0.253214,0.062 h -0.22996 z m 3.789432,0.005 0.0011,0.29611 c 0.0019,0.16369 0.0031,0.61618 0.0031,1.00459 0,0.38876 -0.0021,0.85183 -0.0031,1.02681 l -0.0011,0.31988 H 42.68123 l -0.0011,-0.31988 c -0.0019,-0.17498 -0.0031,-0.63805 -0.0031,-1.02681 0,-0.38841 0.0021,-0.84091 0.0031,-1.00459 l 0.0011,-0.29611 z m -1.323949,0 0.0021,0.33073 c 0.0071,0.84773 -0.0067,1.60111 -0.02894,1.63711 -0.01423,0.0218 -0.115708,0.0398 -0.226859,0.0398 h -0.202055 l -0.0031,-0.3421 c -0.0019,-0.18872 -0.0031,-0.49598 -0.0031,-0.68471 0,-0.18873 0.0021,-0.48648 0.0031,-0.66146 l 0.0031,-0.31936 z m 10.591083,5.3e-4 v 0.34106 0.34365 h -0.455785 v -0.68471 z m -6.620267,0 v 0.34106 0.34365 h -0.455787 v -0.68471 z m -5.295283,0 v 0.66146 0.66249 h -0.456303 v -1.32395 z m -1.324467,0 v 0.31109 c 0,0.17216 -0.01339,0.32654 -0.02997,0.34314 h -5.29e-4 c -0.01659,0.0165 -0.118364,0.0305 -0.227375,0.0305 H 38.70937 v -0.68471 z m -2.647384,0 v 0.34106 0.34365 H 36.06096 v -0.68471 z m 17.89658,0.091 v 0.23151 0.22996 l -0.479038,-0.0279 -0.01394,-0.21601 -0.01394,-0.21756 z m -9.268684,5.3e-4 v 0.22789 0.22841 h -0.501261 v -0.4563 z m -0.684713,0 v 0.22789 0.22841 h -0.455784 v -0.4563 z m -1.962152,0 v 0.22789 0.22841 h -0.503331 v -0.4563 z m 5.935038,0.54209 v 0.6904 0.68884 l -0.217559,-0.0139 -0.216525,-0.0134 -0.02222,-0.34365 c -0.01381,-0.18732 -0.01381,-0.48507 0,-0.66146 l 0.02222,-0.31936 0.216525,-0.0139 z m 2.647383,0.091 v 0.25373 0.25477 h -0.460438 l 0.02791,-0.47956 0.216008,-0.014 z m -1.322916,0 v 0.25373 0.25477 h -0.461471 l 0.02739,-0.47956 0.216009,-0.014 z m -12.373406,0 0.217558,0.015 0.216006,0.0139 0.01394,0.23978 0.01394,0.23977 h -0.46147 z m 0.86248,0.0139 c 0.13089,-0.01 0.21507,0.007 0.239779,0.0455 0.0469,0.0744 0.05093,0.37462 0.0072,0.42012 -0.01799,0.018 -0.125479,0.0271 -0.239779,0.0191 l -0.206705,-0.0139 v -0.45578 z m 5.552115,0.015 0.0155,0.17518 c 0.0067,0.0977 0.0024,0.20636 -0.01138,0.24236 -0.01905,0.0482 -0.08552,0.0622 -0.243914,0.0522 l -0.216006,-0.014 v -0.45578 z m 1.346171,0.5705 v 0.97255 c 0,0.53623 -0.01352,0.98918 -0.03152,1.00718 -0.01799,0.018 -0.125129,0.0261 -0.239778,0.0181 l -0.206706,-0.0124 -0.01241,-0.99374 -0.01241,-0.99167 z m 5.297352,0.0904 v 0.23047 0.23152 l -0.239778,-0.0139 c -0.212363,-0.0123 -0.242356,-0.0262 -0.254765,-0.12144 -0.0081,-0.0593 -0.0028,-0.15685 0.01241,-0.21756 0.02363,-0.0963 0.05228,-0.10903 0.254765,-0.10903 z m -3.972885,5.3e-4 v 0.22892 0.22686 h -0.501777 v -0.45578 z m -2.00918,0 v 0.22892 0.22686 h -0.455784 v -0.45578 z m -1.962152,0 v 0.22892 0.22686 h -0.503331 v -0.45578 z m -2.648935,0 v 0.19843 c 0,0.10901 -0.01339,0.21118 -0.02997,0.22738 -0.01659,0.0165 -0.129786,0.03 -0.251147,0.03 h -0.22066 v -0.45578 z m -3.332096,0 v 0.22892 0.22686 H 36.06096 v -0.45578 z m 11.27683,0.63355 v 0.25631 0.25632 l -0.480073,-0.0279 v -0.45733 z m -7.761282,0 0.216524,0.0134 0.217557,0.0139 0.01394,0.23978 0.01344,0.23978 h -0.46147 z m -1.324467,0 0.216524,0.0134 0.217556,0.0139 0.01394,0.23978 0.01344,0.23978 h -0.461471 z m 7.761282,0.59428 v 0.66404 0.66456 h -0.504362 l 0.02479,-1.30121 z m 3.288173,0.0961 v 0.23978 0.23875 l -0.228928,-0.0155 -0.228926,-0.0165 v -0.44649 z m -1.324467,0 v 0.23978 0.23875 l -0.22841,-0.0155 -0.227893,-0.0165 v -0.44649 z m -5.935038,0 v 0.22738 0.22893 h -0.503331 v -0.45631 z"
       id="qrCodeBorder" />
  </g>
</svg>
