<?xml version="1.0" encoding="UTF-8" standalone="no"?>
<!-- Created with Inkscape (http://www.inkscape.org/) -->

<svg
   width="3.4549999in"
   height="2.1730001in"
   viewBox="0 0 87.757001 55.194204"
   version="1.1"
   id="svg8"
   inkscape:version="1.4 (e7c3feb1, 2024-10-09)"
   sodipodi:docname="digitalcard.svg"
   xmlns:inkscape="http://www.inkscape.org/namespaces/inkscape"
   xmlns:sodipodi="http://sodipodi.sourceforge.net/DTD/sodipodi-0.dtd"
   xmlns="http://www.w3.org/2000/svg"
   xmlns:svg="http://www.w3.org/2000/svg"
   xmlns:rdf="http://www.w3.org/1999/02/22-rdf-syntax-ns#"
   xmlns:cc="http://creativecommons.org/ns#"
   xmlns:dc="http://purl.org/dc/elements/1.1/">
  <defs
     id="defs2" />
  <sodipodi:namedview
     id="base"
     pagecolor="#ffffff"
     bordercolor="#666666"
     borderopacity="1.0"
     inkscape:pageopacity="0.0"
     inkscape:pageshadow="2"
     inkscape:zoom="1.2133541"
     inkscape:cx="188.32095"
     inkscape:cy="-7.8295363"
     inkscape:document-units="mm"
     inkscape:current-layer="layer1"
     showgrid="false"
     units="in"
     inkscape:window-width="1440"
     inkscape:window-height="872"
     inkscape:window-x="0"
     inkscape:window-y="28"
     inkscape:window-maximized="0"
     inkscape:showpageshadow="2"
     inkscape:pagecheckerboard="0"
     inkscape:deskcolor="#d1d1d1" />
  <metadata
     id="metadata5">
    <rdf:RDF>
      <cc:Work
         rdf:about="">
        <dc:format>image/svg+xml</dc:format>
        <dc:type
           rdf:resource="http://purl.org/dc/dcmitype/StillImage" />
        <dc:title />
      </cc:Work>
    </rdf:RDF>
  </metadata>
  <g
     inkscape:label="Layer 1"
     inkscape:groupmode="layer"
     id="layer1"
     transform="translate(0,-241.80579)">
    <path
       inkscape:connector-curvature="0"
       id="card_bkg"
       style="fill:#000000;fill-opacity:1;fill-rule:nonzero;stroke:none;stroke-width:0.347026"
       d="M 2.7245411,242.25639 H 85.032803 c 1.112897,0 2.008924,0.89461 2.008924,2.00752 v 50.27796 c 0,1.11291 -0.896027,2.00752 -2.008924,2.00752 H 2.7245411 c -1.1129065,0 -2.00927027,-0.89461 -2.00927027,-2.00752 v -50.27796 c 0,-1.11291 0.89636377,-2.00752 2.00927027,-2.00752 z" />
    <path
       style="fill:#ffffff;fill-opacity:1;fill-rule:nonzero;stroke:none;stroke-width:0.352778"
       d="m 43.30489,259.56373 -8.522994,4.46588 -8.524543,4.46639 0.09767,0.28836 0.09819,0.28886 2.488738,1.48984 2.488737,1.49241 0.317291,0.0124 0.315228,0.0134 2.555917,-1.45521 2.557984,-1.45366 3.187401,-1.63814 3.187403,-1.64021 6.172232,3.08147 6.170684,3.0825 2.802929,-1.52291 2.801895,-1.52239 v -0.52503 l -9.096602,-4.46226 z m 0.154514,7.22591 -2.950207,1.5689 -2.949176,1.56786 -2.199348,1.17151 -2.198315,1.1715 -0.0078,0.50126 1.81901,1.13689 1.820045,1.13688 0.923457,0.0522 1.837097,-1.04025 1.835547,-1.04024 1.067636,-0.53899 1.066602,-0.53743 3.403925,1.64124 3.40496,1.6428 2.136304,-1.27486 2.135788,-1.27331 v -0.41755 z m 0.131257,5.95623 -5.074107,2.79208 v 0.50849 l 2.586405,1.59009 2.585371,1.59163 0.303339,0.0139 2.624648,-1.59421 2.626712,-1.59474 -0.0083,-0.39119 z"
       id="logo_color" />
  </g>
</svg>
