<?xml version="1.0" encoding="UTF-8" standalone="no"?>
<!-- Created with Inkscape (http://www.inkscape.org/) -->

<svg
   xmlns:dc="http://purl.org/dc/elements/1.1/"
   xmlns:cc="http://creativecommons.org/ns#"
   xmlns:rdf="http://www.w3.org/1999/02/22-rdf-syntax-ns#"
   xmlns:svg="http://www.w3.org/2000/svg"
   xmlns="http://www.w3.org/2000/svg"
   xmlns:sodipodi="http://sodipodi.sourceforge.net/DTD/sodipodi-0.dtd"
   xmlns:inkscape="http://www.inkscape.org/namespaces/inkscape"
   width="3.4549999in"
   height="2.1730001in"
   viewBox="0 0 87.757001 55.194204"
   version="1.1"
   id="svg8"
   inkscape:version="0.92.5 (2060ec1f9f, 2020-04-08)"
   sodipodi:docname="digitalcard.svg">
  <defs
     id="defs2" />
  <sodipodi:namedview
     id="base"
     pagecolor="#ffffff"
     bordercolor="#666666"
     borderopacity="1.0"
     inkscape:pageopacity="0.0"
     inkscape:pageshadow="2"
     inkscape:zoom="0.35"
     inkscape:cx="-268.57143"
     inkscape:cy="560"
     inkscape:document-units="mm"
     inkscape:current-layer="layer1"
     showgrid="false"
     units="in"
     inkscape:window-width="1366"
     inkscape:window-height="704"
     inkscape:window-x="0"
     inkscape:window-y="27"
     inkscape:window-maximized="1" />
  <metadata
     id="metadata5">
    <rdf:RDF>
      <cc:Work
         rdf:about="">
        <dc:format>image/svg+xml</dc:format>
        <dc:type
           rdf:resource="http://purl.org/dc/dcmitype/StillImage" />
        <dc:title></dc:title>
      </cc:Work>
    </rdf:RDF>
  </metadata>
  <g
     inkscape:label="Layer 1"
     inkscape:groupmode="layer"
     id="layer1"
     transform="translate(0,-241.80579)">
    <g
       id="g1147"
       transform="translate(3.7433435,23.119261)">
      <path
         d="M -1.7011139,218.68706 H 81.971778 c 1.13135,0 2.04223,0.90946 2.04223,2.04082 v 51.11151 c 0,1.13136 -0.91088,2.04082 -2.04223,2.04082 H -1.7011139 c -1.131358,0 -2.042583,-0.90946 -2.042583,-2.04082 v -51.11151 c 0,-1.13136 0.911225,-2.04082 2.042583,-2.04082 z"
         style="fill:#000000;fill-opacity:1;fill-rule:nonzero;stroke:none;stroke-width:0.35277778"
         id="path905"
         inkscape:connector-curvature="0" />
      <path
         d="m 25.198188,247.4441 -2.48884,-1.48978 -0.0981,-0.28928 -0.0977,-0.28822 8.52452,-4.46617 8.52311,-4.46616 9.09778,4.46193 9.09673,4.46228 v 0.52494 l -2.80176,1.52259 -2.80282,1.52294 -6.17079,-3.08257 -6.1722,-3.08152 -3.1877,1.64007 -3.18734,1.6383 -2.55764,1.45379 -2.55623,1.45521 -0.31538,-0.0138 -0.31715,-0.0123 z"
         style="fill:#ffffff;fill-opacity:1;fill-rule:nonzero;stroke:none;stroke-width:0.35277778"
         id="path907"
         inkscape:connector-curvature="0" />
      <path
         d="m 31.229628,250.78843 -1.81892,-1.137 0.008,-0.5013 2.19816,-1.17158 2.19922,-1.17122 2.94922,-1.56809 2.95028,-1.56845 11.14566,5.46805 v 0.41769 l -2.13607,1.27317 -2.13607,1.27494 -3.40501,-1.64288 -3.40395,-1.64112 -1.06645,0.53728 -1.06786,0.53904 -1.8355,1.04034 -1.83691,1.04034 -0.92358,-0.0522 z"
         style="fill:#ffffff;fill-opacity:1;fill-rule:nonzero;stroke:none;stroke-width:0.35277778"
         id="path909"
         inkscape:connector-curvature="0" />
      <path
         d="m 37.359148,254.51729 -2.58657,-1.58997 v -0.5087 l 5.074,-2.79189 5.64445,2.91606 0.008,0.39123 -2.62643,1.59456 -2.62502,1.5942 -0.30339,-0.0138 z"
         style="fill:#ffffff;fill-opacity:1;fill-rule:nonzero;stroke:none;stroke-width:0.35277778"
         id="path911"
         inkscape:connector-curvature="0" />
    </g>
  </g>
</svg>
