<?xml version="1.0" encoding="UTF-8" standalone="no"?>
<svg
   xmlns:dc="http://purl.org/dc/elements/1.1/"
   xmlns:cc="http://creativecommons.org/ns#"
   xmlns:rdf="http://www.w3.org/1999/02/22-rdf-syntax-ns#"
   xmlns:svg="http://www.w3.org/2000/svg"
   xmlns="http://www.w3.org/2000/svg"
   xmlns:xlink="http://www.w3.org/1999/xlink"
   xmlns:sodipodi="http://sodipodi.sourceforge.net/DTD/sodipodi-0.dtd"
   xmlns:inkscape="http://www.inkscape.org/namespaces/inkscape"
   style="enable-background:new"
   id="svg8"
   version="1.1"
   viewBox="0 0 198.3232 234.14001"
   height="234.14mm"
   width="198.3232mm"
   sodipodi:docname="nfccard-customization1.svg"
   inkscape:version="0.92.5 (2060ec1f9f, 2020-04-08)">
  <sodipodi:namedview
     pagecolor="#ffffff"
     bordercolor="#666666"
     borderopacity="1"
     objecttolerance="10"
     gridtolerance="10"
     guidetolerance="10"
     inkscape:pageopacity="0"
     inkscape:pageshadow="2"
     inkscape:window-width="1366"
     inkscape:window-height="704"
     id="namedview21394"
     showgrid="false"
     inkscape:zoom="0.25"
     inkscape:cx="-430.89004"
     inkscape:cy="346.83342"
     inkscape:window-x="0"
     inkscape:window-y="27"
     inkscape:window-maximized="1"
     inkscape:current-layer="svg8"
     showguides="true"
     units="mm" />
  <defs
     id="defs2">
    <linearGradient
       id="linearGradient11062">
      <stop
         id="stop11058"
         offset="0"
         style="stop-color:#0c0d12;stop-opacity:1" />
      <stop
         id="stop11060"
         offset="1"
         style="stop-color:#272b2f;stop-opacity:1" />
    </linearGradient>
    <clipPath
       clipPathUnits="userSpaceOnUse"
       id="clipPath5315">
      <rect
         style="opacity:1;fill:#cababa;fill-opacity:0.66037741;stroke:none;stroke-width:0.23566131;stroke-miterlimit:4;stroke-dasharray:none;stroke-dashoffset:39.22031021;stroke-opacity:1"
         id="rect5317"
         width="203.19998"
         height="292.10001"
         x="1274.9778"
         y="361.77451" />
    </clipPath>
    <clipPath
       clipPathUnits="userSpaceOnUse"
       id="clipPath5734">
      <rect
         style="opacity:1;fill:#cababa;fill-opacity:0.66037741;stroke:none;stroke-width:0.23566131;stroke-miterlimit:4;stroke-dasharray:none;stroke-dashoffset:39.22031021;stroke-opacity:1"
         id="rect5736"
         width="203.19998"
         height="292.09998"
         x="1071.7778"
         y="361.77451" />
    </clipPath>
    <clipPath
       clipPathUnits="userSpaceOnUse"
       id="clipPath10302">
      <rect
         style="opacity:1;fill:#00495a;fill-opacity:0.94117647;stroke:none;stroke-width:0.73812002;stroke-miterlimit:4;stroke-dasharray:none;stroke-dashoffset:39.22031021;stroke-opacity:1"
         id="rect10304"
         width="225.71364"
         height="292.10001"
         x="1068.3546"
         y="328.10712" />
    </clipPath>
    <clipPath
       clipPathUnits="userSpaceOnUse"
       id="clipPath10923">
      <rect
         style="opacity:1;fill:#00495a;fill-opacity:0.94117647;stroke:none;stroke-width:0.70602781;stroke-miterlimit:4;stroke-dasharray:none;stroke-dashoffset:39.22031021;stroke-opacity:1"
         id="rect10925"
         width="215.89999"
         height="279.39999"
         x="1286"
         y="340.80713" />
    </clipPath>
    <clipPath
       clipPathUnits="userSpaceOnUse"
       id="clipPath10927">
      <rect
         style="opacity:1;fill:#00495a;fill-opacity:0.94117647;stroke:none;stroke-width:0.73812002;stroke-miterlimit:4;stroke-dasharray:none;stroke-dashoffset:39.22031021;stroke-opacity:1"
         id="rect10929"
         width="225.71364"
         height="292.10001"
         x="1294.0682"
         y="328.10712" />
    </clipPath>
    <clipPath
       clipPathUnits="userSpaceOnUse"
       id="clipPath10302-3">
      <rect
         style="opacity:1;fill:#00495a;fill-opacity:0.94117647;stroke:none;stroke-width:0.73812002;stroke-miterlimit:4;stroke-dasharray:none;stroke-dashoffset:39.22031021;stroke-opacity:1"
         id="rect10304-1"
         width="225.71364"
         height="292.10001"
         x="1068.3546"
         y="328.10712" />
    </clipPath>
    <clipPath
       clipPathUnits="userSpaceOnUse"
       id="clipPath10302-31">
      <rect
         style="opacity:1;fill:#00495a;fill-opacity:0.94117647;stroke:none;stroke-width:0.73812002;stroke-miterlimit:4;stroke-dasharray:none;stroke-dashoffset:39.22031021;stroke-opacity:1"
         id="rect10304-8"
         width="225.71364"
         height="292.10001"
         x="1068.3546"
         y="328.10712" />
    </clipPath>
    <linearGradient
       gradientTransform="translate(-62.560459,-47.1052)"
       gradientUnits="userSpaceOnUse"
       y2="453.12543"
       x2="-331.7717"
       y1="394.05887"
       x1="-368.22598"
       id="linearGradient11064"
       xlink:href="#linearGradient11062" />
    <filter
       id="filter11528"
       style="color-interpolation-filters:sRGB">
      <feFlood
         id="feFlood11518"
         result="flood"
         flood-color="rgb(0,0,0)"
         flood-opacity="1" />
      <feComposite
         id="feComposite11520"
         result="composite1"
         operator="in"
         in2="SourceGraphic"
         in="flood" />
      <feGaussianBlur
         id="feGaussianBlur11522"
         result="blur"
         stdDeviation="0.8"
         in="composite1" />
      <feOffset
         id="feOffset11524"
         result="offset"
         dy="0.6"
         dx="-0.4" />
      <feComposite
         id="feComposite11526"
         result="composite2"
         operator="over"
         in2="offset"
         in="SourceGraphic" />
    </filter>
    <clipPath
       id="clipPath11736"
       clipPathUnits="userSpaceOnUse">
      <rect
         ry="1.5119048"
         rx="2.5000002"
         y="291.1712"
         x="-687.23627"
         height="133.88718"
         width="182.94048"
         id="rect11738"
         style="opacity:1;fill:#f5f5f5;fill-opacity:0.96078431;stroke:none;stroke-width:4.71460152;stroke-miterlimit:4;stroke-dasharray:none;stroke-dashoffset:39.22031021;stroke-opacity:1" />
    </clipPath>
    <clipPath
       id="clipPath11740"
       clipPathUnits="userSpaceOnUse">
      <rect
         ry="1.5119048"
         rx="2.5000002"
         y="291.1712"
         x="-687.23627"
         height="133.88718"
         width="182.94048"
         id="rect11742"
         style="opacity:1;fill:#f5f5f5;fill-opacity:0.96078431;stroke:none;stroke-width:4.71460152;stroke-miterlimit:4;stroke-dasharray:none;stroke-dashoffset:39.22031021;stroke-opacity:1" />
    </clipPath>
    <clipPath
       id="clipPath11744"
       clipPathUnits="userSpaceOnUse">
      <rect
         ry="1.5119048"
         rx="2.5000002"
         y="291.1712"
         x="-687.23627"
         height="133.88718"
         width="182.94048"
         id="rect11746"
         style="opacity:1;fill:#f5f5f5;fill-opacity:0.96078431;stroke:none;stroke-width:4.71460152;stroke-miterlimit:4;stroke-dasharray:none;stroke-dashoffset:39.22031021;stroke-opacity:1" />
    </clipPath>
    <clipPath
       id="clipPath11748"
       clipPathUnits="userSpaceOnUse">
      <rect
         ry="1.5119048"
         rx="2.5000002"
         y="307.74191"
         x="-343.5304"
         height="68.399162"
         width="93.459106"
         id="rect11750"
         style="opacity:1;fill:#f5f5f5;fill-opacity:0.96078431;stroke:none;stroke-width:2.40855622;stroke-miterlimit:4;stroke-dasharray:none;stroke-dashoffset:39.22031021;stroke-opacity:1" />
    </clipPath>
    <clipPath
       id="clipPath11748-1"
       clipPathUnits="userSpaceOnUse">
      <rect
         ry="1.5119048"
         rx="2.5000002"
         y="307.74191"
         x="-343.5304"
         height="68.399162"
         width="93.459106"
         id="rect11750-7"
         style="opacity:1;fill:#f5f5f5;fill-opacity:0.96078431;stroke:none;stroke-width:2.40855622;stroke-miterlimit:4;stroke-dasharray:none;stroke-dashoffset:39.22031021;stroke-opacity:1" />
    </clipPath>
    <clipPath
       id="clipPath11744-8"
       clipPathUnits="userSpaceOnUse">
      <rect
         ry="1.5119048"
         rx="2.5000002"
         y="291.1712"
         x="-687.23627"
         height="133.88718"
         width="182.94048"
         id="rect11746-5"
         style="opacity:1;fill:#f5f5f5;fill-opacity:0.96078431;stroke:none;stroke-width:4.71460152;stroke-miterlimit:4;stroke-dasharray:none;stroke-dashoffset:39.22031021;stroke-opacity:1" />
    </clipPath>
    <clipPath
       id="clipPath11740-1"
       clipPathUnits="userSpaceOnUse">
      <rect
         ry="1.5119048"
         rx="2.5000002"
         y="291.1712"
         x="-687.23627"
         height="133.88718"
         width="182.94048"
         id="rect11742-8"
         style="opacity:1;fill:#f5f5f5;fill-opacity:0.96078431;stroke:none;stroke-width:4.71460152;stroke-miterlimit:4;stroke-dasharray:none;stroke-dashoffset:39.22031021;stroke-opacity:1" />
    </clipPath>
    <clipPath
       id="clipPath11736-5"
       clipPathUnits="userSpaceOnUse">
      <rect
         ry="1.5119048"
         rx="2.5000002"
         y="291.1712"
         x="-687.23627"
         height="133.88718"
         width="182.94048"
         id="rect11738-9"
         style="opacity:1;fill:#f5f5f5;fill-opacity:0.96078431;stroke:none;stroke-width:4.71460152;stroke-miterlimit:4;stroke-dasharray:none;stroke-dashoffset:39.22031021;stroke-opacity:1" />
    </clipPath>
    <filter
       id="filter2222"
       style="color-interpolation-filters:sRGB">
      <feColorMatrix
         result="fbSourceGraphic"
         id="feColorMatrix2220"
         values="1 -2.77556e-17 -2.77556e-17 0 0 -2.77556e-17 1 -2.77556e-17 0 0 -2.77556e-17 -2.77556e-17 1 0 0 0 0 0 1 0 " />
      <feColorMatrix
         id="feColorMatrix3104"
         values="0 0 0 -1 0 0 0 0 -1 0 0 0 0 -1 0 0 0 0 1 0"
         in="fbSourceGraphic"
         result="fbSourceGraphicAlpha" />
      <feColorMatrix
         in="fbSourceGraphic"
         values="1.4 -0.2 -0.2 0 0 -0.2 1.4 -0.2 0 0 -0.2 -0.2 1.4 0 0 0 0 0 1 0 "
         id="feColorMatrix3106" />
    </filter>
    <clipPath
       id="clipPath3286"
       clipPathUnits="userSpaceOnUse">
      <rect
         transform="rotate(0.8565307)"
         ry="2.0000012"
         rx="2.0000012"
         y="659.26459"
         x="850.31317"
         height="15.84168"
         width="35.579533"
         id="rect3288"
         style="opacity:0.64099995;fill:#fbfbfb;fill-opacity:1;stroke:none;stroke-width:0.65540189;stroke-miterlimit:4;stroke-dasharray:none;stroke-dashoffset:39.22031021;stroke-opacity:1" />
    </clipPath>
    <filter
       id="filter2222-9"
       style="color-interpolation-filters:sRGB">
      <feColorMatrix
         result="fbSourceGraphic"
         id="feColorMatrix2220-4"
         values="1 -2.77556e-17 -2.77556e-17 0 0 -2.77556e-17 1 -2.77556e-17 0 0 -2.77556e-17 -2.77556e-17 1 0 0 0 0 0 1 0 " />
      <feColorMatrix
         id="feColorMatrix3104-6"
         values="0 0 0 -1 0 0 0 0 -1 0 0 0 0 -1 0 0 0 0 1 0"
         in="fbSourceGraphic"
         result="fbSourceGraphicAlpha" />
      <feColorMatrix
         in="fbSourceGraphic"
         values="1.4 -0.2 -0.2 0 0 -0.2 1.4 -0.2 0 0 -0.2 -0.2 1.4 0 0 0 0 0 1 0 "
         id="feColorMatrix3106-9" />
    </filter>
    <clipPath
       id="clipPath3325"
       clipPathUnits="userSpaceOnUse">
      <rect
         transform="matrix(-0.99988826,-0.01494872,-0.01494872,0.99988826,0,0)"
         ry="2.0000012"
         rx="2.0000012"
         y="651.6571"
         x="-875.36938"
         height="4.6772165"
         width="18.708866"
         id="rect3327"
         style="opacity:0.64099995;fill:#fbfbfb;fill-opacity:1;stroke:none;stroke-width:0.50099999;stroke-miterlimit:4;stroke-dasharray:none;stroke-dashoffset:39.22031021;stroke-opacity:1" />
    </clipPath>
    <filter
       id="filter2222-2"
       style="color-interpolation-filters:sRGB">
      <feColorMatrix
         result="fbSourceGraphic"
         id="feColorMatrix2220-47"
         values="1 -2.77556e-17 -2.77556e-17 0 0 -2.77556e-17 1 -2.77556e-17 0 0 -2.77556e-17 -2.77556e-17 1 0 0 0 0 0 1 0 " />
      <feColorMatrix
         id="feColorMatrix3104-7"
         values="0 0 0 -1 0 0 0 0 -1 0 0 0 0 -1 0 0 0 0 1 0"
         in="fbSourceGraphic"
         result="fbSourceGraphicAlpha" />
      <feColorMatrix
         in="fbSourceGraphic"
         values="1.4 -0.2 -0.2 0 0 -0.2 1.4 -0.2 0 0 -0.2 -0.2 1.4 0 0 0 0 0 1 0 "
         id="feColorMatrix3106-5" />
    </filter>
    <clipPath
       id="clipPath3834"
       clipPathUnits="userSpaceOnUse">
      <path
         id="path3836"
         d="m 949.92495,619.12604 -3.96978,-3.88144 -9.99168,0.29263 -0.007,-0.86102 -1.76676,-0.0431 0.0272,-0.81338 -1.05898,-0.56461 -4.57031,0.29488 -0.0245,0.29174 0.64525,0.8292 -0.041,0.52861 -13.38555,0.5168 -0.0132,-0.3222 -7.49414,-7.05025 -0.38621,-7.62437 0.36743,-0.0418 -0.0438,-0.48254 -1.35336,-0.64294 -0.23384,-0.004 -0.14151,-3.23902 -0.49881,-0.17252 0.003,-0.21046 0.48013,-0.0891 -0.88771,-0.61156 0.0204,-0.60108 -0.34723,-0.005 0.021,-0.34152 -2.5514,0.0405 -0.0434,0.30709 -1.13208,0.0168 0.002,0.56795 c -0.001,0.0742 0.52236,-0.0254 0.46055,0.0148 l -0.006,0.78796 -4.1107,0.10356 0.16198,4.07367 -0.81159,-0.002 -0.0126,0.50472 0.48096,-0.002 -0.0305,0.4283 0.19715,0.0592 0.0144,1.79791 -6.6754,0.02 0.003,0.33681 -0.30497,0.0444 -0.0559,0.48317 -0.43802,0.0605 -0.0571,0.30109 -4.96813,4.74885 -18.35115,-8.72355 -8.29802,0.41377 -2.73251,-50.85995 0.18749,-0.0732 -0.11942,-2.59499 -168.74946,-115.92965 -58.89811,18.46797 -48.124,-26.30542 0.0192,317.00536 380.97453,0.0719 0.0141,-120.61622 -1.45073,-0.88501 z"
         style="opacity:0.56499999;fill:#2b0000;fill-opacity:1;stroke:none;stroke-width:1.76200008;stroke-miterlimit:4;stroke-dasharray:none;stroke-dashoffset:39.22031021;stroke-opacity:1"
         inkscape:connector-curvature="0" />
    </clipPath>
    <clipPath
       id="clipPath3834-7"
       clipPathUnits="userSpaceOnUse">
      <path
         id="path3836-2"
         d="m 949.92495,619.12604 -3.96978,-3.88144 -9.99168,0.29263 -0.007,-0.86102 -1.76676,-0.0431 0.0272,-0.81338 -1.05898,-0.56461 -4.57031,0.29488 -0.0245,0.29174 0.64525,0.8292 -0.041,0.52861 -13.38555,0.5168 -0.0132,-0.3222 -7.49414,-7.05025 -0.38621,-7.62437 0.36743,-0.0418 -0.0438,-0.48254 -1.35336,-0.64294 -0.23384,-0.004 -0.14151,-3.23902 -0.49881,-0.17252 0.003,-0.21046 0.48013,-0.0891 -0.88771,-0.61156 0.0204,-0.60108 -0.34723,-0.005 0.021,-0.34152 -2.5514,0.0405 -0.0434,0.30709 -1.13208,0.0168 0.002,0.56795 c -0.001,0.0742 0.52236,-0.0254 0.46055,0.0148 l -0.006,0.78796 -4.1107,0.10356 0.16198,4.07367 -0.81159,-0.002 -0.0126,0.50472 0.48096,-0.002 -0.0305,0.4283 0.19715,0.0592 0.0144,1.79791 -6.6754,0.02 0.003,0.33681 -0.30497,0.0444 -0.0559,0.48317 -0.43802,0.0605 -0.0571,0.30109 -4.96813,4.74885 -18.35115,-8.72355 -8.29802,0.41377 -2.73251,-50.85995 0.18749,-0.0732 -0.11942,-2.59499 -168.74946,-115.92965 -58.89811,18.46797 -48.124,-26.30542 0.0192,317.00536 380.97453,0.0719 0.0141,-120.61622 -1.45073,-0.88501 z"
         style="opacity:0.56499999;fill:#2b0000;fill-opacity:1;stroke:none;stroke-width:1.76200008;stroke-miterlimit:4;stroke-dasharray:none;stroke-dashoffset:39.22031021;stroke-opacity:1"
         inkscape:connector-curvature="0" />
    </clipPath>
    <filter
       id="filter2222-4"
       style="color-interpolation-filters:sRGB">
      <feColorMatrix
         result="fbSourceGraphic"
         id="feColorMatrix2220-0"
         values="1 -2.77556e-17 -2.77556e-17 0 0 -2.77556e-17 1 -2.77556e-17 0 0 -2.77556e-17 -2.77556e-17 1 0 0 0 0 0 1 0 " />
      <feColorMatrix
         id="feColorMatrix3104-62"
         values="0 0 0 -1 0 0 0 0 -1 0 0 0 0 -1 0 0 0 0 1 0"
         in="fbSourceGraphic"
         result="fbSourceGraphicAlpha" />
      <feColorMatrix
         in="fbSourceGraphic"
         values="1.4 -0.2 -0.2 0 0 -0.2 1.4 -0.2 0 0 -0.2 -0.2 1.4 0 0 0 0 0 1 0 "
         id="feColorMatrix3106-99" />
    </filter>
    <clipPath
       id="clipPath3325-1"
       clipPathUnits="userSpaceOnUse">
      <rect
         transform="matrix(-0.99988826,-0.01494872,-0.01494872,0.99988826,0,0)"
         ry="2.0000012"
         rx="2.0000012"
         y="651.6571"
         x="-875.36938"
         height="4.6772165"
         width="18.708866"
         id="rect3327-3"
         style="opacity:0.64099995;fill:#fbfbfb;fill-opacity:1;stroke:none;stroke-width:0.50099999;stroke-miterlimit:4;stroke-dasharray:none;stroke-dashoffset:39.22031021;stroke-opacity:1" />
    </clipPath>
    <filter
       id="filter2222-2-1"
       style="color-interpolation-filters:sRGB">
      <feColorMatrix
         result="fbSourceGraphic"
         id="feColorMatrix2220-47-1"
         values="1 -2.77556e-17 -2.77556e-17 0 0 -2.77556e-17 1 -2.77556e-17 0 0 -2.77556e-17 -2.77556e-17 1 0 0 0 0 0 1 0 " />
      <feColorMatrix
         id="feColorMatrix3104-7-0"
         values="0 0 0 -1 0 0 0 0 -1 0 0 0 0 -1 0 0 0 0 1 0"
         in="fbSourceGraphic"
         result="fbSourceGraphicAlpha" />
      <feColorMatrix
         in="fbSourceGraphic"
         values="1.4 -0.2 -0.2 0 0 -0.2 1.4 -0.2 0 0 -0.2 -0.2 1.4 0 0 0 0 0 1 0 "
         id="feColorMatrix3106-5-3" />
    </filter>
    <clipPath
       id="clipPath3286-4"
       clipPathUnits="userSpaceOnUse">
      <rect
         transform="rotate(0.8565307)"
         ry="2.0000012"
         rx="2.0000012"
         y="659.26459"
         x="850.31317"
         height="15.84168"
         width="35.579533"
         id="rect3288-0"
         style="opacity:0.64099995;fill:#fbfbfb;fill-opacity:1;stroke:none;stroke-width:0.65540189;stroke-miterlimit:4;stroke-dasharray:none;stroke-dashoffset:39.22031021;stroke-opacity:1" />
    </clipPath>
    <filter
       id="filter2222-9-3"
       style="color-interpolation-filters:sRGB">
      <feColorMatrix
         result="fbSourceGraphic"
         id="feColorMatrix2220-4-9"
         values="1 -2.77556e-17 -2.77556e-17 0 0 -2.77556e-17 1 -2.77556e-17 0 0 -2.77556e-17 -2.77556e-17 1 0 0 0 0 0 1 0 " />
      <feColorMatrix
         id="feColorMatrix3104-6-1"
         values="0 0 0 -1 0 0 0 0 -1 0 0 0 0 -1 0 0 0 0 1 0"
         in="fbSourceGraphic"
         result="fbSourceGraphicAlpha" />
      <feColorMatrix
         in="fbSourceGraphic"
         values="1.4 -0.2 -0.2 0 0 -0.2 1.4 -0.2 0 0 -0.2 -0.2 1.4 0 0 0 0 0 1 0 "
         id="feColorMatrix3106-9-9" />
    </filter>
    <clipPath
       id="clipPath3834-6"
       clipPathUnits="userSpaceOnUse">
      <path
         id="path3836-9"
         d="m 949.92495,619.12604 -3.96978,-3.88144 -9.99168,0.29263 -0.007,-0.86102 -1.76676,-0.0431 0.0272,-0.81338 -1.05898,-0.56461 -4.57031,0.29488 -0.0245,0.29174 0.64525,0.8292 -0.041,0.52861 -13.38555,0.5168 -0.0132,-0.3222 -7.49414,-7.05025 -0.38621,-7.62437 0.36743,-0.0418 -0.0438,-0.48254 -1.35336,-0.64294 -0.23384,-0.004 -0.14151,-3.23902 -0.49881,-0.17252 0.003,-0.21046 0.48013,-0.0891 -0.88771,-0.61156 0.0204,-0.60108 -0.34723,-0.005 0.021,-0.34152 -2.5514,0.0405 -0.0434,0.30709 -1.13208,0.0168 0.002,0.56795 c -0.001,0.0742 0.52236,-0.0254 0.46055,0.0148 l -0.006,0.78796 -4.1107,0.10356 0.16198,4.07367 -0.81159,-0.002 -0.0126,0.50472 0.48096,-0.002 -0.0305,0.4283 0.19715,0.0592 0.0144,1.79791 -6.6754,0.02 0.003,0.33681 -0.30497,0.0444 -0.0559,0.48317 -0.43802,0.0605 -0.0571,0.30109 -4.96813,4.74885 -18.35115,-8.72355 -8.29802,0.41377 -2.73251,-50.85995 0.18749,-0.0732 -0.11942,-2.59499 -168.74946,-115.92965 -58.89811,18.46797 -48.124,-26.30542 0.0192,317.00536 380.97453,0.0719 0.0141,-120.61622 -1.45073,-0.88501 z"
         style="opacity:0.56499999;fill:#2b0000;fill-opacity:1;stroke:none;stroke-width:1.76200008;stroke-miterlimit:4;stroke-dasharray:none;stroke-dashoffset:39.22031021;stroke-opacity:1"
         inkscape:connector-curvature="0" />
    </clipPath>
    <filter
       id="filter2222-3"
       style="color-interpolation-filters:sRGB">
      <feColorMatrix
         result="fbSourceGraphic"
         id="feColorMatrix2220-3"
         values="1 -2.77556e-17 -2.77556e-17 0 0 -2.77556e-17 1 -2.77556e-17 0 0 -2.77556e-17 -2.77556e-17 1 0 0 0 0 0 1 0 " />
      <feColorMatrix
         id="feColorMatrix3104-8"
         values="0 0 0 -1 0 0 0 0 -1 0 0 0 0 -1 0 0 0 0 1 0"
         in="fbSourceGraphic"
         result="fbSourceGraphicAlpha" />
      <feColorMatrix
         in="fbSourceGraphic"
         values="1.4 -0.2 -0.2 0 0 -0.2 1.4 -0.2 0 0 -0.2 -0.2 1.4 0 0 0 0 0 1 0 "
         id="feColorMatrix3106-0" />
    </filter>
  </defs>
  <metadata
     id="metadata5">
    <rdf:RDF>
      <cc:Work
         rdf:about="">
        <dc:format>image/svg+xml</dc:format>
        <dc:type
           rdf:resource="http://purl.org/dc/dcmitype/StillImage" />
        <dc:title></dc:title>
      </cc:Work>
    </rdf:RDF>
  </metadata>
  <path
     inkscape:connector-curvature="0"
     id="path25996"
     style="font-style:normal;font-variant:normal;font-weight:normal;font-stretch:normal;font-size:24px;line-height:1.25;font-family:'DejaVu Sans';-inkscape-font-specification:'DejaVu Sans';letter-spacing:1.2189219px;word-spacing:0px;fill:#1f6071;fill-opacity:1;stroke:#2a505a;stroke-width:0.68791664;stroke-miterlimit:4;stroke-dasharray:none;stroke-opacity:1"
     d="m 16.085055,161.22121 h 1.315411 v 8.61525 h 4.734135 v 1.10703 h -6.049546 z" />
  <path
     inkscape:connector-curvature="0"
     id="path25998"
     style="font-style:normal;font-variant:normal;font-weight:normal;font-stretch:normal;font-size:24px;line-height:1.25;font-family:'DejaVu Sans';-inkscape-font-specification:'DejaVu Sans';letter-spacing:1.2189219px;word-spacing:0px;fill:#1f6071;fill-opacity:1;stroke:#2a505a;stroke-width:0.68791664;stroke-miterlimit:4;stroke-dasharray:none;stroke-opacity:1"
     d="m 24.140392,163.65016 h 1.198162 v 7.29333 h -1.198162 z m 0,-2.83921 h 1.198162 v 1.51729 h -1.198162 z" />
  <path
     inkscape:connector-curvature="0"
     id="path26000"
     style="font-style:normal;font-variant:normal;font-weight:normal;font-stretch:normal;font-size:24px;line-height:1.25;font-family:'DejaVu Sans';-inkscape-font-specification:'DejaVu Sans';letter-spacing:1.2189219px;word-spacing:0px;fill:#1f6071;fill-opacity:1;stroke:#2a505a;stroke-width:0.68791664;stroke-miterlimit:4;stroke-dasharray:none;stroke-opacity:1"
     d="m 34.585552,166.54143 v 4.40206 H 33.38739 v -4.363 q 0,-1.03535 -0.403759,-1.5498 -0.403758,-0.51445 -1.21122,-0.51445 -0.970277,0 -1.530294,0.61864 -0.560016,0.61865 -0.560016,1.68656 v 4.12205 h -1.20472 v -7.29333 h 1.20472 v 1.13309 q 0.429764,-0.65771 1.009341,-0.98334 0.586078,-0.32557 1.347974,-0.32557 1.256787,0 1.901489,0.7814 0.644647,0.77495 0.644647,2.28569 z" />
  <path
     inkscape:connector-curvature="0"
     id="path26002"
     style="font-style:normal;font-variant:normal;font-weight:normal;font-stretch:normal;font-size:24px;line-height:1.25;font-family:'DejaVu Sans';-inkscape-font-specification:'DejaVu Sans';letter-spacing:1.2189219px;word-spacing:0px;fill:#1f6071;fill-opacity:1;stroke:#2a505a;stroke-width:0.68791664;stroke-miterlimit:4;stroke-dasharray:none;stroke-opacity:1"
     d="m 37.607186,160.81095 h 1.204719 v 5.98448 l 3.575038,-3.14527 h 1.530294 l -3.868105,3.41222 4.030864,3.88111 h -1.562857 l -3.705234,-3.56204 v 3.56204 h -1.204719 z" />
  <path
     inkscape:connector-curvature="0"
     id="path26004"
     style="font-style:normal;font-variant:normal;font-weight:normal;font-stretch:normal;font-size:24px;line-height:1.25;font-family:'DejaVu Sans';-inkscape-font-specification:'DejaVu Sans';letter-spacing:1.2189219px;word-spacing:0px;fill:#1f6071;fill-opacity:1;stroke:#2a505a;stroke-width:0.68791664;stroke-miterlimit:4;stroke-dasharray:none;stroke-opacity:1"
     d="m 54.284379,167.27726 q -1.452164,0 -2.012181,0.33213 -0.560017,0.33213 -0.560017,1.1331 0,0.63814 0.416762,1.01584 0.423263,0.37119 1.146095,0.37119 0.996283,0 1.595364,-0.70332 0.605638,-0.70978 0.605638,-1.88193 v -0.26701 z m 2.389823,-0.49489 v 4.16112 H 55.47604 v -1.10703 q -0.41026,0.6642 -1.0224,0.98328 -0.612084,0.31257 -1.497731,0.31257 -1.120033,0 -1.78424,-0.62514 -0.657705,-0.63165 -0.657705,-1.68656 0,-1.23078 0.82052,-1.85592 0.826966,-0.62514 2.461506,-0.62514 h 1.68005 v -0.1172 q 0,-0.82702 -0.547014,-1.27634 -0.540456,-0.45583 -1.523792,-0.45583 -0.625142,0 -1.217722,0.14976 -0.59258,0.14981 -1.139593,0.44932 v -1.10697 q 0.657705,-0.254 1.276346,-0.3777 0.618641,-0.13025 1.20472,-0.13025 1.582361,0 2.363817,0.82052 0.7814,0.82046 0.7814,2.48751 z" />
  <path
     inkscape:connector-curvature="0"
     id="path26006"
     style="font-style:normal;font-variant:normal;font-weight:normal;font-stretch:normal;font-size:24px;line-height:1.25;font-family:'DejaVu Sans';-inkscape-font-specification:'DejaVu Sans';letter-spacing:1.2189219px;word-spacing:0px;fill:#1f6071;fill-opacity:1;stroke:#2a505a;stroke-width:0.68791664;stroke-miterlimit:4;stroke-dasharray:none;stroke-opacity:1"
     d="m 65.882136,166.54143 v 4.40206 h -1.198162 v -4.363 q 0,-1.03535 -0.403759,-1.5498 -0.403759,-0.51445 -1.211221,-0.51445 -0.970277,0 -1.530293,0.61864 -0.560017,0.61865 -0.560017,1.68656 v 4.12205 h -1.204719 v -7.29333 h 1.204719 v 1.13309 q 0.429765,-0.65771 1.009341,-0.98334 0.586078,-0.32557 1.347974,-0.32557 1.256787,0 1.90149,0.7814 0.644647,0.77495 0.644647,2.28569 z" />
  <path
     inkscape:connector-curvature="0"
     id="path26008"
     style="font-style:normal;font-variant:normal;font-weight:normal;font-stretch:normal;font-size:24px;line-height:1.25;font-family:'DejaVu Sans';-inkscape-font-specification:'DejaVu Sans';letter-spacing:1.2189219px;word-spacing:0px;fill:#1f6071;fill-opacity:1;stroke:#2a505a;stroke-width:0.68791664;stroke-miterlimit:4;stroke-dasharray:none;stroke-opacity:1"
     d="m 71.983917,171.6207 q -0.50795,1.30241 -0.989837,1.69961 -0.481888,0.39725 -1.28935,0.39725 h -0.957274 v -1.00284 h 0.703327 q 0.494891,0 0.768398,-0.23444 0.273506,-0.23444 0.605582,-1.10703 l 0.214883,-0.54696 -2.94984,-7.17613 h 1.26979 l 2.279186,5.70441 2.279131,-5.70441 h 1.269845 z" />
  <path
     inkscape:connector-curvature="0"
     id="path26010"
     style="font-style:normal;font-variant:normal;font-weight:normal;font-stretch:normal;font-size:24px;line-height:1.25;font-family:'DejaVu Sans';-inkscape-font-specification:'DejaVu Sans';letter-spacing:1.2189219px;word-spacing:0px;fill:#1f6071;fill-opacity:1;stroke:#2a505a;stroke-width:0.68791664;stroke-miterlimit:4;stroke-dasharray:none;stroke-opacity:1"
     d="m 81.738919,163.65016 h 1.198163 l 1.497786,5.69141 1.491229,-5.69141 h 1.413044 l 1.497731,5.69141 1.491229,-5.69141 h 1.198218 l -1.907991,7.29333 h -1.4131 l -1.569358,-5.97792 -1.57586,5.97792 h -1.4131 z" />
  <path
     inkscape:connector-curvature="0"
     id="path26012"
     style="font-style:normal;font-variant:normal;font-weight:normal;font-stretch:normal;font-size:24px;line-height:1.25;font-family:'DejaVu Sans';-inkscape-font-specification:'DejaVu Sans';letter-spacing:1.2189219px;word-spacing:0px;fill:#1f6071;fill-opacity:1;stroke:#2a505a;stroke-width:0.68791664;stroke-miterlimit:4;stroke-dasharray:none;stroke-opacity:1"
     d="m 100.25887,166.99725 v 0.58608 h -5.509094 q 0.07819,1.23728 0.742392,1.88849 0.670708,0.64465 1.862369,0.64465 0.690269,0 1.334971,-0.16932 0.651204,-0.16932 1.28935,-0.50789 v 1.13303 q -0.644703,0.27351 -1.321913,0.41676 -0.677265,0.14326 -1.374035,0.14326 -1.745176,0 -2.767521,-1.01584 -1.015898,-1.01585 -1.015898,-2.74802 0,-1.7908 0.963775,-2.8392 0.970277,-1.05491 2.611263,-1.05491 1.471724,0 2.324752,0.95072 0.859589,0.94421 0.859589,2.57219 z m -1.198222,-0.35163 q -0.01278,-0.98328 -0.553459,-1.56936 -0.534011,-0.58608 -1.419602,-0.58608 -1.00284,0 -1.608478,0.56652 -0.599081,0.56657 -0.690268,1.59542 z" />
  <path
     inkscape:connector-curvature="0"
     id="path26014"
     style="font-style:normal;font-variant:normal;font-weight:normal;font-stretch:normal;font-size:24px;line-height:1.25;font-family:'DejaVu Sans';-inkscape-font-specification:'DejaVu Sans';letter-spacing:1.2189219px;word-spacing:0px;fill:#1f6071;fill-opacity:1;stroke:#2a505a;stroke-width:0.68791664;stroke-miterlimit:4;stroke-dasharray:none;stroke-opacity:1"
     d="m 108.13839,167.30332 q 0,-1.32191 -0.54702,-2.07075 -0.54051,-0.75539 -1.49123,-0.75539 -0.95077,0 -1.49773,0.75539 -0.54051,0.74884 -0.54051,2.07075 0,1.32192 0.54051,2.07731 0.54696,0.74889 1.49773,0.74889 0.95072,0 1.49123,-0.74889 0.54702,-0.75539 0.54702,-2.07731 z m -4.07649,-2.54613 q 0.3777,-0.65121 0.95077,-0.96378 0.57952,-0.31907 1.38049,-0.31907 1.32847,0 2.15543,1.05491 0.83352,1.05496 0.83352,2.77407 0,1.71917 -0.83352,2.77408 -0.82696,1.05491 -2.15543,1.05491 -0.80097,0 -1.38049,-0.31257 -0.57307,-0.31908 -0.95077,-0.97028 v 1.09403 h -1.20472 v -10.13254 h 1.20472 z" />
  <path
     inkscape:connector-curvature="0"
     id="path26016"
     style="font-style:normal;font-variant:normal;font-weight:normal;font-stretch:normal;font-size:24px;line-height:1.25;font-family:'DejaVu Sans';-inkscape-font-specification:'DejaVu Sans';letter-spacing:1.2189219px;word-spacing:0px;fill:#1f6071;fill-opacity:1;stroke:#2a505a;stroke-width:0.68791664;stroke-miterlimit:4;stroke-dasharray:none;stroke-opacity:1"
     d="m 116.69512,163.86504 v 1.13309 q -0.50795,-0.2605 -1.05497,-0.3907 -0.54701,-0.13025 -1.13303,-0.13025 -0.89215,0 -1.34148,0.27351 -0.44282,0.2735 -0.44282,0.82046 0,0.41676 0.31907,0.65771 0.31913,0.23444 1.28285,0.44932 l 0.41026,0.0912 q 1.27635,0.27351 1.8103,0.7749 0.54052,0.49489 0.54052,1.38704 0,1.01584 -0.80747,1.60842 -0.80096,0.59258 -2.20755,0.59258 -0.58608,0 -1.22423,-0.1172 -0.63164,-0.11069 -1.33497,-0.33863 v -1.23722 q 0.66421,0.34513 1.30891,0.52095 0.6447,0.16931 1.27635,0.16931 0.84652,0 1.30235,-0.28656 0.45583,-0.29301 0.45583,-0.82047 0,-0.48839 -0.33208,-0.74889 -0.32563,-0.26045 -1.43916,-0.50139 l -0.41676,-0.0977 q -1.11353,-0.23444 -1.60843,-0.71633 -0.49489,-0.48839 -0.49489,-1.33492 0,-1.0289 0.72934,-1.58891 0.72933,-0.56002 2.07075,-0.56002 0.66426,0 1.25028,0.0977 0.58608,0.0977 1.08103,0.29301 z" />
  <path
     inkscape:connector-curvature="0"
     id="path26018"
     style="font-style:normal;font-variant:normal;font-weight:normal;font-stretch:normal;font-size:24px;line-height:1.25;font-family:'DejaVu Sans';-inkscape-font-specification:'DejaVu Sans';letter-spacing:1.2189219px;word-spacing:0px;fill:#1f6071;fill-opacity:1;stroke:#2a505a;stroke-width:0.68791664;stroke-miterlimit:4;stroke-dasharray:none;stroke-opacity:1"
     d="m 119.67113,163.65016 h 1.19816 v 7.29333 h -1.19816 z m 0,-2.83921 h 1.19816 v 1.51729 h -1.19816 z" />
  <path
     inkscape:connector-curvature="0"
     id="path26020"
     style="font-style:normal;font-variant:normal;font-weight:normal;font-stretch:normal;font-size:24px;line-height:1.25;font-family:'DejaVu Sans';-inkscape-font-specification:'DejaVu Sans';letter-spacing:1.2189219px;word-spacing:0px;fill:#1f6071;fill-opacity:1;stroke:#2a505a;stroke-width:0.68791664;stroke-miterlimit:4;stroke-dasharray:none;stroke-opacity:1"
     d="m 125.2389,161.57935 v 2.07081 h 2.46801 v 0.93121 h -2.46801 v 3.95924 q 0,0.89209 0.24094,1.14609 0.24745,0.25395 0.99634,0.25395 h 1.23073 v 1.00284 h -1.23073 q -1.38704,0 -1.91449,-0.51445 -0.52751,-0.52096 -0.52751,-1.88843 v -3.95924 h -0.87909 v -0.93121 h 0.87909 v -2.07081 z" />
  <path
     inkscape:connector-curvature="0"
     id="path26022"
     style="font-style:normal;font-variant:normal;font-weight:normal;font-stretch:normal;font-size:24px;line-height:1.25;font-family:'DejaVu Sans';-inkscape-font-specification:'DejaVu Sans';letter-spacing:1.2189219px;word-spacing:0px;fill:#1f6071;fill-opacity:1;stroke:#2a505a;stroke-width:0.68791664;stroke-miterlimit:4;stroke-dasharray:none;stroke-opacity:1"
     d="m 136.19851,166.99725 v 0.58608 h -5.50903 q 0.0781,1.23728 0.74233,1.88849 0.67071,0.64465 1.86243,0.64465 0.69026,0 1.33491,-0.16932 0.65121,-0.16932 1.28935,-0.50789 v 1.13303 q -0.64465,0.27351 -1.32191,0.41676 -0.67721,0.14326 -1.37398,0.14326 -1.74523,0 -2.76758,-1.01584 -1.01584,-1.01585 -1.01584,-2.74802 0,-1.7908 0.96372,-2.8392 0.97028,-1.05491 2.61132,-1.05491 1.47167,0 2.32475,0.95072 0.85953,0.94421 0.85953,2.57219 z m -1.19816,-0.35163 q -0.0128,-0.98328 -0.55352,-1.56936 -0.53395,-0.58608 -1.4196,-0.58608 -1.00284,0 -1.60842,0.56652 -0.59914,0.56657 -0.69027,1.59542 z" />
  <text
     xml:space="preserve"
     style="font-style:normal;font-weight:normal;font-size:10.81928062px;line-height:1.25;font-family:sans-serif;letter-spacing:0px;word-spacing:0px;fill:#1c2527;fill-opacity:1;stroke:none;stroke-width:0.45080334;enable-background:new"
     x="14.856896"
     y="197.58466"
     id="text15457-9-8"><tspan
       x="14.856896"
       y="197.58466"
       style="fill:#1c2527;fill-opacity:1;stroke-width:0.45080334"
       id="tspan15459-1-4">You decide how your card works </tspan><tspan
       id="tspan15023"
       x="14.856896"
       y="211.10875"
       style="fill:#1c2527;fill-opacity:1;stroke-width:0.45080334">when tapped </tspan></text>
  <rect
     style="opacity:1;fill:#1f6071;fill-opacity:1;stroke:#428a8a;stroke-width:0.56500006;stroke-miterlimit:4;stroke-dasharray:none;stroke-dashoffset:39.22031021;stroke-opacity:1;enable-background:new"
     id="rect15477-0-0"
     width="97.234375"
     height="0.66145831"
     x="15.443505"
     y="181.38231" />
  <path
     inkscape:connector-curvature="0"
     id="path21334"
     style="fill:#ebebeb;stroke-width:0.26458332"
     d="m 141.27837,44.060619 -0.54504,-0.889 C 136.13752,35.694494 127.82167,31.18864 119.07189,31.733681 a 23.547916,23.547916 0 0 0 -3.35491,0.455084 c -7.96131,1.685395 -14.89075,7.630583 -17.764127,15.247937 -1.690688,4.479396 -2.161646,9.636125 -5.36575,13.192125 -4.172479,4.624916 -11.255375,4.7625 -17.483666,4.579937 -6.228292,-0.182562 -13.313834,-0.0291 -17.4625,4.616979 -2.600854,2.910417 -3.426354,7.045854 -3.217333,10.943167 0.555625,10.31875 7.834312,19.53683 17.092083,24.12206 9.25777,4.58523 20.155958,4.99534 30.286853,2.97921 14.19225,-2.82575 27.69129,-10.583333 35.80342,-22.566312 8.11212,-11.982979 10.16264,-28.310416 3.67241,-41.243249 z" />
  <rect
     id="rect21337"
     style="fill:#fafafa;stroke-width:0.26458332"
     rx="5.9637084"
     height="12.834937"
     width="98.504372"
     y="83.401512"
     x="46.718937"
     ry="5.9637084" />
  <path
     inkscape:connector-curvature="0"
     id="path21339"
     style="fill:#225c6c;stroke-width:0.26458332;fill-opacity:1"
     d="m 122.49031,83.401514 h 16.98625 a 5.7441041,5.7441041 0 0 1 5.7441,5.744104 v 1.344083 a 5.7441041,5.7441041 0 0 1 -5.7441,5.744104 h -16.98625 z" />
  <path
     inkscape:connector-curvature="0"
     id="path21341"
     style="fill:#263238;stroke-width:0.26458332"
     d="m 57.595958,90.092826 v 1.69598 h -0.682625 v -1.608667 c 0,-0.529167 -0.264584,-0.780521 -0.703792,-0.780521 -0.492125,0 -0.8255,0.298979 -0.8255,0.891646 v 1.497542 h -0.703792 v -4.114271 h 0.693209 v 1.497541 a 1.3229166,1.3229166 0 0 1 0.986896,-0.375708 c 0.709083,0 1.235604,0.404813 1.235604,1.296458 z" />
  <path
     inkscape:connector-curvature="0"
     id="path21343"
     style="fill:#263238;stroke-width:0.26458332"
     d="m 60.257666,91.62741 a 1.0927292,1.0927292 0 0 1 -0.664104,0.201083 c -0.648229,0 -1.021292,-0.343958 -1.021292,-1.000125 V 89.40491 h -0.486833 v -0.552979 h 0.486833 v -0.677334 h 0.693208 v 0.677334 h 0.79375 v 0.552979 h -0.79375 v 1.407583 c 0,0.288396 0.145521,0.4445 0.410105,0.4445 a 0.62970833,0.62970833 0 0 0 0.388937,-0.121708 z" />
  <path
     inkscape:connector-curvature="0"
     id="path21345"
     style="fill:#263238;stroke-width:0.26458332"
     d="m 62.535728,91.62741 a 1.0874375,1.0874375 0 0 1 -0.664104,0.201083 c -0.648229,0 -1.018646,-0.343958 -1.018646,-1.000125 V 89.40491 h -0.500062 v -0.552979 h 0.489479 v -0.677334 h 0.690563 v 0.677334 h 0.79375 v 0.552979 h -0.79375 v 1.407583 c 0,0.288396 0.14552,0.4445 0.410104,0.4445 a 0.62970833,0.62970833 0 0 0 0.388937,-0.121708 z" />
  <path
     inkscape:connector-curvature="0"
     id="path21347"
     style="fill:#263238;stroke-width:0.26458332"
     d="m 66.250478,90.309785 a 1.4419791,1.4419791 0 0 1 -1.500187,1.518708 1.2250208,1.2250208 0 0 1 -0.949854,-0.399521 v 1.434042 h -0.693209 v -4.034896 h 0.661459 v 0.388938 a 1.2197292,1.2197292 0 0 1 0.981604,-0.420688 1.4393333,1.4393333 0 0 1 1.500187,1.513417 z m -0.703791,0 a 0.87841666,0.87841666 0 1 0 -0.875771,0.923396 0.85989582,0.85989582 0 0 0 0.875771,-0.923396 z" />
  <path
     inkscape:connector-curvature="0"
     id="path21349"
     style="fill:#263238;stroke-width:0.26458332"
     d="m 66.679103,89.254097 a 0.45508333,0.45508333 0 1 1 0.907521,0 0.45508333,0.45508333 0 1 1 -0.907521,0 z m 0,2.116667 a 0.45508333,0.45508333 0 1 1 0.907521,0 0.45508333,0.45508333 0 1 1 -0.907521,0 z" />
  <path
     inkscape:connector-curvature="0"
     id="path21351"
     style="fill:#263238;stroke-width:0.26458332"
     d="m 69.750916,87.121556 h 0.619125 l -1.815042,5.220229 h -0.635 z" />
  <path
     inkscape:connector-curvature="0"
     id="path21353"
     style="fill:#263238;stroke-width:0.26458332"
     d="m 71.417791,87.121556 h 0.621771 l -1.828271,5.220229 H 69.58952 Z" />
  <path
     inkscape:connector-curvature="0"
     id="path21355"
     style="fill:#263238;stroke-width:0.26458332"
     d="m 76.717395,88.828118 -1.090083,2.960688 h -0.66675 l -0.764646,-2.039938 -0.775229,2.039938 h -0.66675 l -1.084792,-2.960688 h 0.653521 l 0.780521,2.185458 0.814916,-2.185458 h 0.582084 l 0.79375,2.196042 0.79375,-2.196042 z" />
  <path
     inkscape:connector-curvature="0"
     id="path21357"
     style="fill:#263238;stroke-width:0.26458332"
     d="m 81.757707,88.828118 -1.092729,2.960688 h -0.664104 l -0.764646,-2.039938 -0.777875,2.039938 h -0.664104 l -1.087437,-2.960688 h 0.656166 l 0.79375,2.185458 0.814917,-2.185458 h 0.582083 l 0.79375,2.196042 0.79375,-2.196042 z" />
  <path
     inkscape:connector-curvature="0"
     id="path21359"
     style="fill:#263238;stroke-width:0.26458332"
     d="m 86.811249,88.828118 -1.092729,2.960688 h -0.664104 l -0.764646,-2.039938 -0.777875,2.039938 h -0.669396 l -1.087437,-2.960688 h 0.65352 l 0.79375,2.185458 0.814917,-2.185458 h 0.582083 l 0.79375,2.196042 0.79375,-2.196042 z" />
  <path
     inkscape:connector-curvature="0"
     id="path21361"
     style="fill:#263238;stroke-width:0.26458332"
     d="m 86.858874,91.368118 a 0.4550835,0.4550835 0 1 1 0.910167,0 0.4550835,0.4550835 0 1 1 -0.910167,0 z" />
  <path
     inkscape:connector-curvature="0"
     id="path21363"
     style="fill:#263238;stroke-width:0.26458332"
     d="m 139.25696,96.233805 0.54768,-0.03175 c 0.17992,-0.01852 0.40217,-0.05821 0.66675,-0.100541 a 6.5325624,6.5325624 0 0 0 0.89165,-0.264584 5.9346041,5.9346041 0 0 0 2.16165,-1.423458 6.3499999,6.3499999 0 0 0 0.97895,-1.341437 5.9954583,5.9954583 0 0 0 0.60325,-1.785938 10.453687,10.453687 0 0 0 0.0794,-2.116666 5.7917291,5.7917291 0 0 0 -0.52917,-2.256896 6.0139791,6.0139791 0 0 0 -1.51341,-2.021417 5.8208333,5.8208333 0 0 0 -2.413,-1.262062 6.0854166,6.0854166 0 0 0 -1.4314,-0.187855 h -4.65667 -6.85535 l -75.107271,0.01587 a 5.9319583,5.9319583 0 0 0 -5.794375,4.728105 c -0.0291,0.22225 -0.07408,0.439208 -0.0926,0.661458 -0.01852,0.22225 -0.0291,0.441854 -0.02646,0.66675 v 0.672042 c 0,0.22225 0.02117,0.441854 0.0291,0.664104 a 5.8975624,5.8975624 0 0 0 5.053542,5.265208 4.7624999,4.7624999 0 0 0 0.642937,0.05556 c 0.214313,0.01587 0.433917,0 0.650875,0 h 21.238104 l 33.760838,0.01323 22.75416,0.01852 h 6.18861 1.60866 0.54769 c 0,0 -0.18521,0 -0.54769,0 h -1.60866 -6.18861 l -22.75416,0.01852 H 74.381124 53.150958 c -0.219604,0 -0.433917,0 -0.653521,0 a 4.9133124,4.9133124 0 0 1 -0.656167,-0.05556 6.0086874,6.0086874 0 0 1 -5.148791,-5.36575 c 0,-0.224896 -0.02911,-0.452438 -0.03175,-0.674688 v -0.672041 c 0,-0.22225 0.01852,-0.452438 0.0291,-0.677334 0.01058,-0.224895 0.06085,-0.447145 0.0926,-0.672041 A 6.0457291,6.0457291 0 0 1 52.679991,83.3433 l 75.099329,0.01588 h 6.85536 4.65666 a 6.0854166,6.0854166 0 0 1 1.44727,0.193145 5.8472916,5.8472916 0 0 1 2.43417,1.277938 6.0854166,6.0854166 0 0 1 1.52665,2.042583 5.9134374,5.9134374 0 0 1 0.52916,2.278063 10.76325,10.76325 0 0 1 -0.0847,2.116666 6.1489166,6.1489166 0 0 1 -0.61384,1.796521 6.3499999,6.3499999 0 0 1 -0.98954,1.346729 5.9425416,5.9425416 0 0 1 -2.17752,1.420813 6.4981666,6.4981666 0 0 1 -0.89694,0.264583 c -0.26458,0.03969 -0.48683,0.08202 -0.66939,0.09525 z" />
  <path
     inkscape:connector-curvature="0"
     id="path21365"
     style="fill:#ffffff;stroke-width:0.26458332"
     d="m 132.14496,91.569201 a 2.7807708,2.7807708 0 1 1 2.78077,-2.778125 2.7807708,2.7807708 0 0 1 -2.78077,2.778125 z m 0,-5.339291 a 2.5611666,2.5611666 0 1 0 2.55587,2.561166 2.5638125,2.5638125 0 0 0 -2.55587,-2.561166 z" />
  <path
     inkscape:connector-curvature="0"
     id="path21367"
     style="fill:#ffffff;stroke-width:0.26458332"
     d="m 136.51058,93.656764 a 0.11377083,0.11377083 0 0 1 -0.0794,-0.0344 l -2.52413,-2.727854 a 0.111125,0.111125 0 0 1 0.1614,-0.150813 l 2.53735,2.727854 a 0.11377083,0.11377083 0 0 1 0,0.156105 0.12170833,0.12170833 0 0 1 -0.0952,0.0291 z" />
  <path
     inkscape:connector-curvature="0"
     id="path21369"
     style="fill:#966161;stroke-width:0.26458332"
     d="m 88.771811,92.751889 c -0.03175,0 -0.05821,-1.307042 -0.05821,-2.910417 0,-1.603375 0.02646,-2.910416 0.05821,-2.910416 0.03175,0 0.05556,1.307041 0.05556,2.910416 0,1.603375 -0.02381,2.910417 -0.05556,2.910417 z" />
  <path
     inkscape:connector-curvature="0"
     id="path21372"
     style="fill:#263238;stroke-width:0.26458332"
     d="M 95.59277,39.15789 A 41.711562,41.711562 0 0 0 95.606,49.476639 c 0.108479,0.867834 0.293687,1.815042 0.976312,2.357438 0.814917,0.645583 2.092854,0.420687 2.833688,-0.306917 0.74083,-0.727604 1.016,-1.820333 1.00277,-2.860146 -0.0132,-1.039812 -0.28046,-2.053166 -0.468312,-3.074458 -0.248708,-1.346729 -0.373062,-2.743729 -0.976312,-3.96875 -0.60325,-1.225021 -1.852084,-2.275416 -3.20675,-2.137833" />
  <path
     inkscape:connector-curvature="0"
     id="path21374"
     style="fill:#263238;stroke-width:0.26458332"
     d="m 97.598311,29.07991 c 1.553104,-1.529291 4.884209,-1.140354 6.614579,0.174625 1.73038,1.31498 2.64584,3.481917 3.01096,5.63298 0.36513,2.151062 0.28046,4.352395 0.45773,6.524624 0.17727,2.17223 0.66675,4.41325 2.00819,6.133042 0.57415,0.732896 1.29117,1.354667 1.80181,2.132542 a 4.8974374,4.8974374 0 0 1 0.20109,5.027083 4.4238333,4.4238333 0 0 1 -4.49792,2.116667 c -1.80446,-0.341313 -3.19088,-1.878542 -3.88144,-3.579813 -0.69056,-1.701271 -0.79375,-3.574521 -0.94456,-5.405437 a 149.08477,149.08477 0 0 0 -2.29658,-16.980958" />
  <path
     inkscape:connector-curvature="0"
     id="path21376"
     style="fill:#c69481;stroke-width:0.26458332"
     d="m 95.698603,45.886244 1.616604,-0.439209 h 7.125233 l 3.86291,2.280709 c 0,0 -6.75481,3.040062 -9.260414,1.820333 a 7.0299791,7.0299791 0 0 1 -3.346979,-3.458104" />
  <path
     inkscape:connector-curvature="0"
     id="path21378"
     style="fill:#c69481;stroke-width:0.26458332"
     d="m 104.496,32.987806 0.0423,-0.949854 -5.68854,-1.264708 c -1.759479,-0.243417 -3.722687,1.468437 -3.889374,3.235854 -0.185209,1.963208 -0.333375,4.368271 -0.145521,5.842 0.375708,2.968625 2.627312,3.413125 2.627312,3.413125 l 0.240771,6.484937 6.529912,0.280459 z" />
  <path
     inkscape:connector-curvature="0"
     id="path21380"
     style="fill:#263238;stroke-width:0.26458332"
     d="m 95.807082,36.080785 a 0.37835416,0.37835416 0 0 0 0.351896,0.39423 0.365125,0.365125 0 0 0 0.402167,-0.33073 0.37835416,0.37835416 0 0 0 -0.351896,-0.391583 0.36247916,0.36247916 0 0 0 -0.402167,0.328083 z" />
  <path
     inkscape:connector-curvature="0"
     id="path21382"
     style="fill:#263238;stroke-width:0.26458332"
     d="m 95.542499,35.056848 c 0.04498,0.05027 0.338667,-0.153458 0.746125,-0.137583 0.407458,0.01587 0.701146,0.224895 0.746125,0.17727 0.04498,-0.04763 -0.02381,-0.111125 -0.150813,-0.211666 A 1.0583333,1.0583333 0 0 0 96.29127,34.68114 1.0292292,1.0292292 0 0 0 95.693311,34.853119 c -0.119062,0.09525 -0.150812,0.179916 -0.150812,0.203729 z" />
  <path
     inkscape:connector-curvature="0"
     id="path21384"
     style="fill:#263238;stroke-width:0.26458332"
     d="m 99.791707,36.271285 a 0.37835416,0.37835416 0 0 0 0.351893,0.39423 0.365125,0.365125 0 0 0 0.40217,-0.33073 0.37835416,0.37835416 0 0 0 -0.35454,-0.391583 0.35983333,0.35983333 0 0 0 -0.399523,0.328083 z" />
  <path
     inkscape:connector-curvature="0"
     id="path21386"
     style="fill:#263238;stroke-width:0.26458332"
     d="m 99.553582,35.268515 c 0.04498,0.05027 0.338667,-0.153459 0.746128,-0.14023 0.40746,0.01323 0.6985,0.227542 0.74612,0.179917 0.0476,-0.04763 -0.0238,-0.113771 -0.15081,-0.211667 a 1.0583333,1.0583333 0 0 0 -0.59531,-0.203729 1.0027708,1.0027708 0 0 0 -0.595315,0.171979 c -0.127,0.0926 -0.17198,0.179917 -0.150813,0.20373 z" />
  <path
     inkscape:connector-curvature="0"
     id="path21388"
     style="fill:#263238;stroke-width:0.26458332"
     d="m 97.981957,38.454098 a 2.7357916,2.7357916 0 0 0 -0.658812,-0.140229 c -0.103188,0 -0.201084,-0.03704 -0.216959,-0.108479 a 0.52916666,0.52916666 0 0 1 0.07938,-0.306917 c 0.105834,-0.248708 0.216959,-0.508 0.330729,-0.79375 0.463021,-1.113896 0.79375,-2.032 0.756709,-2.050521 -0.03704,-0.01852 -0.457729,0.870479 -0.918104,1.987021 l -0.320146,0.79375 a 0.61647916,0.61647916 0 0 0 -0.06615,0.407458 0.26458333,0.26458333 0 0 0 0.166687,0.15875 0.79374999,0.79374999 0 0 0 0.174625,0.0291 2.6458333,2.6458333 0 0 0 0.672042,0.02381 z" />
  <path
     inkscape:connector-curvature="0"
     id="path21390"
     style="fill:#936457;stroke-width:0.26458332"
     d="m 97.450145,43.269514 a 7.8052082,7.8052082 0 0 0 4.085165,-0.933979 c 0,0 -1.00012,2.042584 -4.048124,1.677459 z" />
  <path
     inkscape:connector-curvature="0"
     id="path21392"
     style="fill:#936457;stroke-width:0.26458332"
     d="m 98.122186,39.446285 a 0.74083332,0.74083332 0 0 1 0.66675,-0.264583 0.67204166,0.67204166 0 0 1 0.455084,0.264583 0.42862499,0.42862499 0 0 1 0.01852,0.486834 0.49741666,0.49741666 0 0 1 -0.529166,0.119062 1.5478125,1.5478125 0 0 1 -0.510646,-0.328083 0.41274999,0.41274999 0 0 1 -0.111125,-0.124354 0.12964583,0.12964583 0 0 1 0,-0.150813" />
  <path
     inkscape:connector-curvature="0"
     id="path21394"
     style="fill:#263238;stroke-width:0.26458332"
     d="m 99.172582,38.774244 c -0.06615,0 -0.08202,0.436562 -0.470958,0.738187 -0.388938,0.301625 -0.85725,0.238125 -0.862542,0.298979 -0.0053,0.06085 0.103188,0.08996 0.301625,0.100542 a 1.095375,1.095375 0 0 0 0.719667,-0.224896 0.96837499,0.96837499 0 0 0 0.365125,-0.619125 c 0.02117,-0.185208 -0.02381,-0.296333 -0.05292,-0.293687 z" />
  <path
     inkscape:connector-curvature="0"
     id="path21396"
     style="fill:#263238;stroke-width:0.26458332"
     d="m 99.511249,34.038202 c 0.03704,0.111125 0.4445,0.07144 0.920751,0.142875 0.47625,0.07144 0.85989,0.216958 0.92604,0.119063 0.0291,-0.04762 -0.0344,-0.153459 -0.18785,-0.264584 a 1.5107708,1.5107708 0 0 0 -0.67998,-0.264583 1.5425208,1.5425208 0 0 0 -0.724961,0.06085 c -0.193146,0.05821 -0.283104,0.153458 -0.254,0.206375 z" />
  <path
     inkscape:connector-curvature="0"
     id="path21398"
     style="fill:#263238;stroke-width:0.26458332"
     d="m 95.605999,33.659848 c 0.06879,0.09525 0.354542,0 0.690562,0.01323 0.336021,0.01323 0.621771,0.08202 0.690563,-0.01323 0.0291,-0.04762 0,-0.140229 -0.134938,-0.232833 a 0.99747915,0.99747915 0 0 0 -1.11125,0 c -0.121708,0.0926 -0.164041,0.198437 -0.134937,0.232833 z" />
  <path
     inkscape:connector-curvature="0"
     id="path21400"
     style="fill:#226e90;stroke-width:0.26458332;fill-opacity:1"
     d="m 104.40869,37.631244 c 0.51593,-0.341313 0.74083,-3.286125 0.71966,-4.497917 -0.0212,-1.211792 -0.66939,-2.286 -1.52135,-3.14325 -0.92075,-0.926042 -2.00025,-1.251479 -3.302,-1.391708 -0.730251,-0.07938 -1.513418,-0.174625 -2.219855,0.02646 -0.706438,0.201083 -1.100667,0.449792 -1.444625,1.098021 -0.1905,0.359833 -0.240771,0.873125 0.08996,1.108604 0.330729,0.235479 0.746125,0.04498 1.119187,-0.06085 0.989542,-0.283104 2.074334,0.03704 2.928933,0.608542 0.85461,0.5715 1.52665,1.378479 2.18546,2.172229 0.85461,1.034521 1.25942,2.754312 1.44992,4.079875" />
  <path
     inkscape:connector-curvature="0"
     id="path21402"
     style="fill:#263238;stroke-width:0.26458332"
     d="m 94.444478,30.746785 c 0.378354,-1.201208 2.717271,-2.688166 5.193771,-1.5875 1.137711,0.03969 2.243671,0.227542 3.455461,1.322917 2.1881,1.997604 1.34937,6.879167 1.34937,6.879167 a 11.088687,11.088687 0 0 1 -3.48985,-2.817813 C 99.54829,32.850223 98.778353,31.52466 98.503186,30.720327 v 0 c -2.286,0.550333 -3.148541,2.547938 -3.550708,3.413125 -0.515937,-0.566208 -1.177396,-1.267354 -0.508,-3.386667 z" />
  <path
     inkscape:connector-curvature="0"
     id="path21404"
     style="fill:#c69481;stroke-width:0.26458332"
     d="m 103.95889,37.08091 c 0.0476,-0.02381 1.94734,-0.664104 1.96586,1.30175 0.0185,1.965854 -1.95792,1.5875 -1.96056,1.521355 -0.003,-0.06615 -0.005,-2.823105 -0.005,-2.823105 z" />
  <path
     inkscape:connector-curvature="0"
     id="path21406"
     style="fill:#936457;stroke-width:0.26458332"
     d="m 104.55685,39.152598 c 0,0 0.0344,0.02381 0.0926,0.05027 a 0.33602083,0.33602083 0 0 0 0.26458,0 0.84666666,0.84666666 0 0 0 0.38365,-0.764646 1.1509375,1.1509375 0 0 0 -0.10055,-0.486833 0.396875,0.396875 0 0 0 -0.26458,-0.264584 0.17197916,0.17197916 0 0 0 -0.20108,0.09525 c -0.0265,0.05556 -0.0132,0.09525 -0.0238,0.0979 -0.0106,0.0026 -0.0423,-0.03175 -0.0265,-0.113771 a 0.22225,0.22225 0 0 1 0.0741,-0.124354 0.26458333,0.26458333 0 0 1 0.1905,-0.05027 0.47624999,0.47624999 0 0 1 0.35983,0.301625 1.1668125,1.1668125 0 0 1 0.12436,0.545042 c 0,0.396875 -0.20902,0.769937 -0.49213,0.854604 a 0.3571875,0.3571875 0 0 1 -0.31221,-0.05027 c -0.0661,-0.04233 -0.0873,-0.08467 -0.0688,-0.08996 z" />
  <path
     inkscape:connector-curvature="0"
     id="path21408"
     style="fill:#c69481;stroke-width:0.26458332"
     d="m 82.802812,80.938243 -3.96875,0.439208 -2.415646,1.516063 c 0,0 -0.04762,0.492125 0.640291,0.41275 l 1.362605,-0.574146 -1.0795,1.180042 c 0,0 0.264583,0.473604 0.854604,0.142875 a 3.349625,3.349625 0 0 0 0.957791,-0.830792 l 2.38125,-0.166687 c 0,0 -1.799166,1.730375 -1.468437,2.180166 0.330729,0.449792 0.545042,0.354542 0.79375,0.1905 0.248708,-0.164041 0.404812,-0.735541 0.994833,-0.923396 0.590021,-0.187854 1.571625,-0.743479 2.629958,-1.246187 0.912813,-0.431271 1.836209,-3.518958 1.836209,-3.518958 l -3.040063,-0.592667 z" />
  <path
     inkscape:connector-curvature="0"
     id="path21410"
     style="fill:#936457;stroke-width:0.26458332"
     d="m 81.225895,81.948951 c 0,0.05027 -1.000125,0.243417 -2.251604,0.431271 h -0.03175 l 0.05027,-0.02646 c -0.873125,0.894292 -1.606021,1.5875 -1.643063,1.553104 -0.03704,-0.0344 0.640292,-0.79375 1.513417,-1.680104 l 0.02117,-0.02381 h 0.02911 0.0344 c 1.248834,-0.1905 2.270125,-0.30427 2.278063,-0.254 z" />
  <polygon
     id="polygon21412"
     style="fill:#bc8874;fill-opacity:1"
     points="270.11,384.3 289.66,379.01 286.87,354.83 264.45,361.11 "
     transform="matrix(0.26458333,0,0,0.26458333,29.925833,5.5796191)" />
  <path
     inkscape:connector-curvature="0"
     id="path21414"
     style="fill:#225c6c;stroke-width:0.26458332;fill-opacity:1"
     d="m 106.63119,105.8567 1.00277,7.45596 2.49502,5.67002 a 0.76993749,0.76993749 0 0 1 -0.4445,1.03452 v 0 a 0.76993749,0.76993749 0 0 1 -0.70115,-0.09 c -1.30439,-0.91016 -6.08541,-4.27566 -6.13569,-4.826 -0.0503,-0.63764 -1.5875,-7.79462 -1.5875,-7.79462 z" />
  <g
     id="g21418"
     style="opacity:0.6"
     transform="matrix(0.26458333,0,0,0.26458333,29.925833,5.5796191)">
    <path
       inkscape:connector-curvature="0"
       id="path21416"
       style="fill:#ffffff"
       d="M 301.45,432.47 275.31,412 l 0.19,1.19 a 4.36,4.36 0 0 0 1.47,2.64 c 2.12,1.82 8.06,6.7 21.75,16.31 a 2.89,2.89 0 0 0 2.73,0.33 z" />
  </g>
  <g
     id="g21422"
     style="opacity:0.6"
     transform="matrix(0.26458333,0,0,0.26458333,29.925833,5.5796191)">
    <path
       inkscape:connector-curvature="0"
       id="path21420"
       style="fill:#ffffff"
       d="m 279.65,402 a 1.76,1.76 0 0 1 0.83,2.2 1.69,1.69 0 0 1 -2.17,0.85 1.85,1.85 0 0 1 -0.87,-2.33 1.75,1.75 0 0 1 2.35,-0.63" />
  </g>
  <path
     inkscape:connector-curvature="0"
     id="path21424"
     style="fill:#263238;stroke-width:0.26458332"
     d="m 107.47256,117.02476 a 2.3045208,2.3045208 0 0 1 0.56092,-0.67998 c 0.39952,-0.29104 0.82814,-0.25135 0.83079,-0.29897 0.003,-0.0476 -0.10054,-0.0635 -0.27781,-0.0582 a 1.1694583,1.1694583 0 0 0 -0.64823,0.22225 1.1932708,1.1932708 0 0 0 -0.42863,0.52916 c -0.0609,0.17198 -0.0609,0.28311 -0.037,0.28575 z" />
  <path
     inkscape:connector-curvature="0"
     id="path21426"
     style="fill:#263238;stroke-width:0.26458332"
     d="m 108.16048,117.93758 c 0.0397,0.0264 0.24077,-0.26459 0.60589,-0.42334 a 6.1145208,6.1145208 0 0 1 0.71173,-0.20902 c 0.0159,-0.0423 -0.36777,-0.14287 -0.79375,0.0582 -0.42598,0.20108 -0.56621,0.56092 -0.52387,0.57415 z" />
  <path
     inkscape:connector-curvature="0"
     id="path21428"
     style="fill:#263238;stroke-width:0.26458332"
     d="m 106.28723,115.91087 c 0.0397,0.0291 0.3466,-0.40217 0.89164,-0.71702 0.54505,-0.31486 1.05834,-0.381 1.05834,-0.43127 0,-0.0503 -0.56357,-0.0582 -1.14565,0.28839 -0.58208,0.34661 -0.84402,0.83873 -0.80433,0.8599 z" />
  <path
     inkscape:connector-curvature="0"
     id="path21430"
     style="fill:#263238;stroke-width:0.26458332"
     d="m 105.79246,113.66456 c 0.0265,0.0397 0.4101,-0.1958 0.94191,-0.29898 0.53182,-0.10319 0.97367,-0.0423 0.98161,-0.09 0.008,-0.0476 -0.4445,-0.1905 -1.016,-0.0714 -0.5715,0.11906 -0.93663,0.42863 -0.90752,0.46038 z" />
  <path
     inkscape:connector-curvature="0"
     id="path21432"
     style="fill:#263238;stroke-width:0.26458332"
     d="m 105.44056,111.48174 c 0.0317,0.0397 0.40481,-0.26458 0.97367,-0.33602 0.56885,-0.0714 1.00541,0.13759 1.02394,0.0926 0.0185,-0.045 -0.0873,-0.0979 -0.26459,-0.17198 a 1.666875,1.666875 0 0 0 -0.77258,-0.0847 1.6377708,1.6377708 0 0 0 -0.72761,0.26458 c -0.17197,0.11907 -0.24606,0.22225 -0.23283,0.23548 z" />
  <path
     inkscape:connector-curvature="0"
     id="path21434"
     style="fill:#263238;stroke-width:0.26458332"
     d="m 106.33485,110.73297 a 0.62706249,0.62706249 0 0 0 -0.0344,-0.2831 1.9711458,1.9711458 0 0 0 -0.33867,-0.70115 0.88106249,0.88106249 0 0 0 -0.43656,-0.35454 0.31220833,0.31220833 0 0 0 -0.33602,0.12171 0.51064583,0.51064583 0 0 0 -0.0635,0.35454 1.0874375,1.0874375 0 0 0 1.10066,0.84667 1.2594167,1.2594167 0 0 0 1.12184,-0.84667 0.43127083,0.43127083 0 0 0 -0.0344,-0.36248 0.30691666,0.30691666 0 0 0 -0.34131,-0.11112 1.0583333,1.0583333 0 0 0 -0.44715,0.33337 2.2039791,2.2039791 0 0 0 -0.41804,0.65617 0.66145832,0.66145832 0 0 0 -0.0714,0.26458 3.5136666,3.5136666 0 0 1 0.57415,-0.85196 0.99218749,0.99218749 0 0 1 0.39687,-0.27781 0.15875,0.15875 0 0 1 0.18521,0.0582 0.29104166,0.29104166 0 0 1 0,0.23812 1.1297708,1.1297708 0 0 1 -0.9816,0.72496 0.94456249,0.94456249 0 0 1 -0.94456,-0.70644 0.365125,0.365125 0 0 1 0.0344,-0.2487 0.16933333,0.16933333 0 0 1 0.18256,-0.0714 0.81491666,0.81491666 0 0 1 0.37836,0.30956 2.9104166,2.9104166 0 0 1 0.4736,0.90752 z" />
  <path
     inkscape:connector-curvature="0"
     id="path21436"
     style="fill:#263238;stroke-width:0.26458332"
     d="M 92.843749,69.217202 92.73527,70.83116 c 0,0 -1.362604,2.579687 -1.486959,4.892146 -0.07408,1.341437 -0.103187,3.320521 -0.116416,4.743979 a 5.9981041,5.9981041 0 0 0 0.915458,3.241146 l 2.7305,4.378854 -0.375708,4.945062 4.950354,9.913933 7.326311,-1.85208 -0.86783,-18.295936 -2.94746,-9.662583 -0.56092,-4.585229 z" />
  <path
     inkscape:connector-curvature="0"
     id="path21438"
     style="fill:#263238;stroke-width:0.26458332"
     d="m 107.60221,68.211785 0.12964,2.103437 c 0,0 5.88434,-12.530666 13.91179,-14.075833 5.21494,-1.005416 7.27075,4.680479 5.43984,9.194271 -1.10067,2.717271 -5.67267,7.918979 -5.67796,8.038042 -0.14552,2.791354 -2.98715,2.38125 -2.98715,2.38125 0,0 -3.56129,5.622395 -4.61962,6.720416 -0.72496,0.754063 -8.37406,0.484188 -8.37406,0.484188 l -2.40507,-4.971521 -0.96837,-9.525 z" />
  <path
     inkscape:connector-curvature="0"
     id="path21440"
     style="fill:#455a64;stroke-width:0.26458332"
     d="m 97.428978,81.348347 a 2.3362708,2.3362708 0 0 1 -0.137583,0.452438 c -0.10848,0.3175 -0.246063,0.724958 -0.415396,1.211791 -0.346604,1.023938 -0.79375,2.447396 -1.23825,4.040188 -0.4445,1.592792 -0.762,3.050646 -0.981604,4.108979 -0.103188,0.505354 -0.187854,0.928688 -0.264584,1.256771 a 2.1298958,2.1298958 0 0 1 -0.111125,0.457729 2.555875,2.555875 0 0 1 0.04763,-0.470958 c 0.03704,-0.298979 0.105834,-0.732896 0.201084,-1.267354 0.1905,-1.058334 0.502708,-2.532063 0.936625,-4.130146 0.433916,-1.598084 0.910166,-3.018896 1.28852,-4.034896 0.187855,-0.508 0.34925,-0.918104 0.468313,-1.195917 a 2.5108958,2.5108958 0 0 1 0.206375,-0.428625 z" />
  <path
     inkscape:connector-curvature="0"
     id="path21442"
     style="fill:#455a64;stroke-width:0.26458332"
     d="m 95.603353,79.374556 a 10.175875,10.175875 0 0 1 -0.116417,1.190625 c -0.08467,0.735541 -0.182562,1.748895 -0.238125,2.873375 -0.05556,1.124479 -0.05556,2.14577 -0.04233,2.883958 a 10.122958,10.122958 0 0 1 0,1.195917 1.2461875,1.2461875 0 0 1 -0.05292,-0.3175 c -0.02381,-0.206375 -0.04762,-0.505355 -0.06879,-0.875771 a 28.045833,28.045833 0 0 1 0,-2.894542 28.508854,28.508854 0 0 1 0.28575,-2.881312 c 0.05821,-0.365125 0.111125,-0.661459 0.156104,-0.862542 a 1.2329583,1.2329583 0 0 1 0.07673,-0.312208 z" />
  <path
     inkscape:connector-curvature="0"
     id="path21444"
     style="fill:#455a64;stroke-width:0.26458332"
     d="m 106.67881,100.70526 a 0.65616666,0.65616666 0 0 1 0,-0.09 c 0,-0.0688 0,-0.15346 -0.0212,-0.26459 0,-0.24077 -0.037,-0.57679 -0.0635,-1.005415 -0.0503,-0.886354 -0.11906,-2.14577 -0.20637,-3.704166 -0.15875,-3.135313 -0.37835,-7.448021 -0.61648,-12.210521 -0.0767,-1.190625 -0.0503,-2.365375 -0.30162,-3.439583 a 9.6863957,9.6863957 0 0 0 -1.22238,-2.973917 9.1678124,9.1678124 0 0 0 -4.03225,-3.553354 9.7525415,9.7525415 0 0 0 -3.558645,-0.873125 c -0.433917,-0.01852 -0.772584,0 -1.002771,0 l -0.264583,0.01323 h -0.08996 a 7.0564374,7.0564374 0 0 1 1.357313,-0.07937 9.4879582,9.4879582 0 0 1 3.606276,0.828146 9.3609582,9.3609582 0 0 1 2.18281,1.354667 9.5011874,9.5011874 0 0 1 1.9341,2.227791 9.7710624,9.7710624 0 0 1 1.23825,3.013604 c 0.26459,1.113896 0.23019,2.293938 0.30692,3.479271 0.22225,4.7625 0.42333,9.075209 0.56885,12.213167 0.0635,1.553104 0.11377,2.815166 0.15082,3.704166 0,0.428625 0.0264,0.764649 0.0344,1.008069 0,0.10583 0,0.19314 0,0.26458 0,0.0714 0.005,0.0873 0,0.0873 z" />
  <path
     inkscape:connector-curvature="0"
     id="path21446"
     style="fill:#455a64;stroke-width:0.26458332"
     d="m 103.32654,74.670264 c -0.0344,-0.03175 0.66675,-0.939271 1.56633,-2.029354 0.89959,-1.090083 1.66159,-1.949979 1.69863,-1.920875 0.037,0.0291 -0.66411,0.939271 -1.56633,2.029354 -0.90223,1.090083 -1.66159,1.949979 -1.69863,1.920875 z" />
  <path
     inkscape:connector-curvature="0"
     id="path21448"
     style="fill:#455a64;stroke-width:0.26458332"
     d="m 115.04758,67.246056 a 32.60725,32.60725 0 0 1 2.28071,-3.257021 8.2020832,8.2020832 0 0 1 1.09008,-1.219729 14.816666,14.816666 0 0 1 -0.94985,1.341437 c -0.59531,0.817563 -1.39965,1.963209 -2.20927,3.283479 -0.80963,1.320271 -1.57163,2.529417 -1.71186,3.540125 a 3.3734375,3.3734375 0 0 0 0.15346,1.61925 0.89693749,0.89693749 0 0 1 -0.21431,-0.39952 2.8125208,2.8125208 0 0 1 -0.11377,-1.246188 5.1540833,5.1540833 0 0 1 0.58208,-1.74625" />
  <path
     inkscape:connector-curvature="0"
     id="path21450"
     style="fill:#455a64;stroke-width:0.26458332"
     d="m 119.13275,61.142118 c 0.037,0.0344 -0.24871,0.391584 -0.42598,0.912813 -0.17727,0.521229 -0.18256,0.976312 -0.23548,0.978958 -0.0529,0.0026 -0.12435,-0.478896 0.0741,-1.034521 0.19844,-0.555625 0.55827,-0.883708 0.58738,-0.85725 z" />
  <path
     inkscape:connector-curvature="0"
     id="path21452"
     style="fill:#455a64;stroke-width:0.26458332"
     d="m 102.55131,87.663951 c -0.0423,-0.02117 0.32544,-0.881062 0.82286,-1.920875 0.49741,-1.039812 0.93662,-1.865312 0.97895,-1.852083 0.0423,0.01323 -0.32543,0.878417 -0.82285,1.918229 -0.49742,1.039813 -0.93663,1.87325 -0.97896,1.854729 z" />
  <path
     inkscape:connector-curvature="0"
     id="path21454"
     style="fill:#455a64;stroke-width:0.26458332"
     d="m 98.40529,84.819681 c 0.04498,-0.01588 0.232834,0.383645 0.420688,0.894291 0.187854,0.510646 0.301625,0.936625 0.264583,0.9525 -0.03704,0.01587 -0.232833,-0.383646 -0.418041,-0.894291 -0.185209,-0.510646 -0.312209,-0.93398 -0.26723,-0.9525 z" />
  <path
     inkscape:connector-curvature="0"
     id="path21456"
     style="fill:#225c6c;stroke-width:0.26458332;fill-opacity:1"
     d="m 88.888228,51.389577 c 0.423333,-3.661833 2.772833,-4.482042 2.772833,-4.482042 l 0.343959,21.634979 -2.69875,11.173354 a 2.5029583,2.5029583 0 0 1 -3.175,1.807104 l -5.466292,-1.661583 c 0,0 7.802563,-24.804687 8.22325,-28.471812 z" />
  <path
     inkscape:connector-curvature="0"
     id="path21458"
     style="fill:#225c6c;stroke-width:0.26458332;fill-opacity:1"
     d="m 111.7006,49.500452 c 0,0 1.35202,3.077104 1.35202,4.696354 0,1.61925 1.61925,12.109979 0,14.332479 -1.61925,2.2225 -4.81012,2.137833 -5.70706,2.071687 -1.2356,-0.103187 -6.99823,-10.760604 -6.76275,-10.898187 l 3.24115,-0.703792 c 0,0 2.27012,0.14023 3.35227,1.058334 1.08214,0.918104 2.14048,-0.140229 2.14048,-0.140229 l 2.28864,-9.834563" />
  <path
     inkscape:connector-curvature="0"
     id="path21460"
     style="fill:#225c6c;stroke-width:0.26458332;fill-opacity:1"
     d="m 107.18417,46.907535 c 0,0 3.70416,1.27 4.51643,2.592917 0.81227,1.322917 -3.86027,18.631958 -3.86027,18.631958 l -14.996581,1.074208 c 0,0 -1.182688,-0.214312 -1.505479,-1.288521 -0.322792,-1.074208 0.322791,-21.021145 0.322791,-21.021145 l 4.17248,-1.476375 c 0,0 1.793874,1.852083 3.085041,2.230437 1.291168,0.378355 8.265588,-0.743479 8.265588,-0.743479 z" />
  <path
     inkscape:connector-curvature="0"
     id="path21462"
     style="fill:#263238;stroke-width:0.26458332"
     d="m 92.600332,51.656806 a 0.77787499,0.77787499 0 0 1 0.01588,0.177271 c 0,0.137583 0,0.306917 0.01587,0.510646 0,0.4445 0,1.087437 0,1.881187 a 61.732583,61.732583 0 0 1 -0.460375,6.183313 c -0.150812,1.201208 -0.330729,2.344208 -0.515937,3.376083 -0.185209,1.031875 -0.386292,1.955271 -0.365125,2.743729 a 3.8232291,3.8232291 0 0 0 0.428625,1.785937 5.1673124,5.1673124 0 0 0 0.386291,0.563563 c 0,0 -0.05292,-0.0344 -0.134937,-0.119063 a 2.4473958,2.4473958 0 0 1 -0.309563,-0.41275 3.7491458,3.7491458 0 0 1 -0.492125,-1.815041 c -0.03704,-0.79375 0.150813,-1.74625 0.33073,-2.772833 0.179916,-1.026584 0.351895,-2.17223 0.500062,-3.370792 0.301625,-2.397125 0.447146,-4.582583 0.513292,-6.167438 0.02646,-0.772583 0.04762,-1.407583 0.0635,-1.875895 0,-0.203729 0,-0.373063 0.01587,-0.510646 a 0.55297916,0.55297916 0 0 1 0.0079,-0.177271 z" />
  <path
     inkscape:connector-curvature="0"
     id="path21464"
     style="fill:#263238;stroke-width:0.26458332"
     d="m 107.18417,60.919868 a 6.6145832,6.6145832 0 0 0 -0.52917,-0.629708 2.6643541,2.6643541 0 0 0 -0.71173,-0.492125 3.4395833,3.4395833 0 0 0 -1.02923,-0.264583 4.1962916,4.1962916 0 0 0 -1.92881,0.111125 1.6536458,1.6536458 0 0 0 -0.50536,0.28575 c -0.0979,0.100541 -0.1561,0.153458 -0.16668,0.148166 -0.0106,-0.0053 0.0317,-0.07673 0.11906,-0.193145 a 1.4472708,1.4472708 0 0 1 0.508,-0.354542 3.8946666,3.8946666 0 0 1 1.9976,-0.166688 3.4025416,3.4025416 0 0 1 1.07421,0.29898 2.5347083,2.5347083 0 0 1 0.73025,0.550333 2.174875,2.174875 0 0 1 0.3519,0.502708 c 0.0714,0.121709 0.09,0.198438 0.09,0.203729 z" />
  <path
     inkscape:connector-curvature="0"
     id="path21466"
     style="fill:#263238;stroke-width:0.26458332"
     d="m 103.27892,64.224514 c 0.0264,0 0.14552,0.404813 0.42068,1.039813 a 19.513021,19.513021 0 0 0 1.26736,2.38125 18.997083,18.997083 0 0 0 1.56898,2.198687 5.1064583,5.1064583 0 0 0 0.5662,0.584729 1.6324791,1.6324791 0 0 0 0.24342,0.166688 c 0,0 -0.12171,0 -0.28575,-0.113771 a 3.90525,3.90525 0 0 1 -0.61383,-0.558271 16.113125,16.113125 0 0 1 -2.8575,-4.619625 8.0671457,8.0671457 0 0 1 -0.26459,-0.79375 1.0821458,1.0821458 0 0 1 -0.045,-0.28575 z" />
  <path
     inkscape:connector-curvature="0"
     id="path21468"
     style="fill:#263238;stroke-width:0.26458332"
     d="m 108.99392,51.228181 c -0.0371,-0.02381 0.30427,-0.563562 0.86783,-1.11125 0.56356,-0.547687 1.1086,-0.878417 1.13242,-0.841375 0.0238,0.03704 -0.46567,0.425979 -1.01336,0.963083 -0.54769,0.537105 -0.94456,1.021292 -0.98689,0.989542 z" />
  <path
     inkscape:connector-curvature="0"
     id="path21470"
     style="fill:#263238;stroke-width:0.26458332"
     d="m 91.145124,47.471098 c 0.02381,-0.03704 0.629708,0.336021 1.17475,1.010708 0.545042,0.674688 0.79375,1.338792 0.751417,1.354667 -0.04233,0.01588 -0.351896,-0.597959 -0.886355,-1.246188 -0.534458,-0.648229 -1.068916,-1.0795 -1.039812,-1.119187 z" />
  <path
     inkscape:connector-curvature="0"
     id="path21472"
     style="fill:#263238;stroke-width:0.26458332"
     d="m 105.04369,66.491993 a 4.2068749,4.2068749 0 0 1 -0.52917,-0.849312 12.189354,12.189354 0 0 1 -1.32292,-4.598458 3.9925624,3.9925624 0 0 1 0,-0.99748 9.3688957,9.3688957 0 0 1 0.127,0.98425 15.724187,15.724187 0 0 0 0.47361,2.33098 15.994062,15.994062 0 0 0 0.83079,2.227791 8.7973957,8.7973957 0 0 1 0.42069,0.902229 z" />
  <path
     inkscape:connector-curvature="0"
     id="path21474"
     style="fill:#263238;stroke-width:0.26458332"
     d="m 110.62375,62.002014 a 5.3869166,5.3869166 0 0 1 -0.55563,-0.529166 13.213292,13.213292 0 0 0 -1.40758,-1.209146 4.8418749,4.8418749 0 0 0 -0.85196,-0.529167 1.1086042,1.1086042 0 0 0 -0.76994,-0.08202 0.84931249,0.84931249 0 0 0 -0.43391,0.296334 c -0.0714,0.105833 -0.0873,0.179916 -0.10054,0.17727 -0.0132,-0.0026 -0.0159,-0.08202 0.045,-0.20902 a 0.79374999,0.79374999 0 0 1 0.44979,-0.378355 1.1853333,1.1853333 0 0 1 0.87048,0.05027 4.4370624,4.4370624 0 0 1 0.89164,0.545042 9.1545832,9.1545832 0 0 1 1.39436,1.264708 2.5770416,2.5770416 0 0 1 0.46831,0.60325 z" />
  <g
     id="g21478"
     style="opacity:0.3"
     transform="matrix(0.26458333,0,0,0.26458333,29.925833,5.5796191)">
    <path
       inkscape:connector-curvature="0"
       id="path21476"
       d="m 278.55,226.21 c -2.93,0.74 -5.9,-1 -8.92,-1.12 -2.74,-0.14 -5.36,1 -8,1.71 a 27.55,27.55 0 0 1 -17.43,-1.05 4.71,4.71 0 0 1 -1.76,-1.09 2.22,2.22 0 0 1 -0.33,-2.2 c 5.09,-0.05 10.17,0.17 15.27,0.12 a 5.83,5.83 0 0 0 3,-0.59 1.29,1.29 0 0 0 0.54,-0.56 c 0,0 3.05,-0.1 4.14,-0.11 2.45,0 5.28,0.19 7.73,0.18 1.07,0 4.51,0.15 4.43,0.15" />
  </g>
  <g
     id="g21482"
     style="opacity:0.3"
     transform="matrix(0.26458333,0,0,0.26458333,29.925833,5.5796191)">
    <path
       inkscape:connector-curvature="0"
       id="path21480"
       d="m 295.33,204.39 a 23.65,23.65 0 0 1 11.67,5.74 3.84,3.84 0 0 1 0.93,1.12 1.4,1.4 0 0 1 0,1.39 1.45,1.45 0 0 1 -1.61,0.46 4.29,4.29 0 0 1 -1.51,-0.95 L 295.09,204" />
  </g>
  <path
     inkscape:connector-curvature="0"
     id="path21484"
     style="fill:#263238;stroke-width:0.26458332"
     d="m 108.78489,52.238889 a 6.1303958,6.1303958 0 0 1 0.0238,1.098021 c -0.0132,0.674688 -0.0609,1.611313 -0.15875,2.645833 -0.0979,1.034521 -0.22754,1.957917 -0.34132,2.624667 a 5.8208333,5.8208333 0 0 1 -0.22754,1.071563 8.0618541,8.0618541 0 0 1 0.10848,-1.090084 c 0.082,-0.669396 0.19315,-1.5875 0.29104,-2.622021 0.0979,-1.03452 0.1614,-1.95527 0.20638,-2.627312 a 8.0909582,8.0909582 0 0 1 0.0979,-1.100667 z" />
  <polygon
     id="polygon21486"
     style="fill:#455a64"
     points="226.85,191.5 242.31,221.28 260.94,221.43 253.89,204.37 247.96,191.59 227.57,190.31 "
     transform="matrix(0.26458333,0,0,0.26458333,29.925833,5.5796191)" />
  <path
     inkscape:connector-curvature="0"
     id="path21488"
     style="fill:#455a64;stroke-width:0.26458332"
     d="m 96.910395,59.967368 -1.568979,-3.38402 -5.394855,-0.338667 3.899959,8.202083 4.373562,0.03175 a 1.0398125,1.0398125 0 0 0 0.706438,-0.264583 l 0.03969,-0.03704 z" />
  <path
     inkscape:connector-curvature="0"
     id="path21490"
     style="fill:#ebebeb;stroke-width:0.26458332"
     d="m 92.817291,57.837473 a 0.26458333,0.26458333 0 1 0 -0.01587,-0.383646 0.26458333,0.26458333 0 0 0 0.01587,0.383646 z" />
  <path
     inkscape:connector-curvature="0"
     id="path21492"
     style="fill:#c69481;stroke-width:0.26458332"
     d="m 103.23129,60.139348 -2.08492,0.121708 a 2.9553958,2.9553958 0 0 0 -2.235725,-1.246188 l -0.74348,-0.04762 -0.545041,0.529167 c 0,0 -3.659188,-0.06879 -3.820583,0.373063 v 0.14552 0.08467 l 3.108854,0.404813 c 0,0 -2.645834,-0.174625 -2.815167,-0.179917 -0.169333,-0.0053 -0.738187,-0.08996 -0.746125,0.22225 0,0.264583 0.28575,0.478896 0.740833,0.574146 0.185209,0.03969 2.473854,0.383646 2.473854,0.383646 l -2.532062,-0.182563 c -0.283104,-0.02117 -0.264583,0.436563 -0.111125,0.505354 0.153458,0.06879 3.315229,1.201209 3.315229,1.201209 a 1.9579166,1.9579166 0 0 1 -1.010708,0.264583 c -0.4445,-0.05821 -1.172104,-0.679979 -1.346729,-0.418042 -0.174625,0.261938 -0.153459,0.420688 -0.0635,0.489479 a 11.758083,11.758083 0 0 0 1.449916,0.79375 c 0.343959,0.116417 3.878789,-0.06085 3.878789,-0.06085 l 3.69094,0.127 z" />
  <path
     inkscape:connector-curvature="0"
     id="path21494"
     style="fill:#936457;stroke-width:0.26458332"
     d="m 96.375936,59.472598 a 10.877021,10.877021 0 0 1 1.283229,0.0344 10.31875,10.31875 0 0 1 1.280584,0.113771 10.231437,10.231437 0 0 1 -1.283229,-0.0344 9.7498957,9.7498957 0 0 1 -1.280584,-0.113771 z" />
  <path
     inkscape:connector-curvature="0"
     id="path21496"
     style="fill:#263238;stroke-width:0.26458332"
     d="m 96.600832,59.324431 c 0,0 -0.03704,-0.07144 -0.0979,-0.201083 -0.06085,-0.129646 -0.156104,-0.338667 -0.264583,-0.563563 -0.227542,-0.508 -0.529167,-1.180042 -0.878417,-1.952625 h 0.02117 l -1.235604,-0.07937 -2.981854,-0.198437 -0.902229,-0.06615 -0.246063,-0.02117 h -0.08467 0.08467 0.246063 l 0.904875,0.05027 2.981854,0.182562 1.235604,0.08202 h 0.01588 v 0.01323 l 0.862541,1.960563 0.246063,0.568854 c 0.07673,0.150813 0.0926,0.224896 0.0926,0.224896 z" />
  <path
     inkscape:connector-curvature="0"
     id="path21498"
     style="fill:#225c6c;stroke-width:0.26458332;fill-opacity:1"
     d="m 117.45264,77.392827 -3.59304,4.519083 c 0,0 3.63009,4.826 3.048,5.725583 l -9.26041,-6.310312 5.31018,-7.27075 z" />
  <g
     id="g21502"
     style="opacity:0.6"
     transform="matrix(0.26458333,0,0,0.26458333,29.925833,5.5796191)">
    <path
       inkscape:connector-curvature="0"
       id="path21500"
       style="fill:#ffffff"
       d="m 307.78,279.25 a 1.72,1.72 0 0 0 -2.13,0.87 1.67,1.67 0 0 0 0.85,2.13 1.83,1.83 0 0 0 2.26,-0.95 1.73,1.73 0 0 0 -1.13,-2.11" />
  </g>
  <g
     id="g21506"
     style="opacity:0.6"
     transform="matrix(0.26458333,0,0,0.26458333,29.925833,5.5796191)">
    <path
       inkscape:connector-curvature="0"
       id="path21504"
       style="fill:#ffffff"
       d="m 293.76,286.29 2,-2.77 33,24.21 a 2.92,2.92 0 0 1 0,2.79 z" />
  </g>
  <path
     inkscape:connector-curvature="0"
     id="path21508"
     style="fill:#263238;stroke-width:0.26458332"
     d="m 114.03952,81.972764 c -0.0344,0.04233 -0.26458,-0.100542 -0.59002,-0.119063 -0.32544,-0.01852 -0.57415,0.08202 -0.60061,0.0344 -0.0264,-0.04762 0.2249,-0.264583 0.61384,-0.22225 0.38894,0.04233 0.61648,0.272521 0.57679,0.306917 z" />
  <path
     inkscape:connector-curvature="0"
     id="path21510"
     style="fill:#263238;stroke-width:0.26458332"
     d="m 114.69569,83.060201 c -0.0212,0.05027 -0.26459,-0.01588 -0.55298,0.06085 -0.2884,0.07673 -0.47625,0.24077 -0.52917,0.206375 -0.0529,-0.0344 0.11377,-0.304271 0.47096,-0.391584 0.35719,-0.08731 0.64029,0.08202 0.61119,0.124354 z" />
  <path
     inkscape:connector-curvature="0"
     id="path21512"
     style="fill:#263238;stroke-width:0.26458332"
     d="m 114.39671,84.589493 c -0.045,-0.02117 0.0556,-0.28575 0.3466,-0.4445 0.29104,-0.15875 0.56621,-0.100542 0.55827,-0.05027 -0.008,0.05027 -0.23019,0.08467 -0.46831,0.219604 -0.23813,0.134938 -0.38894,0.301625 -0.43656,0.275166 z" />
  <path
     inkscape:connector-curvature="0"
     id="path21514"
     style="fill:#263238;stroke-width:0.26458332"
     d="m 114.74331,80.850931 c -0.0476,0.02646 -0.20373,-0.182563 -0.46567,-0.34925 -0.26193,-0.166688 -0.51329,-0.230188 -0.508,-0.28575 0.005,-0.05556 0.30692,-0.07408 0.61119,0.127 0.30427,0.201083 0.41011,0.489479 0.36248,0.508 z" />
  <path
     inkscape:connector-curvature="0"
     id="path21516"
     style="fill:#263238;stroke-width:0.26458332"
     d="m 115.45239,79.927535 c -0.0132,0.01852 -0.20902,-0.08202 -0.44979,-0.336021 a 2.4235833,2.4235833 0 0 1 -0.36512,-0.494771 2.5188333,2.5188333 0 0 1 -0.15875,-0.328083 0.74083332,0.74083332 0 0 1 -0.0582,-0.206375 0.24077083,0.24077083 0 0 1 0.15346,-0.248708 0.29897916,0.29897916 0 0 1 0.26458,0.04233 0.61912499,0.61912499 0 0 1 0.15081,0.148167 1.9341041,1.9341041 0 0 1 0.20902,0.301625 1.9579166,1.9579166 0 0 1 0.21696,0.582083 0.93133332,0.93133332 0 0 1 0,0.560916 c -0.0318,0 -0.0318,-0.211666 -0.127,-0.529166 a 2.174875,2.174875 0 0 0 -0.23548,-0.529167 2.032,2.032 0 0 0 -0.19843,-0.264583 c -0.0767,-0.09525 -0.15875,-0.156104 -0.21432,-0.129646 -0.0556,0.02646 -0.0264,0.01323 -0.0264,0.05821 a 0.52916666,0.52916666 0 0 0 0.0423,0.150813 2.5849791,2.5849791 0 0 0 0.13758,0.312208 3.4237083,3.4237083 0 0 0 0.31221,0.489479 c 0.20373,0.259292 0.36513,0.396875 0.3466,0.420688 z" />
  <path
     inkscape:connector-curvature="0"
     id="path21518"
     style="fill:#263238;stroke-width:0.26458332"
     d="m 115.34656,79.948701 a 0.92604165,0.92604165 0 0 1 0.20373,-0.529166 1.8123958,1.8123958 0 0 1 0.42598,-0.449792 1.8520833,1.8520833 0 0 1 0.3175,-0.187854 0.46302083,0.46302083 0 0 1 0.45508,-0.01588 0.26458333,0.26458333 0 0 1 0.0979,0.264583 0.81756249,0.81756249 0 0 1 -0.0767,0.198438 1.2117917,1.2117917 0 0 1 -0.2249,0.304271 1.285875,1.285875 0 0 1 -0.52916,0.325437 0.71966666,0.71966666 0 0 1 -0.56357,0 5.0270833,5.0270833 0 0 0 0.52917,-0.129646 1.2620625,1.2620625 0 0 0 0.45508,-0.320145 1.127125,1.127125 0 0 0 0.18521,-0.264584 c 0.0556,-0.108479 0.0767,-0.211666 0.0344,-0.227541 a 0.31485416,0.31485416 0 0 0 -0.26458,0.03175 1.61925,1.61925 0 0 0 -0.29105,0.161395 2.0134791,2.0134791 0 0 0 -0.44979,0.39423 c -0.20108,0.253999 -0.26458,0.455083 -0.30427,0.444499 z" />
  <polygon
     id="polygon21520"
     style="fill:#c69481"
     points="317.13,254.66 334.46,265.59 330.18,270.95 314.22,259.11 "
     transform="matrix(0.26458333,0,0,0.26458333,29.925833,5.5796191)" />
  <path
     inkscape:connector-curvature="0"
     id="path21523"
     style="fill:#fafafa;stroke-width:0.26458332"
     d="m 88.094478,41.316889 -3.466042,-1.367895 a 8.6942082,8.6942082 0 1 1 2.00025,-2.38125 v 0 z" />
  <path
     inkscape:connector-curvature="0"
     id="path21525"
     style="fill:#263238;stroke-width:0.26458332"
     d="M 88.094478,41.316889 C 88.00452,41.073473 87.565311,39.91989 86.668374,37.549223 l -0.02117,-0.05292 -0.03969,0.03969 v 0 l 0.05821,0.04233 a 8.6121874,8.6121874 0 0 0 1.161521,-4.370917 7.6729166,7.6729166 0 0 0 -0.121708,-1.370541 c -0.04498,-0.232834 -0.08467,-0.470959 -0.137584,-0.709084 -0.05292,-0.238125 -0.140229,-0.470958 -0.214312,-0.711729 a 8.7682916,8.7682916 0 0 0 -4.206875,-4.892145 8.6386457,8.6386457 0 0 0 -3.529542,-0.98425 8.8741249,8.8741249 0 0 0 -3.815291,0.640291 8.5592707,8.5592707 0 0 0 -3.278188,2.360083 8.7312499,8.7312499 0 0 0 -1.902354,3.648605 8.8635416,8.8635416 0 0 0 -0.04763,3.942291 8.5724999,8.5724999 0 0 0 1.547812,3.394604 8.8159166,8.8159166 0 0 0 5.60123,3.373438 9.4165207,9.4165207 0 0 0 2.852208,-0.02381 8.6227707,8.6227707 0 0 0 4.077229,-1.899708 H 84.6152 l 3.479271,1.322917 -3.439583,-1.402292 h -0.01852 l -0.01588,0.01323 a 8.6333541,8.6333541 0 0 1 -4.056062,1.852083 9.3609582,9.3609582 0 0 1 -2.815167,0 8.7312499,8.7312499 0 0 1 -5.511271,-3.341687 8.4190416,8.4190416 0 0 1 -1.516062,-3.341687 8.7312499,8.7312499 0 0 1 0.05027,-3.876146 8.5883749,8.5883749 0 0 1 1.870605,-3.590396 8.4243332,8.4243332 0 0 1 3.222625,-2.304521 8.7312499,8.7312499 0 0 1 3.751791,-0.635 8.5539791,8.5539791 0 0 1 3.473979,0.965729 8.6651041,8.6651041 0 0 1 4.148667,4.812771 l 0.211667,0.701146 c 0.05556,0.232833 0.0926,0.468312 0.140229,0.6985 a 7.7337707,7.7337707 0 0 1 0.127,1.354667 8.6042499,8.6042499 0 0 1 -1.121834,4.331229 l -0.140229,0.248708 0.198438,-0.203729 v 0 h -0.06085 z" />
  <path
     inkscape:connector-curvature="0"
     id="path21527"
     style="fill:#225c6c;stroke-width:0.26458332;fill-opacity:1"
     d="m 77.855103,32.225806 h 0.489479 l 1.058334,-1.510771 v -0.978958 c 0,0 0.756708,-0.05292 0.677333,1.230313 -0.07937,1.283229 0.01588,0.957791 0.01588,0.957791 0,0 1.611313,0 1.74625,0.132292 0.134938,0.132292 0.153458,1.701271 0.177271,2.569104 a 0.93662499,0.93662499 0 0 1 -0.658813,0.9525 0.65616666,0.65616666 0 0 1 -0.171979,0.02381 c -0.402166,0 -2.457979,-0.306917 -2.457979,-0.306917 h -0.849312 z" />
  <polygon
     id="polygon21529"
     style="fill:#225c6c;fill-opacity:1"
     points="180.15,99.96 175.83,99.74 177.07,112.42 180.25,112.39 "
     transform="matrix(0.26458333,0,0,0.26458333,29.925833,5.5796191)" />
  <path
     inkscape:connector-curvature="0"
     id="path21532"
     style="fill:#263238;stroke-width:0.26458332"
     d="m 154.08421,129.63481 c 0,0.037 -25.67782,0.0688 -57.345795,0.0688 -31.667978,0 -57.353728,-0.0344 -57.353728,-0.0688 0,-0.0344 25.664583,-0.0688 57.353728,-0.0688 31.689145,0 57.345795,0.0317 57.345795,0.0688 z" />
  <path
     inkscape:connector-curvature="0"
     id="path21535"
     style="fill:#966161;stroke-width:0.26458332"
     d="m 60.694228,109.42593 a 5.7070624,5.7070624 0 0 1 3.529542,-0.42862 c 0.642938,0.10583 1.322917,0.29897 1.74625,0.78052 0.423333,0.48154 0.529167,1.32291 0.01852,1.74095 a 1.6695208,1.6695208 0 0 1 -1.100667,0.27782 c -0.933979,0 -1.9685,-0.17463 -2.714625,0.38629 -0.425979,0.32014 -0.709083,0.8546 -1.219729,1.01071 a 1.1985625,1.1985625 0 0 1 -1.322917,-0.58738 2.06375,2.06375 0 0 1 -0.148166,-1.51871 2.3151041,2.3151041 0 0 1 1.211791,-1.66158 z" />
  <path
     inkscape:connector-curvature="0"
     id="path21537"
     style="fill:#966161;stroke-width:0.26458332"
     d="m 58.236249,104.67666 c 0.656167,0.93662 1.931459,0.62706 2.524125,0.0556 0.592667,-0.5715 0.841375,-1.40229 1.058334,-2.19604 0.529166,-1.8071 1.058333,-3.704166 0.658812,-5.55625 a 3.07975,3.07975 0 0 0 -0.709083,-1.508125 1.6113125,1.6113125 0 0 0 -1.524,-0.508 c -0.645584,0.17198 -1.058334,0.79375 -1.322917,1.399646 a 13.258271,13.258271 0 0 0 -1.307042,5.675309 c 0,0.91282 0.105834,1.87325 0.621771,2.62732" />
  <path
     inkscape:connector-curvature="0"
     id="path21539"
     style="fill:#966161;stroke-width:0.26458332"
     d="m 56.429145,106.02339 c 0.711729,-0.84667 0.849313,-2.08227 0.529167,-3.14325 a 6.0642499,6.0642499 0 0 0 -1.852083,-2.69875 10.030354,10.030354 0 0 0 -3.331105,-1.965855 3.5639375,3.5639375 0 0 0 -1.497541,-0.264584 1.5875,1.5875 0 0 0 -1.264709,0.762 c -0.351895,0.66675 -0.01587,1.479019 0.34925,2.140479 a 25.471437,25.471437 0 0 0 2.188105,3.33375 c 0.656166,0.84402 1.407583,1.67746 2.405062,2.0611 0.997479,0.38365 2.039938,0.33603 2.569104,-0.35718" />
  <path
     inkscape:connector-curvature="0"
     id="path21541"
     style="fill:#263238;stroke-width:0.26458332"
     d="m 58.188624,118.82128 a 2.1616458,2.1616458 0 0 0 0.05821,-0.42597 c 0.03175,-0.30957 0.06879,-0.6985 0.11377,-1.16153 0.04498,-0.46302 0.127,-1.0742 0.264584,-1.70656 a 13.051896,13.051896 0 0 1 0.616479,-1.9976 7.4586041,7.4586041 0 0 1 1.029229,-1.82034 3.8496875,3.8496875 0 0 1 1.299104,-1.09008 3.7041666,3.7041666 0 0 1 1.095375,-0.34131 1.889125,1.889125 0 0 0 0.425979,-0.0609 1.9632083,1.9632083 0 0 0 -0.433916,0 3.302,3.302 0 0 0 -1.140354,0.29634 3.81,3.81 0 0 0 -1.370542,1.09008 7.1887291,7.1887291 0 0 0 -1.058333,1.85208 12.244917,12.244917 0 0 0 -0.61648,2.04523 14.578541,14.578541 0 0 0 -0.235479,1.73302 c -0.03704,0.49478 -0.05027,0.8943 -0.05821,1.17211 a 1.8706041,1.8706041 0 0 0 0.01058,0.41539 z" />
  <path
     inkscape:connector-curvature="0"
     id="path21543"
     style="fill:#263238;stroke-width:0.26458332"
     d="m 58.267999,117.93228 a 0.82814582,0.82814582 0 0 0 0,-0.19843 v -0.56621 c 0,-0.48948 0,-1.20121 0.02381,-2.07698 0.04498,-1.75419 0.195791,-3.64331 0.486833,-6.30502 0.264583,-2.50296 0.648229,-5.41602 1.039813,-7.31044 0.08202,-0.42862 0.166687,-0.81756 0.246062,-1.15623 0.07937,-0.338665 0.142875,-0.634998 0.203729,-0.870477 0.06085,-0.235479 0.0979,-0.404813 0.132292,-0.550333 a 0.82020832,0.82020832 0 0 0 0.0344,-0.195792 0.99218749,0.99218749 0 0 0 -0.06879,0.185208 c -0.04233,0.142875 -0.0979,0.322792 -0.164042,0.529167 -0.06614,0.206375 -0.148166,0.529167 -0.232833,0.865187 -0.08467,0.33602 -0.182562,0.72496 -0.264583,1.15623 a 63.433853,63.433853 0 0 0 -1.090084,6.79979 c -0.291041,2.667 -0.423333,5.09588 -0.436562,6.85536 0,0.87841 0,1.5875 0.03175,2.08227 0,0.23018 0.02646,0.41804 0.0344,0.5662 a 0.94720832,0.94720832 0 0 0 0.02381,0.1905 z" />
  <path
     inkscape:connector-curvature="0"
     id="path21545"
     style="fill:#263238;stroke-width:0.26458332"
     d="m 58.281228,113.24916 a 4.4211874,4.4211874 0 0 0 0,-0.59267 c -0.02117,-0.37835 -0.07408,-0.92868 -0.179916,-1.60073 a 21.291021,21.291021 0 0 0 -0.529167,-2.33098 19.179646,19.179646 0 0 0 -0.976312,-2.7596 14.705541,14.705541 0 0 0 -2.8575,-4.46087 7.7813957,7.7813957 0 0 0 -0.674688,-0.62707 c -0.103187,-0.0873 -0.195791,-0.17462 -0.288396,-0.24341 l -0.264583,-0.17992 a 3.65125,3.65125 0 0 0 -0.497417,-0.3175 16.716375,16.716375 0 0 1 1.63248,1.45521 15.483416,15.483416 0 0 1 2.791354,4.44235 21.936604,21.936604 0 0 1 0.981604,2.73315 22.881166,22.881166 0 0 1 0.552979,2.30716 c 0.121708,0.66675 0.193146,1.20915 0.235479,1.5875 a 3.4395833,3.4395833 0 0 0 0.07408,0.58738 z" />
  <polygon
     id="polygon21547"
     style="fill:#263238"
     points="124.83,438.17 90.05,438.17 91.83,462.47 123.05,462.47 "
     transform="matrix(0.26458333,0,0,0.26458333,29.925833,5.5796191)" />
  <rect
     id="rect21549"
     style="fill:#263238;stroke-width:0.26458332"
     height="2.5347083"
     width="10.982854"
     y="118.97739"
     x="52.955166" />
  <polygon
     id="polygon21551"
     style="fill:#455a64"
     points="127.86,464.2 127.86,461.54 87.04,461.54 87.04,464.2 88.99,464.2 "
     transform="matrix(0.26458333,0,0,0.26458333,29.925833,5.5796191)" />
  <polygon
     id="polygon21553"
     style="fill:#455a64"
     points="124.15,468.87 90.9,468.87 88.99,464.2 126.38,464.2 "
     transform="matrix(0.26458333,0,0,0.26458333,29.925833,5.5796191)" />
  <path
     inkscape:connector-curvature="0"
     id="path21555"
     style="fill:#e0e0e0;stroke-width:0.26458332"
     d="m 62.797666,123.61289 c 0,0 0,0.0212 -0.03704,0.0582 -0.03704,0.037 -0.07408,0.0979 -0.124354,0.16404 l -0.481542,0.61648 -0.02117,0.0265 -0.02117,-0.0265 -1.180042,-1.63777 h 0.06615 l -1.164166,1.64835 -0.0344,0.0529 -0.04233,-0.0476 c -0.428625,-0.51329 -0.896937,-1.05833 -1.381125,-1.64306 h 0.07937 l -0.07408,0.0952 -1.235604,1.54781 -0.03969,0.0529 -0.03969,-0.0529 c -0.418042,-0.59531 -0.809625,-1.14829 -1.164167,-1.64835 h 0.06879 l -1.439333,1.63512 -0.02646,0.0291 -0.01852,-0.0344 -0.449792,-0.75406 -0.116417,-0.20108 a 0.29897916,0.29897916 0 0 1 -0.0344,-0.0714 0.3889375,0.3889375 0 0 1 0.04762,0.0635 c 0.0344,0.0503 0.07673,0.11377 0.127,0.19314 l 0.473605,0.74084 h -0.04498 l 1.41023,-1.65365 0.03439,-0.0423 0.0344,0.045 1.17475,1.64041 h -0.07937 l 1.230313,-1.55045 0.07673,-0.0952 0.03969,-0.0476 0.03969,0.0476 c 0.484187,0.57679 0.949854,1.13241 1.375833,1.6457 h -0.07673 c 0.425979,-0.59266 0.820208,-1.14564 1.177396,-1.64041 l 0.0344,-0.0476 0.03175,0.0476 1.158875,1.65364 h -0.04233 l 0.500063,-0.59795 0.134937,-0.15611 a 0.26458333,0.26458333 0 0 1 0.05292,-0.0556 z" />
  <path
     inkscape:connector-curvature="0"
     id="path21557"
     style="fill:#455a64;stroke-width:0.26458332"
     d="m 63.067541,121.46712 c 0,0.0265 -2.069042,0.0503 -4.622271,0.0503 -2.553229,0 -4.624916,-0.0238 -4.624916,-0.0503 0,-0.0265 2.069041,-0.0529 4.624916,-0.0529 2.555875,0 4.622271,0.0265 4.622271,0.0529 z" />
  <path
     inkscape:connector-curvature="0"
     id="path21559"
     style="fill:#263238;stroke-width:0.26458332"
     d="m 63.485583,128.46799 c 0,0.0291 -2.251605,0.0503 -5.027084,0.0503 -2.775479,0 -5.027083,-0.0212 -5.027083,-0.0503 0,-0.0291 2.248958,-0.0529 5.027083,-0.0529 2.778125,0 5.027084,0.0238 5.027084,0.0529 z" />
  <path
     style="opacity:1;fill:#225c6c;fill-opacity:1;stroke:none;stroke-width:6.93206453;stroke-miterlimit:4;stroke-dasharray:none;stroke-dashoffset:39.22031021;stroke-opacity:1"
     d="m 238.26876,411.46491 c -4.20737,0.19578 -9.11222,1.03714 -11.8234,4.58269 -1.63683,2.55726 -2.70826,6.02682 -1.39458,8.90514 1.56323,-1.54397 2.69114,-3.90834 4.66097,-5.2659 1.44985,-1.19006 3.40473,-2.16587 5.0551,-2.50489 -3.98765,1.2686 -7.31538,4.48643 -9.0356,8.24183 -0.13926,1.91255 2.44613,2.66295 3.98942,2.61339 3.47768,-0.81402 5.05794,-5.19567 8.91956,-5.2048 3.63697,-0.59763 7.75548,0.53266 11.07152,-1.4447 2.38671,-2.63253 0.46992,-7.10509 -2.67312,-8.20888 -2.73142,-1.23627 -5.78782,-1.70834 -8.76987,-1.71388 z"
     id="path5713"
     inkscape:connector-curvature="0"
     transform="scale(0.26458334)" />
  <path
     style="opacity:1;fill:#225c6c;fill-opacity:1;stroke:none;stroke-width:1.73301613;stroke-miterlimit:4;stroke-dasharray:none;stroke-dashoffset:39.22031021;stroke-opacity:1"
     d="m 190.07277,369.97672 c -2.80277,0.0351 -5.56409,2.37593 -5.63498,5.2599 -0.005,3.04787 1.71249,5.70529 3.15561,8.26678 2.77942,4.64226 5.83185,9.14695 9.3861,13.23484 2.12832,2.37051 4.72487,4.44871 7.81517,5.38293 1.578,0.53838 3.26327,0.72831 4.91704,0.48775 1.29956,-0.13966 2.59758,-0.69241 3.526,-1.62196 0.5073,-0.5442 -0.16963,-1.20727 -0.3138,-1.75662 -2.19545,-4.94923 -5.07988,-9.59692 -8.54413,-13.75803 3.79039,4.38774 6.84491,9.37248 9.11268,14.69685 0.48076,0.51716 0.75244,-0.41821 0.9807,-0.73471 1.65459,-2.73511 1.91142,-6.10365 1.40173,-9.19986 -0.56646,-2.7273 -1.90603,-5.24197 -3.47953,-7.51694 -2.39654,-3.29317 -5.64191,-5.8698 -9.03265,-8.07542 -2.96299,-1.84906 -6.1783,-3.31362 -9.52904,-4.3002 -1.22559,-0.32161 -2.50081,-0.36107 -3.7609,-0.36531 z"
     id="path5717"
     inkscape:connector-curvature="0"
     transform="scale(0.26458334)" />
  <path
     style="opacity:1;fill:#225c6c;fill-opacity:1;stroke:none;stroke-width:4.90171003;stroke-miterlimit:4;stroke-dasharray:none;stroke-dashoffset:39.22031021;stroke-opacity:1"
     d="m 228.66935,358.64658 c -3.51005,0.22206 -5.33693,3.79953 -6.64489,6.61516 -3.56362,8.28799 -5.46822,17.63934 -3.72039,26.60021 0.56445,2.28008 1.79666,4.85452 4.12083,5.72152 1.37932,-0.23826 0.9573,-2.21891 1.32789,-3.18901 0.86101,-5.05194 1.87365,-10.09535 3.05842,-15.08017 -1.32799,6.12794 -2.48215,12.33102 -3.21278,18.54593 0.80908,0.7726 2.16152,-0.0869 3.0948,-0.23888 3.77141,-0.96912 5.53524,-4.82778 6.56411,-8.22863 2.10613,-7.27835 4.60146,-14.938 3.10292,-22.58371 -0.71658,-3.85929 -3.21391,-8.26907 -7.69091,-8.16242 z"
     id="path5721"
     inkscape:connector-curvature="0"
     transform="scale(0.26458334)" />
</svg>
