<?xml version="1.0" encoding="UTF-8" standalone="no"?>
<svg
   xmlns:dc="http://purl.org/dc/elements/1.1/"
   xmlns:cc="http://creativecommons.org/ns#"
   xmlns:rdf="http://www.w3.org/1999/02/22-rdf-syntax-ns#"
   xmlns:svg="http://www.w3.org/2000/svg"
   xmlns="http://www.w3.org/2000/svg"
   xmlns:xlink="http://www.w3.org/1999/xlink"
   xmlns:sodipodi="http://sodipodi.sourceforge.net/DTD/sodipodi-0.dtd"
   xmlns:inkscape="http://www.inkscape.org/namespaces/inkscape"
   width="7.8080001in"
   height="9.7779999in"
   viewBox="0 0 198.3232 248.3612"
   version="1.1"
   id="svg8"
   style="enable-background:new"
   sodipodi:docname="nfccard-customization2.svg"
   inkscape:version="0.92.5 (2060ec1f9f, 2020-04-08)">
  <sodipodi:namedview
     pagecolor="#ffffff"
     bordercolor="#666666"
     borderopacity="1"
     objecttolerance="10"
     gridtolerance="10"
     guidetolerance="10"
     inkscape:pageopacity="0"
     inkscape:pageshadow="2"
     inkscape:window-width="885"
     inkscape:window-height="480"
     id="namedview26136"
     showgrid="false"
     inkscape:zoom="0.25141474"
     inkscape:cx="308.72441"
     inkscape:cy="469.34399"
     inkscape:window-x="0"
     inkscape:window-y="27"
     inkscape:window-maximized="0"
     inkscape:current-layer="svg8" />
  <defs
     id="defs2">
    <linearGradient
       id="linearGradient11062">
      <stop
         style="stop-color:#0c0d12;stop-opacity:1"
         offset="0"
         id="stop11058" />
      <stop
         style="stop-color:#272b2f;stop-opacity:1"
         offset="1"
         id="stop11060" />
    </linearGradient>
    <clipPath
       id="clipPath5315"
       clipPathUnits="userSpaceOnUse">
      <rect
         y="361.77451"
         x="1274.9778"
         height="292.10001"
         width="203.19998"
         id="rect5317"
         style="opacity:1;fill:#cababa;fill-opacity:0.66037741;stroke:none;stroke-width:0.23566131;stroke-miterlimit:4;stroke-dasharray:none;stroke-dashoffset:39.22031021;stroke-opacity:1" />
    </clipPath>
    <clipPath
       id="clipPath5734"
       clipPathUnits="userSpaceOnUse">
      <rect
         y="361.77451"
         x="1071.7778"
         height="292.09998"
         width="203.19998"
         id="rect5736"
         style="opacity:1;fill:#cababa;fill-opacity:0.66037741;stroke:none;stroke-width:0.23566131;stroke-miterlimit:4;stroke-dasharray:none;stroke-dashoffset:39.22031021;stroke-opacity:1" />
    </clipPath>
    <clipPath
       id="clipPath10302"
       clipPathUnits="userSpaceOnUse">
      <rect
         y="328.10712"
         x="1068.3546"
         height="292.10001"
         width="225.71364"
         id="rect10304"
         style="opacity:1;fill:#00495a;fill-opacity:0.94117647;stroke:none;stroke-width:0.73812002;stroke-miterlimit:4;stroke-dasharray:none;stroke-dashoffset:39.22031021;stroke-opacity:1" />
    </clipPath>
    <clipPath
       id="clipPath10923"
       clipPathUnits="userSpaceOnUse">
      <rect
         y="340.80713"
         x="1286"
         height="279.39999"
         width="215.89999"
         id="rect10925"
         style="opacity:1;fill:#00495a;fill-opacity:0.94117647;stroke:none;stroke-width:0.70602781;stroke-miterlimit:4;stroke-dasharray:none;stroke-dashoffset:39.22031021;stroke-opacity:1" />
    </clipPath>
    <clipPath
       id="clipPath10927"
       clipPathUnits="userSpaceOnUse">
      <rect
         y="328.10712"
         x="1294.0682"
         height="292.10001"
         width="225.71364"
         id="rect10929"
         style="opacity:1;fill:#00495a;fill-opacity:0.94117647;stroke:none;stroke-width:0.73812002;stroke-miterlimit:4;stroke-dasharray:none;stroke-dashoffset:39.22031021;stroke-opacity:1" />
    </clipPath>
    <clipPath
       id="clipPath10302-3"
       clipPathUnits="userSpaceOnUse">
      <rect
         y="328.10712"
         x="1068.3546"
         height="292.10001"
         width="225.71364"
         id="rect10304-1"
         style="opacity:1;fill:#00495a;fill-opacity:0.94117647;stroke:none;stroke-width:0.73812002;stroke-miterlimit:4;stroke-dasharray:none;stroke-dashoffset:39.22031021;stroke-opacity:1" />
    </clipPath>
    <clipPath
       id="clipPath10302-31"
       clipPathUnits="userSpaceOnUse">
      <rect
         y="328.10712"
         x="1068.3546"
         height="292.10001"
         width="225.71364"
         id="rect10304-8"
         style="opacity:1;fill:#00495a;fill-opacity:0.94117647;stroke:none;stroke-width:0.73812002;stroke-miterlimit:4;stroke-dasharray:none;stroke-dashoffset:39.22031021;stroke-opacity:1" />
    </clipPath>
    <linearGradient
       xlink:href="#linearGradient11062"
       id="linearGradient11064"
       x1="-368.22598"
       y1="394.05887"
       x2="-331.7717"
       y2="453.12543"
       gradientUnits="userSpaceOnUse"
       gradientTransform="translate(-62.560459,-47.1052)" />
    <filter
       style="color-interpolation-filters:sRGB"
       id="filter11528">
      <feFlood
         flood-opacity="1"
         flood-color="rgb(0,0,0)"
         result="flood"
         id="feFlood11518" />
      <feComposite
         in="flood"
         in2="SourceGraphic"
         operator="in"
         result="composite1"
         id="feComposite11520" />
      <feGaussianBlur
         in="composite1"
         stdDeviation="0.8"
         result="blur"
         id="feGaussianBlur11522" />
      <feOffset
         dx="-0.4"
         dy="0.6"
         result="offset"
         id="feOffset11524" />
      <feComposite
         in="SourceGraphic"
         in2="offset"
         operator="over"
         result="composite2"
         id="feComposite11526" />
    </filter>
    <clipPath
       clipPathUnits="userSpaceOnUse"
       id="clipPath11736">
      <rect
         style="opacity:1;fill:#f5f5f5;fill-opacity:0.96078431;stroke:none;stroke-width:4.71460152;stroke-miterlimit:4;stroke-dasharray:none;stroke-dashoffset:39.22031021;stroke-opacity:1"
         id="rect11738"
         width="182.94048"
         height="133.88718"
         x="-687.23627"
         y="291.1712"
         rx="2.5000002"
         ry="1.5119048" />
    </clipPath>
    <clipPath
       clipPathUnits="userSpaceOnUse"
       id="clipPath11740">
      <rect
         style="opacity:1;fill:#f5f5f5;fill-opacity:0.96078431;stroke:none;stroke-width:4.71460152;stroke-miterlimit:4;stroke-dasharray:none;stroke-dashoffset:39.22031021;stroke-opacity:1"
         id="rect11742"
         width="182.94048"
         height="133.88718"
         x="-687.23627"
         y="291.1712"
         rx="2.5000002"
         ry="1.5119048" />
    </clipPath>
    <clipPath
       clipPathUnits="userSpaceOnUse"
       id="clipPath11744">
      <rect
         style="opacity:1;fill:#f5f5f5;fill-opacity:0.96078431;stroke:none;stroke-width:4.71460152;stroke-miterlimit:4;stroke-dasharray:none;stroke-dashoffset:39.22031021;stroke-opacity:1"
         id="rect11746"
         width="182.94048"
         height="133.88718"
         x="-687.23627"
         y="291.1712"
         rx="2.5000002"
         ry="1.5119048" />
    </clipPath>
    <clipPath
       clipPathUnits="userSpaceOnUse"
       id="clipPath11748">
      <rect
         style="opacity:1;fill:#f5f5f5;fill-opacity:0.96078431;stroke:none;stroke-width:2.40855622;stroke-miterlimit:4;stroke-dasharray:none;stroke-dashoffset:39.22031021;stroke-opacity:1"
         id="rect11750"
         width="93.459106"
         height="68.399162"
         x="-343.5304"
         y="307.74191"
         rx="2.5000002"
         ry="1.5119048" />
    </clipPath>
    <clipPath
       clipPathUnits="userSpaceOnUse"
       id="clipPath11748-1">
      <rect
         style="opacity:1;fill:#f5f5f5;fill-opacity:0.96078431;stroke:none;stroke-width:2.40855622;stroke-miterlimit:4;stroke-dasharray:none;stroke-dashoffset:39.22031021;stroke-opacity:1"
         id="rect11750-7"
         width="93.459106"
         height="68.399162"
         x="-343.5304"
         y="307.74191"
         rx="2.5000002"
         ry="1.5119048" />
    </clipPath>
    <clipPath
       clipPathUnits="userSpaceOnUse"
       id="clipPath11744-8">
      <rect
         style="opacity:1;fill:#f5f5f5;fill-opacity:0.96078431;stroke:none;stroke-width:4.71460152;stroke-miterlimit:4;stroke-dasharray:none;stroke-dashoffset:39.22031021;stroke-opacity:1"
         id="rect11746-5"
         width="182.94048"
         height="133.88718"
         x="-687.23627"
         y="291.1712"
         rx="2.5000002"
         ry="1.5119048" />
    </clipPath>
    <clipPath
       clipPathUnits="userSpaceOnUse"
       id="clipPath11740-1">
      <rect
         style="opacity:1;fill:#f5f5f5;fill-opacity:0.96078431;stroke:none;stroke-width:4.71460152;stroke-miterlimit:4;stroke-dasharray:none;stroke-dashoffset:39.22031021;stroke-opacity:1"
         id="rect11742-8"
         width="182.94048"
         height="133.88718"
         x="-687.23627"
         y="291.1712"
         rx="2.5000002"
         ry="1.5119048" />
    </clipPath>
    <clipPath
       clipPathUnits="userSpaceOnUse"
       id="clipPath11736-5">
      <rect
         style="opacity:1;fill:#f5f5f5;fill-opacity:0.96078431;stroke:none;stroke-width:4.71460152;stroke-miterlimit:4;stroke-dasharray:none;stroke-dashoffset:39.22031021;stroke-opacity:1"
         id="rect11738-9"
         width="182.94048"
         height="133.88718"
         x="-687.23627"
         y="291.1712"
         rx="2.5000002"
         ry="1.5119048" />
    </clipPath>
    <filter
       style="color-interpolation-filters:sRGB"
       id="filter2222">
      <feColorMatrix
         values="1 -2.77556e-17 -2.77556e-17 0 0 -2.77556e-17 1 -2.77556e-17 0 0 -2.77556e-17 -2.77556e-17 1 0 0 0 0 0 1 0 "
         id="feColorMatrix2220"
         result="fbSourceGraphic" />
      <feColorMatrix
         result="fbSourceGraphicAlpha"
         in="fbSourceGraphic"
         values="0 0 0 -1 0 0 0 0 -1 0 0 0 0 -1 0 0 0 0 1 0"
         id="feColorMatrix3104" />
      <feColorMatrix
         id="feColorMatrix3106"
         values="1.4 -0.2 -0.2 0 0 -0.2 1.4 -0.2 0 0 -0.2 -0.2 1.4 0 0 0 0 0 1 0 "
         in="fbSourceGraphic" />
    </filter>
    <clipPath
       clipPathUnits="userSpaceOnUse"
       id="clipPath3286">
      <rect
         style="opacity:0.64099995;fill:#fbfbfb;fill-opacity:1;stroke:none;stroke-width:0.65540189;stroke-miterlimit:4;stroke-dasharray:none;stroke-dashoffset:39.22031021;stroke-opacity:1"
         id="rect3288"
         width="35.579533"
         height="15.84168"
         x="850.31317"
         y="659.26459"
         rx="2.0000012"
         ry="2.0000012"
         transform="rotate(0.8565307)" />
    </clipPath>
    <filter
       style="color-interpolation-filters:sRGB"
       id="filter2222-9">
      <feColorMatrix
         values="1 -2.77556e-17 -2.77556e-17 0 0 -2.77556e-17 1 -2.77556e-17 0 0 -2.77556e-17 -2.77556e-17 1 0 0 0 0 0 1 0 "
         id="feColorMatrix2220-4"
         result="fbSourceGraphic" />
      <feColorMatrix
         result="fbSourceGraphicAlpha"
         in="fbSourceGraphic"
         values="0 0 0 -1 0 0 0 0 -1 0 0 0 0 -1 0 0 0 0 1 0"
         id="feColorMatrix3104-6" />
      <feColorMatrix
         id="feColorMatrix3106-9"
         values="1.4 -0.2 -0.2 0 0 -0.2 1.4 -0.2 0 0 -0.2 -0.2 1.4 0 0 0 0 0 1 0 "
         in="fbSourceGraphic" />
    </filter>
    <clipPath
       clipPathUnits="userSpaceOnUse"
       id="clipPath3325">
      <rect
         style="opacity:0.64099995;fill:#fbfbfb;fill-opacity:1;stroke:none;stroke-width:0.50099999;stroke-miterlimit:4;stroke-dasharray:none;stroke-dashoffset:39.22031021;stroke-opacity:1"
         id="rect3327"
         width="18.708866"
         height="4.6772165"
         x="-875.36938"
         y="651.6571"
         rx="2.0000012"
         ry="2.0000012"
         transform="matrix(-0.99988826,-0.01494872,-0.01494872,0.99988826,0,0)" />
    </clipPath>
    <filter
       style="color-interpolation-filters:sRGB"
       id="filter2222-2">
      <feColorMatrix
         values="1 -2.77556e-17 -2.77556e-17 0 0 -2.77556e-17 1 -2.77556e-17 0 0 -2.77556e-17 -2.77556e-17 1 0 0 0 0 0 1 0 "
         id="feColorMatrix2220-47"
         result="fbSourceGraphic" />
      <feColorMatrix
         result="fbSourceGraphicAlpha"
         in="fbSourceGraphic"
         values="0 0 0 -1 0 0 0 0 -1 0 0 0 0 -1 0 0 0 0 1 0"
         id="feColorMatrix3104-7" />
      <feColorMatrix
         id="feColorMatrix3106-5"
         values="1.4 -0.2 -0.2 0 0 -0.2 1.4 -0.2 0 0 -0.2 -0.2 1.4 0 0 0 0 0 1 0 "
         in="fbSourceGraphic" />
    </filter>
    <clipPath
       clipPathUnits="userSpaceOnUse"
       id="clipPath3834">
      <path
         style="opacity:0.56499999;fill:#2b0000;fill-opacity:1;stroke:none;stroke-width:1.76200008;stroke-miterlimit:4;stroke-dasharray:none;stroke-dashoffset:39.22031021;stroke-opacity:1"
         d="m 949.92495,619.12604 -3.96978,-3.88144 -9.99168,0.29263 -0.007,-0.86102 -1.76676,-0.0431 0.0272,-0.81338 -1.05898,-0.56461 -4.57031,0.29488 -0.0245,0.29174 0.64525,0.8292 -0.041,0.52861 -13.38555,0.5168 -0.0132,-0.3222 -7.49414,-7.05025 -0.38621,-7.62437 0.36743,-0.0418 -0.0438,-0.48254 -1.35336,-0.64294 -0.23384,-0.004 -0.14151,-3.23902 -0.49881,-0.17252 0.003,-0.21046 0.48013,-0.0891 -0.88771,-0.61156 0.0204,-0.60108 -0.34723,-0.005 0.021,-0.34152 -2.5514,0.0405 -0.0434,0.30709 -1.13208,0.0168 0.002,0.56795 c -0.001,0.0742 0.52236,-0.0254 0.46055,0.0148 l -0.006,0.78796 -4.1107,0.10356 0.16198,4.07367 -0.81159,-0.002 -0.0126,0.50472 0.48096,-0.002 -0.0305,0.4283 0.19715,0.0592 0.0144,1.79791 -6.6754,0.02 0.003,0.33681 -0.30497,0.0444 -0.0559,0.48317 -0.43802,0.0605 -0.0571,0.30109 -4.96813,4.74885 -18.35115,-8.72355 -8.29802,0.41377 -2.73251,-50.85995 0.18749,-0.0732 -0.11942,-2.59499 -168.74946,-115.92965 -58.89811,18.46797 -48.124,-26.30542 0.0192,317.00536 380.97453,0.0719 0.0141,-120.61622 -1.45073,-0.88501 z"
         id="path3836" />
    </clipPath>
    <clipPath
       clipPathUnits="userSpaceOnUse"
       id="clipPath3834-7">
      <path
         style="opacity:0.56499999;fill:#2b0000;fill-opacity:1;stroke:none;stroke-width:1.76200008;stroke-miterlimit:4;stroke-dasharray:none;stroke-dashoffset:39.22031021;stroke-opacity:1"
         d="m 949.92495,619.12604 -3.96978,-3.88144 -9.99168,0.29263 -0.007,-0.86102 -1.76676,-0.0431 0.0272,-0.81338 -1.05898,-0.56461 -4.57031,0.29488 -0.0245,0.29174 0.64525,0.8292 -0.041,0.52861 -13.38555,0.5168 -0.0132,-0.3222 -7.49414,-7.05025 -0.38621,-7.62437 0.36743,-0.0418 -0.0438,-0.48254 -1.35336,-0.64294 -0.23384,-0.004 -0.14151,-3.23902 -0.49881,-0.17252 0.003,-0.21046 0.48013,-0.0891 -0.88771,-0.61156 0.0204,-0.60108 -0.34723,-0.005 0.021,-0.34152 -2.5514,0.0405 -0.0434,0.30709 -1.13208,0.0168 0.002,0.56795 c -0.001,0.0742 0.52236,-0.0254 0.46055,0.0148 l -0.006,0.78796 -4.1107,0.10356 0.16198,4.07367 -0.81159,-0.002 -0.0126,0.50472 0.48096,-0.002 -0.0305,0.4283 0.19715,0.0592 0.0144,1.79791 -6.6754,0.02 0.003,0.33681 -0.30497,0.0444 -0.0559,0.48317 -0.43802,0.0605 -0.0571,0.30109 -4.96813,4.74885 -18.35115,-8.72355 -8.29802,0.41377 -2.73251,-50.85995 0.18749,-0.0732 -0.11942,-2.59499 -168.74946,-115.92965 -58.89811,18.46797 -48.124,-26.30542 0.0192,317.00536 380.97453,0.0719 0.0141,-120.61622 -1.45073,-0.88501 z"
         id="path3836-2" />
    </clipPath>
    <filter
       style="color-interpolation-filters:sRGB"
       id="filter2222-4">
      <feColorMatrix
         values="1 -2.77556e-17 -2.77556e-17 0 0 -2.77556e-17 1 -2.77556e-17 0 0 -2.77556e-17 -2.77556e-17 1 0 0 0 0 0 1 0 "
         id="feColorMatrix2220-0"
         result="fbSourceGraphic" />
      <feColorMatrix
         result="fbSourceGraphicAlpha"
         in="fbSourceGraphic"
         values="0 0 0 -1 0 0 0 0 -1 0 0 0 0 -1 0 0 0 0 1 0"
         id="feColorMatrix3104-62" />
      <feColorMatrix
         id="feColorMatrix3106-99"
         values="1.4 -0.2 -0.2 0 0 -0.2 1.4 -0.2 0 0 -0.2 -0.2 1.4 0 0 0 0 0 1 0 "
         in="fbSourceGraphic" />
    </filter>
    <clipPath
       clipPathUnits="userSpaceOnUse"
       id="clipPath3325-1">
      <rect
         style="opacity:0.64099995;fill:#fbfbfb;fill-opacity:1;stroke:none;stroke-width:0.50099999;stroke-miterlimit:4;stroke-dasharray:none;stroke-dashoffset:39.22031021;stroke-opacity:1"
         id="rect3327-3"
         width="18.708866"
         height="4.6772165"
         x="-875.36938"
         y="651.6571"
         rx="2.0000012"
         ry="2.0000012"
         transform="matrix(-0.99988826,-0.01494872,-0.01494872,0.99988826,0,0)" />
    </clipPath>
    <filter
       style="color-interpolation-filters:sRGB"
       id="filter2222-2-1">
      <feColorMatrix
         values="1 -2.77556e-17 -2.77556e-17 0 0 -2.77556e-17 1 -2.77556e-17 0 0 -2.77556e-17 -2.77556e-17 1 0 0 0 0 0 1 0 "
         id="feColorMatrix2220-47-1"
         result="fbSourceGraphic" />
      <feColorMatrix
         result="fbSourceGraphicAlpha"
         in="fbSourceGraphic"
         values="0 0 0 -1 0 0 0 0 -1 0 0 0 0 -1 0 0 0 0 1 0"
         id="feColorMatrix3104-7-0" />
      <feColorMatrix
         id="feColorMatrix3106-5-3"
         values="1.4 -0.2 -0.2 0 0 -0.2 1.4 -0.2 0 0 -0.2 -0.2 1.4 0 0 0 0 0 1 0 "
         in="fbSourceGraphic" />
    </filter>
    <clipPath
       clipPathUnits="userSpaceOnUse"
       id="clipPath3286-4">
      <rect
         style="opacity:0.64099995;fill:#fbfbfb;fill-opacity:1;stroke:none;stroke-width:0.65540189;stroke-miterlimit:4;stroke-dasharray:none;stroke-dashoffset:39.22031021;stroke-opacity:1"
         id="rect3288-0"
         width="35.579533"
         height="15.84168"
         x="850.31317"
         y="659.26459"
         rx="2.0000012"
         ry="2.0000012"
         transform="rotate(0.8565307)" />
    </clipPath>
    <filter
       style="color-interpolation-filters:sRGB"
       id="filter2222-9-3">
      <feColorMatrix
         values="1 -2.77556e-17 -2.77556e-17 0 0 -2.77556e-17 1 -2.77556e-17 0 0 -2.77556e-17 -2.77556e-17 1 0 0 0 0 0 1 0 "
         id="feColorMatrix2220-4-9"
         result="fbSourceGraphic" />
      <feColorMatrix
         result="fbSourceGraphicAlpha"
         in="fbSourceGraphic"
         values="0 0 0 -1 0 0 0 0 -1 0 0 0 0 -1 0 0 0 0 1 0"
         id="feColorMatrix3104-6-1" />
      <feColorMatrix
         id="feColorMatrix3106-9-9"
         values="1.4 -0.2 -0.2 0 0 -0.2 1.4 -0.2 0 0 -0.2 -0.2 1.4 0 0 0 0 0 1 0 "
         in="fbSourceGraphic" />
    </filter>
    <clipPath
       clipPathUnits="userSpaceOnUse"
       id="clipPath3834-6">
      <path
         style="opacity:0.56499999;fill:#2b0000;fill-opacity:1;stroke:none;stroke-width:1.76200008;stroke-miterlimit:4;stroke-dasharray:none;stroke-dashoffset:39.22031021;stroke-opacity:1"
         d="m 949.92495,619.12604 -3.96978,-3.88144 -9.99168,0.29263 -0.007,-0.86102 -1.76676,-0.0431 0.0272,-0.81338 -1.05898,-0.56461 -4.57031,0.29488 -0.0245,0.29174 0.64525,0.8292 -0.041,0.52861 -13.38555,0.5168 -0.0132,-0.3222 -7.49414,-7.05025 -0.38621,-7.62437 0.36743,-0.0418 -0.0438,-0.48254 -1.35336,-0.64294 -0.23384,-0.004 -0.14151,-3.23902 -0.49881,-0.17252 0.003,-0.21046 0.48013,-0.0891 -0.88771,-0.61156 0.0204,-0.60108 -0.34723,-0.005 0.021,-0.34152 -2.5514,0.0405 -0.0434,0.30709 -1.13208,0.0168 0.002,0.56795 c -0.001,0.0742 0.52236,-0.0254 0.46055,0.0148 l -0.006,0.78796 -4.1107,0.10356 0.16198,4.07367 -0.81159,-0.002 -0.0126,0.50472 0.48096,-0.002 -0.0305,0.4283 0.19715,0.0592 0.0144,1.79791 -6.6754,0.02 0.003,0.33681 -0.30497,0.0444 -0.0559,0.48317 -0.43802,0.0605 -0.0571,0.30109 -4.96813,4.74885 -18.35115,-8.72355 -8.29802,0.41377 -2.73251,-50.85995 0.18749,-0.0732 -0.11942,-2.59499 -168.74946,-115.92965 -58.89811,18.46797 -48.124,-26.30542 0.0192,317.00536 380.97453,0.0719 0.0141,-120.61622 -1.45073,-0.88501 z"
         id="path3836-9" />
    </clipPath>
    <filter
       style="color-interpolation-filters:sRGB"
       id="filter2222-3">
      <feColorMatrix
         values="1 -2.77556e-17 -2.77556e-17 0 0 -2.77556e-17 1 -2.77556e-17 0 0 -2.77556e-17 -2.77556e-17 1 0 0 0 0 0 1 0 "
         id="feColorMatrix2220-3"
         result="fbSourceGraphic" />
      <feColorMatrix
         result="fbSourceGraphicAlpha"
         in="fbSourceGraphic"
         values="0 0 0 -1 0 0 0 0 -1 0 0 0 0 -1 0 0 0 0 1 0"
         id="feColorMatrix3104-8" />
      <feColorMatrix
         id="feColorMatrix3106-0"
         values="1.4 -0.2 -0.2 0 0 -0.2 1.4 -0.2 0 0 -0.2 -0.2 1.4 0 0 0 0 0 1 0 "
         in="fbSourceGraphic" />
    </filter>
  </defs>
  <metadata
     id="metadata5">
    <rdf:RDF>
      <cc:Work
         rdf:about="">
        <dc:format>image/svg+xml</dc:format>
        <dc:type
           rdf:resource="http://purl.org/dc/dcmitype/StillImage" />
        <dc:title />
      </cc:Work>
    </rdf:RDF>
  </metadata>
  <rect
     ry="12"
     rx="12"
     y="7.110394"
     x="0.0046045049"
     height="234.14041"
     width="198.314"
     id="rect11754-7-2"
     style="opacity:1;fill:#fdfdfd;fill-opacity:0.96226418;stroke:none;stroke-width:0.53429073;stroke-miterlimit:4;stroke-dasharray:none;stroke-dashoffset:39.22031021;stroke-opacity:1;enable-background:new" />
  <path
     inkscape:connector-curvature="0"
     id="path26692"
     style="font-style:normal;font-variant:normal;font-weight:normal;font-stretch:normal;font-size:24px;line-height:1.25;font-family:'DejaVu Sans';-inkscape-font-specification:'DejaVu Sans';letter-spacing:1.2189219px;word-spacing:0px;fill:#1f6071;fill-opacity:1;stroke:#2a505a;stroke-width:0.68791664;stroke-miterlimit:4;stroke-dasharray:none;stroke-opacity:1"
     d="m 16.085056,168.03405 h 1.960113 l 2.481011,6.61612 2.494069,-6.61612 h 1.960058 v 9.72228 h -1.282848 v -8.53712 l -2.507072,6.66819 h -1.321913 l -2.507072,-6.66819 v 8.53712 h -1.276346 z" />
  <path
     inkscape:connector-curvature="0"
     id="path26694"
     style="font-style:normal;font-variant:normal;font-weight:normal;font-stretch:normal;font-size:24px;line-height:1.25;font-family:'DejaVu Sans';-inkscape-font-specification:'DejaVu Sans';letter-spacing:1.2189219px;word-spacing:0px;fill:#1f6071;fill-opacity:1;stroke:#2a505a;stroke-width:0.68791664;stroke-miterlimit:4;stroke-dasharray:none;stroke-opacity:1"
     d="m 31.531412,174.0901 q -1.452164,0 -2.012181,0.33213 -0.560017,0.33213 -0.560017,1.1331 0,0.63814 0.416762,1.01584 0.423263,0.37119 1.146095,0.37119 0.996283,0 1.595364,-0.70332 0.605638,-0.70978 0.605638,-1.88193 v -0.26701 z m 2.389823,-0.49489 v 4.16112 h -1.198162 v -1.10703 q -0.41026,0.6642 -1.0224,0.98328 -0.612084,0.31257 -1.49773,0.31257 -1.120034,0 -1.784241,-0.62514 -0.657705,-0.63165 -0.657705,-1.68656 0,-1.23078 0.82052,-1.85592 0.826967,-0.62514 2.461506,-0.62514 h 1.68005 v -0.1172 q 0,-0.82702 -0.547014,-1.27634 -0.540456,-0.45583 -1.523792,-0.45583 -0.625142,0 -1.217722,0.14976 -0.59258,0.14981 -1.139593,0.44932 v -1.10697 q 0.657705,-0.254 1.276347,-0.3777 0.618641,-0.13025 1.204719,-0.13025 1.582361,0 2.363817,0.82052 0.7814,0.82046 0.7814,2.48751 z" />
  <path
     inkscape:connector-curvature="0"
     id="path26696"
     style="font-style:normal;font-variant:normal;font-weight:normal;font-stretch:normal;font-size:24px;line-height:1.25;font-family:'DejaVu Sans';-inkscape-font-specification:'DejaVu Sans';letter-spacing:1.2189219px;word-spacing:0px;fill:#1f6071;fill-opacity:1;stroke:#2a505a;stroke-width:0.68791664;stroke-miterlimit:4;stroke-dasharray:none;stroke-opacity:1"
     d="m 37.020998,167.62379 h 1.204719 v 5.98448 l 3.575038,-3.14527 h 1.530293 l -3.868049,3.41222 4.030864,3.88111 h -1.562856 l -3.70529,-3.56204 v 3.56204 h -1.204719 z" />
  <path
     inkscape:connector-curvature="0"
     id="path26698"
     style="font-style:normal;font-variant:normal;font-weight:normal;font-stretch:normal;font-size:24px;line-height:1.25;font-family:'DejaVu Sans';-inkscape-font-specification:'DejaVu Sans';letter-spacing:1.2189219px;word-spacing:0px;fill:#1f6071;fill-opacity:1;stroke:#2a505a;stroke-width:0.68791664;stroke-miterlimit:4;stroke-dasharray:none;stroke-opacity:1"
     d="m 51.230072,173.81009 v 0.58608 h -5.509034 q 0.07813,1.23728 0.742336,1.88849 0.670708,0.64465 1.862425,0.64465 0.690213,0 1.334915,-0.16932 0.651204,-0.16932 1.28935,-0.50789 v 1.13303 q -0.644647,0.27351 -1.321913,0.41676 -0.67721,0.14326 -1.37398,0.14326 -1.745231,0 -2.767575,-1.01584 -1.015843,-1.01585 -1.015843,-2.74802 0,-1.7908 0.96372,-2.8392 0.970276,-1.05491 2.611317,-1.05491 1.471669,0 2.324697,0.95072 0.859585,0.94421 0.859585,2.57219 z m -1.198162,-0.35163 q -0.01278,-0.98328 -0.553515,-1.56936 -0.534011,-0.58608 -1.419602,-0.58608 -1.002839,0 -1.608422,0.56652 -0.599137,0.56657 -0.690269,1.59542 z" />
  <path
     inkscape:connector-curvature="0"
     id="path26700"
     style="font-style:normal;font-variant:normal;font-weight:normal;font-stretch:normal;font-size:24px;line-height:1.25;font-family:'DejaVu Sans';-inkscape-font-specification:'DejaVu Sans';letter-spacing:1.2189219px;word-spacing:0px;fill:#1f6071;fill-opacity:1;stroke:#2a505a;stroke-width:0.68791664;stroke-miterlimit:4;stroke-dasharray:none;stroke-opacity:1"
     d="m 58.790575,170.463 h 1.198217 v 7.29333 h -1.198217 z m 0,-2.83921 h 1.198217 v 1.51729 h -1.198217 z" />
  <path
     inkscape:connector-curvature="0"
     id="path26702"
     style="font-style:normal;font-variant:normal;font-weight:normal;font-stretch:normal;font-size:24px;line-height:1.25;font-family:'DejaVu Sans';-inkscape-font-specification:'DejaVu Sans';letter-spacing:1.2189219px;word-spacing:0px;fill:#1f6071;fill-opacity:1;stroke:#2a505a;stroke-width:0.68791664;stroke-miterlimit:4;stroke-dasharray:none;stroke-opacity:1"
     d="m 64.358345,168.39219 v 2.07081 h 2.468007 v 0.93121 h -2.468007 v 3.95924 q 0,0.89209 0.240944,1.14609 0.247445,0.25395 0.996338,0.25395 h 1.230725 v 1.00284 h -1.230725 q -1.387039,0 -1.914492,-0.51445 -0.527454,-0.52096 -0.527454,-1.88843 v -3.95924 H 62.274536 V 170.463 h 0.879145 v -2.07081 z" />
  <path
     inkscape:connector-curvature="0"
     id="path26704"
     style="font-style:normal;font-variant:normal;font-weight:normal;font-stretch:normal;font-size:24px;line-height:1.25;font-family:'DejaVu Sans';-inkscape-font-specification:'DejaVu Sans';letter-spacing:1.2189219px;word-spacing:0px;fill:#1f6071;fill-opacity:1;stroke:#2a505a;stroke-width:0.68791664;stroke-miterlimit:4;stroke-dasharray:none;stroke-opacity:1"
     d="m 77.030735,178.43354 q -0.507949,1.30241 -0.989837,1.69961 -0.481887,0.39725 -1.289349,0.39725 h -0.957274 v -1.00284 h 0.703327 q 0.494891,0 0.768398,-0.23444 0.273506,-0.23444 0.605582,-1.10703 l 0.214882,-0.54696 -2.949839,-7.17613 h 1.26979 l 2.279186,5.70441 2.279131,-5.70441 h 1.269845 z" />
  <path
     inkscape:connector-curvature="0"
     id="path26706"
     style="font-style:normal;font-variant:normal;font-weight:normal;font-stretch:normal;font-size:24px;line-height:1.25;font-family:'DejaVu Sans';-inkscape-font-specification:'DejaVu Sans';letter-spacing:1.2189219px;word-spacing:0px;fill:#1f6071;fill-opacity:1;stroke:#2a505a;stroke-width:0.68791664;stroke-miterlimit:4;stroke-dasharray:none;stroke-opacity:1"
     d="m 85.392087,171.30302 q -0.963775,0 -1.523792,0.7554 -0.560017,0.74883 -0.560017,2.05774 0,1.30891 0.553516,2.06431 0.560016,0.74884 1.530293,0.74884 0.957274,0 1.517291,-0.7554 0.560016,-0.75534 0.560016,-2.05775 0,-1.29585 -0.560016,-2.05124 -0.560017,-0.7619 -1.517291,-0.7619 z m 0,-1.01584 q 1.562857,0 2.455005,1.01584 0.892148,1.01584 0.892148,2.81314 0,1.7908 -0.892148,2.81315 -0.892148,1.01584 -2.455005,1.01584 -1.569358,0 -2.461506,-1.01584 -0.885591,-1.02235 -0.885591,-2.81315 0,-1.7973 0.885591,-2.81314 0.892148,-1.01584 2.461506,-1.01584 z" />
  <path
     inkscape:connector-curvature="0"
     id="path26708"
     style="font-style:normal;font-variant:normal;font-weight:normal;font-stretch:normal;font-size:24px;line-height:1.25;font-family:'DejaVu Sans';-inkscape-font-specification:'DejaVu Sans';letter-spacing:1.2189219px;word-spacing:0px;fill:#1f6071;fill-opacity:1;stroke:#2a505a;stroke-width:0.68791664;stroke-miterlimit:4;stroke-dasharray:none;stroke-opacity:1"
     d="M 91.27893,174.87806 V 170.463 h 1.198218 v 4.36949 q 0,1.03541 0.403758,1.55636 0.403704,0.51439 1.211166,0.51439 0.970277,0 1.530293,-0.61858 0.566574,-0.61864 0.566574,-1.68661 V 170.463 h 1.198162 v 7.29333 h -1.198162 v -1.12004 q -0.436322,0.66421 -1.015843,0.98979 -0.573075,0.31907 -1.334971,0.31907 -1.256787,0 -1.907991,-0.7814 -0.651204,-0.78146 -0.651204,-2.28569 z m 3.015021,-4.59088 z" />
  <path
     inkscape:connector-curvature="0"
     id="path26710"
     style="font-style:normal;font-variant:normal;font-weight:normal;font-stretch:normal;font-size:24px;line-height:1.25;font-family:'DejaVu Sans';-inkscape-font-specification:'DejaVu Sans';letter-spacing:1.2189219px;word-spacing:0px;fill:#1f6071;fill-opacity:1;stroke:#2a505a;stroke-width:0.68791664;stroke-miterlimit:4;stroke-dasharray:none;stroke-opacity:1"
     d="m 104.75867,171.58303 q -0.20188,-0.11719 -0.44282,-0.16932 -0.23439,-0.0586 -0.52095,-0.0586 -1.01585,0 -1.56286,0.66421 -0.54046,0.65771 -0.54046,1.89493 v 3.84205 h -1.20472 v -7.2933 h 1.20472 v 1.13309 q 0.3777,-0.66426 0.98328,-0.98334 0.60564,-0.32557 1.47173,-0.32557 0.12369,0 0.27345,0.0195 0.14981,0.0133 0.33213,0.0456 z" />
  <path
     inkscape:connector-curvature="0"
     id="path26712"
     style="font-style:normal;font-variant:normal;font-weight:normal;font-stretch:normal;font-size:24px;line-height:1.25;font-family:'DejaVu Sans';-inkscape-font-specification:'DejaVu Sans';letter-spacing:1.2189219px;word-spacing:0px;fill:#1f6071;fill-opacity:1;stroke:#2a505a;stroke-width:0.68791664;stroke-miterlimit:4;stroke-dasharray:none;stroke-opacity:1"
     d="m 111.34228,170.67788 v 1.13309 q -0.50789,-0.2605 -1.0549,-0.3907 -0.54702,-0.13025 -1.13309,-0.13025 -0.8921,0 -1.34142,0.27351 -0.44283,0.2735 -0.44283,0.82046 0,0.41676 0.31908,0.65771 0.31907,0.23444 1.28285,0.44932 l 0.41026,0.0912 q 1.27634,0.27351 1.8103,0.7749 0.54051,0.49489 0.54051,1.38704 0,1.01584 -0.80752,1.60842 -0.80096,0.59258 -2.2075,0.59258 -0.58608,0 -1.22422,-0.1172 -0.6317,-0.11069 -1.33498,-0.33863 v -1.23722 q 0.66421,0.34513 1.30891,0.52095 0.64465,0.16931 1.27635,0.16931 0.84653,0 1.30235,-0.28656 0.45583,-0.29301 0.45583,-0.82047 0,-0.48839 -0.33208,-0.74889 -0.32563,-0.26045 -1.43916,-0.50139 l -0.41676,-0.0977 q -1.11353,-0.23444 -1.60842,-0.71633 -0.49489,-0.48839 -0.49489,-1.33492 0,-1.0289 0.72933,-1.58891 0.72933,-0.56002 2.07075,-0.56002 0.66421,0 1.25029,0.0977 0.58607,0.0977 1.08096,0.29301 z" />
  <text
     id="text15457-9-8"
     y="205.98502"
     x="14.856898"
     style="font-style:normal;font-weight:normal;font-size:10.81928062px;line-height:1.25;font-family:sans-serif;letter-spacing:0px;word-spacing:0px;fill:#283538;fill-opacity:1;stroke:none;stroke-width:0.45080334;enable-background:new"
     xml:space="preserve">Upload your own design at </text>
  <rect
     y="188.19519"
     x="15.443507"
     height="0.66145831"
     width="97.234375"
     id="rect15477-0-0"
     style="opacity:1;fill:#1f6071;fill-opacity:1;stroke:#428a8a;stroke-width:0.56500006;stroke-miterlimit:4;stroke-dasharray:none;stroke-dashoffset:39.22031021;stroke-opacity:1;enable-background:new" />
  <rect
     ry="2"
     rx="2"
     y="52.787785"
     x="38.675705"
     height="74.470406"
     width="120.49564"
     id="rect25109"
     style="opacity:1;fill:#00485a;fill-opacity:0.80392157;stroke:none;stroke-width:5.12743664;stroke-miterlimit:4;stroke-dasharray:none;stroke-dashoffset:39.22031021;stroke-opacity:1" />
  <path
     inkscape:connector-curvature="0"
     id="path25822"
     d="m 72.473942,106.42048 c -0.06393,-1.2567 -0.116985,-8.436231 -0.117325,-15.954531 l -7.31e-4,-13.669645 19.692302,0.123786 19.692272,0.123786 0.13228,-0.611653 c 0.38506,-1.779706 1.94546,-3.672041 3.76423,-4.56504 0.9804,-0.481341 1.23529,-0.526806 2.95466,-0.526806 1.69435,0 1.99273,0.05135 2.99679,0.515073 1.36628,0.631109 2.74372,2.029589 3.41961,3.47184 0.42859,0.914526 0.48314,1.243445 0.48314,2.912623 0,1.691727 -0.05,1.983374 -0.49471,2.889057 -0.95441,1.943451 -2.83964,3.498909 -4.64692,3.834119 l -0.66145,0.122768 -0.0554,11.58581 c -0.0307,6.372193 -0.12073,11.686623 -0.20031,11.809833 -0.1146,0.17717 -5.01148,0.2241 -23.493463,0.2241 h -23.34847 z m 45.159478,1.32493 c 0.0136,-0.0135 0.0554,-5.09667 0.0898,-11.294587 l 0.0623,-11.268897 -0.94438,-0.242472 c -1.28432,-0.329872 -1.91644,-0.681335 -2.93088,-1.63024 -1.20811,-1.130066 -1.80191,-2.217652 -2.20514,-4.03881 l -0.10916,-0.492833 H 92.871965 74.148087 v 14.628715 14.628694 l 21.729036,-0.13195 c 11.950987,-0.0724 21.741347,-0.14351 21.756337,-0.15745 z m -32.016029,-1.38386 c -8.558484,-0.1044 -9.713948,-0.19622 -9.386083,-0.74717 0.07345,-0.12345 1.223514,-1.71624 2.555714,-3.53972 4.403334,-6.027025 6.04344,-7.885183 6.959937,-7.885183 0.593189,0 2.006024,1.366411 3.506527,3.391307 1.175395,1.586139 1.267044,1.667817 1.507917,1.344037 0.141128,-0.189421 1.623167,-2.213634 3.293539,-4.497874 3.167441,-4.331476 5.489084,-7.122589 6.305838,-7.581044 0.46783,-0.262536 0.5016,-0.247573 1.39549,0.625123 1.25708,1.227051 2.77152,3.067256 5.30796,6.449656 3.94301,5.258009 8.66023,11.853908 8.66023,12.109198 0,0.0748 -0.58468,0.18126 -1.29928,0.23669 -1.99048,0.15405 -19.27374,0.21118 -28.807789,0.0949 z M 79.120737,88.378339 c -1.497954,-0.53456 -2.46376,-1.722469 -2.46376,-3.030287 0,-0.92789 0.255736,-1.458167 1.178897,-2.44516 1.034194,-1.105646 2.106276,-1.563688 2.982814,-1.27442 0.710652,0.234649 2.007213,1.499245 2.279374,2.223396 0.687967,1.830305 -0.428766,4.08091 -2.280055,4.595065 -0.823624,0.228868 -0.869262,0.226829 -1.69727,-0.06869 z m 40.046993,-7.943119 0.0513,-1.747294 1.65768,-0.05168 c 1.62804,-0.05067 1.65769,-0.05951 1.65769,-0.4928 0,-0.437979 -0.0135,-0.441314 -1.7025,-0.441314 h -1.70255 v -1.702473 c 0,-1.696523 -0.001,-1.702473 -0.448,-1.702473 -0.44645,0 -0.44802,0.0068 -0.44802,1.702473 v 1.702473 h -1.79208 c -1.78508,0 -1.79212,0.0018 -1.79212,0.441518 0,0.435566 0.0238,0.44223 1.74729,0.492833 l 1.74729,0.05135 0.0513,1.747294 c 0.0503,1.716315 0.0588,1.747294 0.48633,1.747294 0.42734,0 0.43594,-0.03061 0.48634,-1.747294 z"
     style="fill:#c6c6c6;fill-opacity:1;stroke-width:0.17920862" />
  <text
     id="text15457-9-8-3"
     y="236.0475"
     x="15.147816"
     style="font-style:normal;font-weight:normal;font-size:7.55701494px;line-height:1.25;font-family:sans-serif;letter-spacing:0px;word-spacing:0px;fill:#6b6b6b;fill-opacity:1;stroke:none;stroke-width:0.3148756;enable-background:new"
     xml:space="preserve">(Additional $6)</text>
  <text
     id="text15457-9-8-5"
     y="219.2395"
     x="15.415262"
     style="font-style:normal;font-weight:normal;font-size:10.81928062px;line-height:1.25;font-family:sans-serif;letter-spacing:0px;word-spacing:0px;fill:#283538;fill-opacity:1;stroke:none;stroke-width:0.45080331;enable-background:new"
     xml:space="preserve">checkout</text>
</svg>
