<?xml version="1.0" encoding="UTF-8" standalone="no"?>
<svg
   xmlns:dc="http://purl.org/dc/elements/1.1/"
   xmlns:cc="http://creativecommons.org/ns#"
   xmlns:rdf="http://www.w3.org/1999/02/22-rdf-syntax-ns#"
   xmlns:svg="http://www.w3.org/2000/svg"
   xmlns="http://www.w3.org/2000/svg"
   xmlns:xlink="http://www.w3.org/1999/xlink"
   style="enable-background:new"
   id="svg8"
   version="1.1"
   viewBox="0 0 198.3232 248.3612"
   height="9.7779999in"
   width="7.8080001in">
  <defs
     id="defs2">
    <linearGradient
       id="linearGradient11062">
      <stop
         id="stop11058"
         offset="0"
         style="stop-color:#0c0d12;stop-opacity:1" />
      <stop
         id="stop11060"
         offset="1"
         style="stop-color:#272b2f;stop-opacity:1" />
    </linearGradient>
    <clipPath
       clipPathUnits="userSpaceOnUse"
       id="clipPath5315">
      <rect
         style="opacity:1;fill:#cababa;fill-opacity:0.66037741;stroke:none;stroke-width:0.23566131;stroke-miterlimit:4;stroke-dasharray:none;stroke-dashoffset:39.22031021;stroke-opacity:1"
         id="rect5317"
         width="203.19998"
         height="292.10001"
         x="1274.9778"
         y="361.77451" />
    </clipPath>
    <clipPath
       clipPathUnits="userSpaceOnUse"
       id="clipPath5734">
      <rect
         style="opacity:1;fill:#cababa;fill-opacity:0.66037741;stroke:none;stroke-width:0.23566131;stroke-miterlimit:4;stroke-dasharray:none;stroke-dashoffset:39.22031021;stroke-opacity:1"
         id="rect5736"
         width="203.19998"
         height="292.09998"
         x="1071.7778"
         y="361.77451" />
    </clipPath>
    <clipPath
       clipPathUnits="userSpaceOnUse"
       id="clipPath10302">
      <rect
         style="opacity:1;fill:#00495a;fill-opacity:0.94117647;stroke:none;stroke-width:0.73812002;stroke-miterlimit:4;stroke-dasharray:none;stroke-dashoffset:39.22031021;stroke-opacity:1"
         id="rect10304"
         width="225.71364"
         height="292.10001"
         x="1068.3546"
         y="328.10712" />
    </clipPath>
    <clipPath
       clipPathUnits="userSpaceOnUse"
       id="clipPath10923">
      <rect
         style="opacity:1;fill:#00495a;fill-opacity:0.94117647;stroke:none;stroke-width:0.70602781;stroke-miterlimit:4;stroke-dasharray:none;stroke-dashoffset:39.22031021;stroke-opacity:1"
         id="rect10925"
         width="215.89999"
         height="279.39999"
         x="1286"
         y="340.80713" />
    </clipPath>
    <clipPath
       clipPathUnits="userSpaceOnUse"
       id="clipPath10927">
      <rect
         style="opacity:1;fill:#00495a;fill-opacity:0.94117647;stroke:none;stroke-width:0.73812002;stroke-miterlimit:4;stroke-dasharray:none;stroke-dashoffset:39.22031021;stroke-opacity:1"
         id="rect10929"
         width="225.71364"
         height="292.10001"
         x="1294.0682"
         y="328.10712" />
    </clipPath>
    <clipPath
       clipPathUnits="userSpaceOnUse"
       id="clipPath10302-3">
      <rect
         style="opacity:1;fill:#00495a;fill-opacity:0.94117647;stroke:none;stroke-width:0.73812002;stroke-miterlimit:4;stroke-dasharray:none;stroke-dashoffset:39.22031021;stroke-opacity:1"
         id="rect10304-1"
         width="225.71364"
         height="292.10001"
         x="1068.3546"
         y="328.10712" />
    </clipPath>
    <clipPath
       clipPathUnits="userSpaceOnUse"
       id="clipPath10302-31">
      <rect
         style="opacity:1;fill:#00495a;fill-opacity:0.94117647;stroke:none;stroke-width:0.73812002;stroke-miterlimit:4;stroke-dasharray:none;stroke-dashoffset:39.22031021;stroke-opacity:1"
         id="rect10304-8"
         width="225.71364"
         height="292.10001"
         x="1068.3546"
         y="328.10712" />
    </clipPath>
    <linearGradient
       gradientTransform="translate(-62.560459,-47.1052)"
       gradientUnits="userSpaceOnUse"
       y2="453.12543"
       x2="-331.7717"
       y1="394.05887"
       x1="-368.22598"
       id="linearGradient11064"
       xlink:href="#linearGradient11062" />
    <filter
       id="filter11528"
       style="color-interpolation-filters:sRGB">
      <feFlood
         id="feFlood11518"
         result="flood"
         flood-color="rgb(0,0,0)"
         flood-opacity="1" />
      <feComposite
         id="feComposite11520"
         result="composite1"
         operator="in"
         in2="SourceGraphic"
         in="flood" />
      <feGaussianBlur
         id="feGaussianBlur11522"
         result="blur"
         stdDeviation="0.8"
         in="composite1" />
      <feOffset
         id="feOffset11524"
         result="offset"
         dy="0.6"
         dx="-0.4" />
      <feComposite
         id="feComposite11526"
         result="composite2"
         operator="over"
         in2="offset"
         in="SourceGraphic" />
    </filter>
    <clipPath
       id="clipPath11736"
       clipPathUnits="userSpaceOnUse">
      <rect
         ry="1.5119048"
         rx="2.5000002"
         y="291.1712"
         x="-687.23627"
         height="133.88718"
         width="182.94048"
         id="rect11738"
         style="opacity:1;fill:#f5f5f5;fill-opacity:0.96078431;stroke:none;stroke-width:4.71460152;stroke-miterlimit:4;stroke-dasharray:none;stroke-dashoffset:39.22031021;stroke-opacity:1" />
    </clipPath>
    <clipPath
       id="clipPath11740"
       clipPathUnits="userSpaceOnUse">
      <rect
         ry="1.5119048"
         rx="2.5000002"
         y="291.1712"
         x="-687.23627"
         height="133.88718"
         width="182.94048"
         id="rect11742"
         style="opacity:1;fill:#f5f5f5;fill-opacity:0.96078431;stroke:none;stroke-width:4.71460152;stroke-miterlimit:4;stroke-dasharray:none;stroke-dashoffset:39.22031021;stroke-opacity:1" />
    </clipPath>
    <clipPath
       id="clipPath11744"
       clipPathUnits="userSpaceOnUse">
      <rect
         ry="1.5119048"
         rx="2.5000002"
         y="291.1712"
         x="-687.23627"
         height="133.88718"
         width="182.94048"
         id="rect11746"
         style="opacity:1;fill:#f5f5f5;fill-opacity:0.96078431;stroke:none;stroke-width:4.71460152;stroke-miterlimit:4;stroke-dasharray:none;stroke-dashoffset:39.22031021;stroke-opacity:1" />
    </clipPath>
    <clipPath
       id="clipPath11748"
       clipPathUnits="userSpaceOnUse">
      <rect
         ry="1.5119048"
         rx="2.5000002"
         y="307.74191"
         x="-343.5304"
         height="68.399162"
         width="93.459106"
         id="rect11750"
         style="opacity:1;fill:#f5f5f5;fill-opacity:0.96078431;stroke:none;stroke-width:2.40855622;stroke-miterlimit:4;stroke-dasharray:none;stroke-dashoffset:39.22031021;stroke-opacity:1" />
    </clipPath>
    <clipPath
       id="clipPath11748-1"
       clipPathUnits="userSpaceOnUse">
      <rect
         ry="1.5119048"
         rx="2.5000002"
         y="307.74191"
         x="-343.5304"
         height="68.399162"
         width="93.459106"
         id="rect11750-7"
         style="opacity:1;fill:#f5f5f5;fill-opacity:0.96078431;stroke:none;stroke-width:2.40855622;stroke-miterlimit:4;stroke-dasharray:none;stroke-dashoffset:39.22031021;stroke-opacity:1" />
    </clipPath>
    <clipPath
       id="clipPath11744-8"
       clipPathUnits="userSpaceOnUse">
      <rect
         ry="1.5119048"
         rx="2.5000002"
         y="291.1712"
         x="-687.23627"
         height="133.88718"
         width="182.94048"
         id="rect11746-5"
         style="opacity:1;fill:#f5f5f5;fill-opacity:0.96078431;stroke:none;stroke-width:4.71460152;stroke-miterlimit:4;stroke-dasharray:none;stroke-dashoffset:39.22031021;stroke-opacity:1" />
    </clipPath>
    <clipPath
       id="clipPath11740-1"
       clipPathUnits="userSpaceOnUse">
      <rect
         ry="1.5119048"
         rx="2.5000002"
         y="291.1712"
         x="-687.23627"
         height="133.88718"
         width="182.94048"
         id="rect11742-8"
         style="opacity:1;fill:#f5f5f5;fill-opacity:0.96078431;stroke:none;stroke-width:4.71460152;stroke-miterlimit:4;stroke-dasharray:none;stroke-dashoffset:39.22031021;stroke-opacity:1" />
    </clipPath>
    <clipPath
       id="clipPath11736-5"
       clipPathUnits="userSpaceOnUse">
      <rect
         ry="1.5119048"
         rx="2.5000002"
         y="291.1712"
         x="-687.23627"
         height="133.88718"
         width="182.94048"
         id="rect11738-9"
         style="opacity:1;fill:#f5f5f5;fill-opacity:0.96078431;stroke:none;stroke-width:4.71460152;stroke-miterlimit:4;stroke-dasharray:none;stroke-dashoffset:39.22031021;stroke-opacity:1" />
    </clipPath>
    <filter
       id="filter2222"
       style="color-interpolation-filters:sRGB">
      <feColorMatrix
         result="fbSourceGraphic"
         id="feColorMatrix2220"
         values="1 -2.77556e-17 -2.77556e-17 0 0 -2.77556e-17 1 -2.77556e-17 0 0 -2.77556e-17 -2.77556e-17 1 0 0 0 0 0 1 0 " />
      <feColorMatrix
         id="feColorMatrix3104"
         values="0 0 0 -1 0 0 0 0 -1 0 0 0 0 -1 0 0 0 0 1 0"
         in="fbSourceGraphic"
         result="fbSourceGraphicAlpha" />
      <feColorMatrix
         in="fbSourceGraphic"
         values="1.4 -0.2 -0.2 0 0 -0.2 1.4 -0.2 0 0 -0.2 -0.2 1.4 0 0 0 0 0 1 0 "
         id="feColorMatrix3106" />
    </filter>
    <clipPath
       id="clipPath3286"
       clipPathUnits="userSpaceOnUse">
      <rect
         transform="rotate(0.8565307)"
         ry="2.0000012"
         rx="2.0000012"
         y="659.26459"
         x="850.31317"
         height="15.84168"
         width="35.579533"
         id="rect3288"
         style="opacity:0.64099995;fill:#fbfbfb;fill-opacity:1;stroke:none;stroke-width:0.65540189;stroke-miterlimit:4;stroke-dasharray:none;stroke-dashoffset:39.22031021;stroke-opacity:1" />
    </clipPath>
    <filter
       id="filter2222-9"
       style="color-interpolation-filters:sRGB">
      <feColorMatrix
         result="fbSourceGraphic"
         id="feColorMatrix2220-4"
         values="1 -2.77556e-17 -2.77556e-17 0 0 -2.77556e-17 1 -2.77556e-17 0 0 -2.77556e-17 -2.77556e-17 1 0 0 0 0 0 1 0 " />
      <feColorMatrix
         id="feColorMatrix3104-6"
         values="0 0 0 -1 0 0 0 0 -1 0 0 0 0 -1 0 0 0 0 1 0"
         in="fbSourceGraphic"
         result="fbSourceGraphicAlpha" />
      <feColorMatrix
         in="fbSourceGraphic"
         values="1.4 -0.2 -0.2 0 0 -0.2 1.4 -0.2 0 0 -0.2 -0.2 1.4 0 0 0 0 0 1 0 "
         id="feColorMatrix3106-9" />
    </filter>
    <clipPath
       id="clipPath3325"
       clipPathUnits="userSpaceOnUse">
      <rect
         transform="matrix(-0.99988826,-0.01494872,-0.01494872,0.99988826,0,0)"
         ry="2.0000012"
         rx="2.0000012"
         y="651.6571"
         x="-875.36938"
         height="4.6772165"
         width="18.708866"
         id="rect3327"
         style="opacity:0.64099995;fill:#fbfbfb;fill-opacity:1;stroke:none;stroke-width:0.50099999;stroke-miterlimit:4;stroke-dasharray:none;stroke-dashoffset:39.22031021;stroke-opacity:1" />
    </clipPath>
    <filter
       id="filter2222-2"
       style="color-interpolation-filters:sRGB">
      <feColorMatrix
         result="fbSourceGraphic"
         id="feColorMatrix2220-47"
         values="1 -2.77556e-17 -2.77556e-17 0 0 -2.77556e-17 1 -2.77556e-17 0 0 -2.77556e-17 -2.77556e-17 1 0 0 0 0 0 1 0 " />
      <feColorMatrix
         id="feColorMatrix3104-7"
         values="0 0 0 -1 0 0 0 0 -1 0 0 0 0 -1 0 0 0 0 1 0"
         in="fbSourceGraphic"
         result="fbSourceGraphicAlpha" />
      <feColorMatrix
         in="fbSourceGraphic"
         values="1.4 -0.2 -0.2 0 0 -0.2 1.4 -0.2 0 0 -0.2 -0.2 1.4 0 0 0 0 0 1 0 "
         id="feColorMatrix3106-5" />
    </filter>
    <clipPath
       id="clipPath3834"
       clipPathUnits="userSpaceOnUse">
      <path
         id="path3836"
         d="m 949.92495,619.12604 -3.96978,-3.88144 -9.99168,0.29263 -0.007,-0.86102 -1.76676,-0.0431 0.0272,-0.81338 -1.05898,-0.56461 -4.57031,0.29488 -0.0245,0.29174 0.64525,0.8292 -0.041,0.52861 -13.38555,0.5168 -0.0132,-0.3222 -7.49414,-7.05025 -0.38621,-7.62437 0.36743,-0.0418 -0.0438,-0.48254 -1.35336,-0.64294 -0.23384,-0.004 -0.14151,-3.23902 -0.49881,-0.17252 0.003,-0.21046 0.48013,-0.0891 -0.88771,-0.61156 0.0204,-0.60108 -0.34723,-0.005 0.021,-0.34152 -2.5514,0.0405 -0.0434,0.30709 -1.13208,0.0168 0.002,0.56795 c -0.001,0.0742 0.52236,-0.0254 0.46055,0.0148 l -0.006,0.78796 -4.1107,0.10356 0.16198,4.07367 -0.81159,-0.002 -0.0126,0.50472 0.48096,-0.002 -0.0305,0.4283 0.19715,0.0592 0.0144,1.79791 -6.6754,0.02 0.003,0.33681 -0.30497,0.0444 -0.0559,0.48317 -0.43802,0.0605 -0.0571,0.30109 -4.96813,4.74885 -18.35115,-8.72355 -8.29802,0.41377 -2.73251,-50.85995 0.18749,-0.0732 -0.11942,-2.59499 -168.74946,-115.92965 -58.89811,18.46797 -48.124,-26.30542 0.0192,317.00536 380.97453,0.0719 0.0141,-120.61622 -1.45073,-0.88501 z"
         style="opacity:0.56499999;fill:#2b0000;fill-opacity:1;stroke:none;stroke-width:1.76200008;stroke-miterlimit:4;stroke-dasharray:none;stroke-dashoffset:39.22031021;stroke-opacity:1" />
    </clipPath>
    <clipPath
       id="clipPath3834-7"
       clipPathUnits="userSpaceOnUse">
      <path
         id="path3836-2"
         d="m 949.92495,619.12604 -3.96978,-3.88144 -9.99168,0.29263 -0.007,-0.86102 -1.76676,-0.0431 0.0272,-0.81338 -1.05898,-0.56461 -4.57031,0.29488 -0.0245,0.29174 0.64525,0.8292 -0.041,0.52861 -13.38555,0.5168 -0.0132,-0.3222 -7.49414,-7.05025 -0.38621,-7.62437 0.36743,-0.0418 -0.0438,-0.48254 -1.35336,-0.64294 -0.23384,-0.004 -0.14151,-3.23902 -0.49881,-0.17252 0.003,-0.21046 0.48013,-0.0891 -0.88771,-0.61156 0.0204,-0.60108 -0.34723,-0.005 0.021,-0.34152 -2.5514,0.0405 -0.0434,0.30709 -1.13208,0.0168 0.002,0.56795 c -0.001,0.0742 0.52236,-0.0254 0.46055,0.0148 l -0.006,0.78796 -4.1107,0.10356 0.16198,4.07367 -0.81159,-0.002 -0.0126,0.50472 0.48096,-0.002 -0.0305,0.4283 0.19715,0.0592 0.0144,1.79791 -6.6754,0.02 0.003,0.33681 -0.30497,0.0444 -0.0559,0.48317 -0.43802,0.0605 -0.0571,0.30109 -4.96813,4.74885 -18.35115,-8.72355 -8.29802,0.41377 -2.73251,-50.85995 0.18749,-0.0732 -0.11942,-2.59499 -168.74946,-115.92965 -58.89811,18.46797 -48.124,-26.30542 0.0192,317.00536 380.97453,0.0719 0.0141,-120.61622 -1.45073,-0.88501 z"
         style="opacity:0.56499999;fill:#2b0000;fill-opacity:1;stroke:none;stroke-width:1.76200008;stroke-miterlimit:4;stroke-dasharray:none;stroke-dashoffset:39.22031021;stroke-opacity:1" />
    </clipPath>
    <filter
       id="filter2222-4"
       style="color-interpolation-filters:sRGB">
      <feColorMatrix
         result="fbSourceGraphic"
         id="feColorMatrix2220-0"
         values="1 -2.77556e-17 -2.77556e-17 0 0 -2.77556e-17 1 -2.77556e-17 0 0 -2.77556e-17 -2.77556e-17 1 0 0 0 0 0 1 0 " />
      <feColorMatrix
         id="feColorMatrix3104-62"
         values="0 0 0 -1 0 0 0 0 -1 0 0 0 0 -1 0 0 0 0 1 0"
         in="fbSourceGraphic"
         result="fbSourceGraphicAlpha" />
      <feColorMatrix
         in="fbSourceGraphic"
         values="1.4 -0.2 -0.2 0 0 -0.2 1.4 -0.2 0 0 -0.2 -0.2 1.4 0 0 0 0 0 1 0 "
         id="feColorMatrix3106-99" />
    </filter>
    <clipPath
       id="clipPath3325-1"
       clipPathUnits="userSpaceOnUse">
      <rect
         transform="matrix(-0.99988826,-0.01494872,-0.01494872,0.99988826,0,0)"
         ry="2.0000012"
         rx="2.0000012"
         y="651.6571"
         x="-875.36938"
         height="4.6772165"
         width="18.708866"
         id="rect3327-3"
         style="opacity:0.64099995;fill:#fbfbfb;fill-opacity:1;stroke:none;stroke-width:0.50099999;stroke-miterlimit:4;stroke-dasharray:none;stroke-dashoffset:39.22031021;stroke-opacity:1" />
    </clipPath>
    <filter
       id="filter2222-2-1"
       style="color-interpolation-filters:sRGB">
      <feColorMatrix
         result="fbSourceGraphic"
         id="feColorMatrix2220-47-1"
         values="1 -2.77556e-17 -2.77556e-17 0 0 -2.77556e-17 1 -2.77556e-17 0 0 -2.77556e-17 -2.77556e-17 1 0 0 0 0 0 1 0 " />
      <feColorMatrix
         id="feColorMatrix3104-7-0"
         values="0 0 0 -1 0 0 0 0 -1 0 0 0 0 -1 0 0 0 0 1 0"
         in="fbSourceGraphic"
         result="fbSourceGraphicAlpha" />
      <feColorMatrix
         in="fbSourceGraphic"
         values="1.4 -0.2 -0.2 0 0 -0.2 1.4 -0.2 0 0 -0.2 -0.2 1.4 0 0 0 0 0 1 0 "
         id="feColorMatrix3106-5-3" />
    </filter>
    <clipPath
       id="clipPath3286-4"
       clipPathUnits="userSpaceOnUse">
      <rect
         transform="rotate(0.8565307)"
         ry="2.0000012"
         rx="2.0000012"
         y="659.26459"
         x="850.31317"
         height="15.84168"
         width="35.579533"
         id="rect3288-0"
         style="opacity:0.64099995;fill:#fbfbfb;fill-opacity:1;stroke:none;stroke-width:0.65540189;stroke-miterlimit:4;stroke-dasharray:none;stroke-dashoffset:39.22031021;stroke-opacity:1" />
    </clipPath>
    <filter
       id="filter2222-9-3"
       style="color-interpolation-filters:sRGB">
      <feColorMatrix
         result="fbSourceGraphic"
         id="feColorMatrix2220-4-9"
         values="1 -2.77556e-17 -2.77556e-17 0 0 -2.77556e-17 1 -2.77556e-17 0 0 -2.77556e-17 -2.77556e-17 1 0 0 0 0 0 1 0 " />
      <feColorMatrix
         id="feColorMatrix3104-6-1"
         values="0 0 0 -1 0 0 0 0 -1 0 0 0 0 -1 0 0 0 0 1 0"
         in="fbSourceGraphic"
         result="fbSourceGraphicAlpha" />
      <feColorMatrix
         in="fbSourceGraphic"
         values="1.4 -0.2 -0.2 0 0 -0.2 1.4 -0.2 0 0 -0.2 -0.2 1.4 0 0 0 0 0 1 0 "
         id="feColorMatrix3106-9-9" />
    </filter>
    <clipPath
       id="clipPath3834-6"
       clipPathUnits="userSpaceOnUse">
      <path
         id="path3836-9"
         d="m 949.92495,619.12604 -3.96978,-3.88144 -9.99168,0.29263 -0.007,-0.86102 -1.76676,-0.0431 0.0272,-0.81338 -1.05898,-0.56461 -4.57031,0.29488 -0.0245,0.29174 0.64525,0.8292 -0.041,0.52861 -13.38555,0.5168 -0.0132,-0.3222 -7.49414,-7.05025 -0.38621,-7.62437 0.36743,-0.0418 -0.0438,-0.48254 -1.35336,-0.64294 -0.23384,-0.004 -0.14151,-3.23902 -0.49881,-0.17252 0.003,-0.21046 0.48013,-0.0891 -0.88771,-0.61156 0.0204,-0.60108 -0.34723,-0.005 0.021,-0.34152 -2.5514,0.0405 -0.0434,0.30709 -1.13208,0.0168 0.002,0.56795 c -0.001,0.0742 0.52236,-0.0254 0.46055,0.0148 l -0.006,0.78796 -4.1107,0.10356 0.16198,4.07367 -0.81159,-0.002 -0.0126,0.50472 0.48096,-0.002 -0.0305,0.4283 0.19715,0.0592 0.0144,1.79791 -6.6754,0.02 0.003,0.33681 -0.30497,0.0444 -0.0559,0.48317 -0.43802,0.0605 -0.0571,0.30109 -4.96813,4.74885 -18.35115,-8.72355 -8.29802,0.41377 -2.73251,-50.85995 0.18749,-0.0732 -0.11942,-2.59499 -168.74946,-115.92965 -58.89811,18.46797 -48.124,-26.30542 0.0192,317.00536 380.97453,0.0719 0.0141,-120.61622 -1.45073,-0.88501 z"
         style="opacity:0.56499999;fill:#2b0000;fill-opacity:1;stroke:none;stroke-width:1.76200008;stroke-miterlimit:4;stroke-dasharray:none;stroke-dashoffset:39.22031021;stroke-opacity:1" />
    </clipPath>
    <filter
       id="filter2222-3"
       style="color-interpolation-filters:sRGB">
      <feColorMatrix
         result="fbSourceGraphic"
         id="feColorMatrix2220-3"
         values="1 -2.77556e-17 -2.77556e-17 0 0 -2.77556e-17 1 -2.77556e-17 0 0 -2.77556e-17 -2.77556e-17 1 0 0 0 0 0 1 0 " />
      <feColorMatrix
         id="feColorMatrix3104-8"
         values="0 0 0 -1 0 0 0 0 -1 0 0 0 0 -1 0 0 0 0 1 0"
         in="fbSourceGraphic"
         result="fbSourceGraphicAlpha" />
      <feColorMatrix
         in="fbSourceGraphic"
         values="1.4 -0.2 -0.2 0 0 -0.2 1.4 -0.2 0 0 -0.2 -0.2 1.4 0 0 0 0 0 1 0 "
         id="feColorMatrix3106-0" />
    </filter>
  </defs>
  <metadata
     id="metadata5">
    <rdf:RDF>
      <cc:Work
         rdf:about="">
        <dc:format>image/svg+xml</dc:format>
        <dc:type
           rdf:resource="http://purl.org/dc/dcmitype/StillImage" />
        <dc:title></dc:title>
      </cc:Work>
    </rdf:RDF>
  </metadata>
  <g
     transform="translate(0,-48.638799)"
     id="layer1">
    <g
       transform="translate(0,275.1667)"
       id="g2061">
      <g
         id="g15820">
        <rect
           ry="12"
           rx="12"
           y="-219.41751"
           x="0.0046034288"
           height="234.14041"
           width="198.314"
           id="rect11754-7-2"
           style="opacity:1;fill:#fdfdfd;fill-opacity:0.96226418;stroke:none;stroke-width:0.53429073;stroke-miterlimit:4;stroke-dasharray:none;stroke-dashoffset:39.22031021;stroke-opacity:1;enable-background:new" />
        <flowRoot
           transform="matrix(0.55568231,0,0,0.55568231,1423.0336,-1016.6877)"
           style="font-style:normal;font-variant:normal;font-weight:normal;font-stretch:normal;font-size:24px;line-height:1.25;font-family:'DejaVu Sans';-inkscape-font-specification:'DejaVu Sans';letter-spacing:0px;word-spacing:0px;fill:#1f6071;fill-opacity:1;stroke:#2a505a;stroke-width:1.23796749;stroke-miterlimit:4;stroke-dasharray:none;stroke-opacity:1;enable-background:new"
           id="flowRoot11794-3-3-8-0"
           xml:space="preserve"><flowRegion
             style="font-style:normal;font-variant:normal;font-weight:normal;font-stretch:normal;font-family:'DejaVu Sans';-inkscape-font-specification:'DejaVu Sans';fill:#1f6071;fill-opacity:1;stroke:#2a505a;stroke-width:1.23796749;stroke-miterlimit:4;stroke-dasharray:none;stroke-opacity:1"
             id="flowRegion11796-3-0-0-2"><rect
               style="font-style:normal;font-variant:normal;font-weight:normal;font-stretch:normal;font-family:'DejaVu Sans';-inkscape-font-specification:'DejaVu Sans';fill:#1f6071;fill-opacity:1;stroke:#2a505a;stroke-width:1.23796749;stroke-miterlimit:4;stroke-dasharray:none;stroke-opacity:1"
               y="1733.9482"
               x="-2534.2856"
               height="168.57143"
               width="525.71429"
               id="rect11798-8-3-4-8" /></flowRegion><flowPara
             style="font-style:normal;font-variant:normal;font-weight:normal;font-stretch:normal;font-family:'DejaVu Sans';-inkscape-font-specification:'DejaVu Sans';letter-spacing:1.2189219px;fill:#1f6071;fill-opacity:1;stroke:#2a505a;stroke-width:1.23796749;stroke-miterlimit:4;stroke-dasharray:none;stroke-opacity:1"
             id="flowPara11800-6-0-2-3">Link any website</flowPara></flowRoot>        <text
           id="text15457-9-8"
           y="-14.722058"
           x="14.856897"
           style="font-style:normal;font-weight:normal;font-size:10.81928062px;line-height:1.25;font-family:sans-serif;letter-spacing:0px;word-spacing:0px;fill:#1f6071;fill-opacity:1;stroke:none;stroke-width:0.45080334;enable-background:new"
           xml:space="preserve"><tspan
             id="tspan15459-1-4"
             style="fill:#1f6071;fill-opacity:1;stroke-width:0.45080334"
             y="-14.722058"
             x="14.856897">You decide how your card works </tspan><tspan
             style="fill:#1f6071;fill-opacity:1;stroke-width:0.45080334"
             y="-1.1979573"
             x="14.856897"
             id="tspan15023">when tapped </tspan></text>
        <rect
           y="-30.924398"
           x="15.443506"
           height="0.66145831"
           width="97.234375"
           id="rect15477-0-0"
           style="opacity:1;fill:#1f6071;fill-opacity:1;stroke:#428a8a;stroke-width:0.56500006;stroke-miterlimit:4;stroke-dasharray:none;stroke-dashoffset:39.22031021;stroke-opacity:1;enable-background:new" />
        <g
           style="enable-background:new"
           transform="matrix(0.26458333,0,0,0.26458333,29.925834,-206.72709)"
           id="g21687">
          <g
             id="freepik--background-simple--inject-133">
            <path
               d="m 420.86,145.44 -2.06,-3.36 C 401.43,113.82 370,96.79 336.93,98.85 a 89,89 0 0 0 -12.68,1.72 c -30.09,6.37 -56.28,28.84 -67.14,57.63 -6.39,16.93 -8.17,36.42 -20.28,49.86 -15.77,17.48 -42.54,18 -66.08,17.31 -23.54,-0.69 -50.32,-0.11 -66,17.45 -9.83,11 -12.95,26.63 -12.16,41.36 2.1,39 29.61,73.84 64.6,91.17 34.99,17.33 76.18,18.88 114.47,11.26 53.64,-10.68 104.66,-40 135.32,-85.29 30.66,-45.29 38.41,-107 13.88,-155.88 z"
               style="fill:#ebebeb"
               id="path21334" />
          </g>
          <g
             id="freepik--Browser--inject-133">
            <rect
               ry="22.540001"
               x="63.470001"
               y="294.13"
               width="372.29999"
               height="48.509998"
               rx="22.540001"
               style="fill:#fafafa"
               id="rect21337" />
            <path
               d="m 349.85,294.13 h 64.2 a 21.71,21.71 0 0 1 21.71,21.71 v 5.08 a 21.71,21.71 0 0 1 -21.71,21.71 h -64.2 z"
               style="fill:#966161"
               id="path21339" />
            <path
               d="m 104.58,319.42 v 6.41 H 102 v -6.08 c 0,-2 -1,-2.95 -2.66,-2.95 -1.86,0 -3.12,1.13 -3.12,3.37 v 5.66 h -2.66 v -15.55 h 2.62 v 5.66 a 5,5 0 0 1 3.73,-1.42 c 2.68,0 4.67,1.53 4.67,4.9 z"
               style="fill:#263238"
               id="path21341" />
            <path
               d="m 114.64,325.22 a 4.13,4.13 0 0 1 -2.51,0.76 c -2.45,0 -3.86,-1.3 -3.86,-3.78 v -5.38 h -1.84 v -2.09 h 1.84 v -2.56 h 2.62 v 2.56 h 3 v 2.09 h -3 v 5.32 c 0,1.09 0.55,1.68 1.55,1.68 a 2.38,2.38 0 0 0 1.47,-0.46 z"
               style="fill:#263238"
               id="path21343" />
            <path
               d="m 123.25,325.22 a 4.11,4.11 0 0 1 -2.51,0.76 c -2.45,0 -3.85,-1.3 -3.85,-3.78 v -5.38 H 115 v -2.09 h 1.85 v -2.56 h 2.61 v 2.56 h 3 v 2.09 h -3 v 5.32 c 0,1.09 0.55,1.68 1.55,1.68 a 2.38,2.38 0 0 0 1.47,-0.46 z"
               style="fill:#263238"
               id="path21345" />
            <path
               d="m 137.29,320.24 a 5.45,5.45 0 0 1 -5.67,5.74 4.63,4.63 0 0 1 -3.59,-1.51 v 5.42 h -2.62 v -15.25 h 2.5 v 1.47 a 4.61,4.61 0 0 1 3.71,-1.59 5.44,5.44 0 0 1 5.67,5.72 z m -2.66,0 a 3.32,3.32 0 1 0 -3.31,3.49 3.25,3.25 0 0 0 3.31,-3.49 z"
               style="fill:#263238"
               id="path21347" />
            <path
               d="m 138.91,316.25 a 1.72,1.72 0 1 1 3.43,0 1.72,1.72 0 1 1 -3.43,0 z m 0,8 a 1.72,1.72 0 1 1 3.43,0 1.72,1.72 0 1 1 -3.43,0 z"
               style="fill:#263238"
               id="path21349" />
            <path
               d="m 150.52,308.19 h 2.34 L 146,327.92 h -2.4 z"
               style="fill:#263238"
               id="path21351" />
            <path
               d="m 156.82,308.19 h 2.35 l -6.91,19.73 h -2.35 z"
               style="fill:#263238"
               id="path21353" />
            <path
               d="m 176.85,314.64 -4.12,11.19 h -2.52 l -2.89,-7.71 -2.93,7.71 h -2.52 l -4.1,-11.19 h 2.47 l 2.95,8.26 3.08,-8.26 h 2.2 l 3,8.3 3,-8.3 z"
               style="fill:#263238"
               id="path21355" />
            <path
               d="m 195.9,314.64 -4.13,11.19 h -2.51 l -2.89,-7.71 -2.94,7.71 h -2.51 l -4.11,-11.19 h 2.48 l 3,8.26 3.08,-8.26 h 2.2 l 3,8.3 3,-8.3 z"
               style="fill:#263238"
               id="path21357" />
            <path
               d="m 215,314.64 -4.13,11.19 h -2.51 l -2.89,-7.71 -2.94,7.71 H 200 l -4.11,-11.19 h 2.47 l 3,8.26 3.08,-8.26 h 2.2 l 3,8.3 3,-8.3 z"
               style="fill:#263238"
               id="path21359" />
            <path
               d="m 215.18,324.24 a 1.72,1.72 0 1 1 3.44,0 1.72,1.72 0 1 1 -3.44,0 z"
               style="fill:#263238"
               id="path21361" />
            <path
               d="m 413.22,342.63 2.07,-0.12 c 0.68,-0.07 1.52,-0.22 2.52,-0.38 a 24.69,24.69 0 0 0 3.37,-1 22.43,22.43 0 0 0 8.17,-5.38 24,24 0 0 0 3.7,-5.07 22.66,22.66 0 0 0 2.28,-6.75 39.51,39.51 0 0 0 0.3,-8 21.89,21.89 0 0 0 -2,-8.53 22.73,22.73 0 0 0 -5.72,-7.64 22,22 0 0 0 -9.12,-4.77 23,23 0 0 0 -5.41,-0.71 h -17.6 -25.91 L 86,294.34 a 22.42,22.42 0 0 0 -21.9,17.87 c -0.11,0.84 -0.28,1.66 -0.35,2.5 -0.07,0.84 -0.11,1.67 -0.1,2.52 v 2.54 c 0,0.84 0.08,1.67 0.11,2.51 a 22.29,22.29 0 0 0 19.1,19.9 18,18 0 0 0 2.43,0.21 c 0.81,0.06 1.64,0 2.46,0 h 80.27 l 127.6,0.05 86,0.07 h 23.39 6.08 2.07 c 0,0 -0.7,0 -2.07,0 h -6.08 -23.39 l -86,0.07 H 168.02 87.78 c -0.83,0 -1.64,0 -2.47,0 a 18.57,18.57 0 0 1 -2.48,-0.21 22.71,22.71 0 0 1 -19.46,-20.28 c 0,-0.85 -0.11,-1.71 -0.12,-2.55 V 317 c 0,-0.84 0.07,-1.71 0.11,-2.56 0.04,-0.85 0.23,-1.69 0.35,-2.54 A 22.85,22.85 0 0 1 86,293.91 l 283.84,0.06 h 25.91 17.6 a 23,23 0 0 1 5.47,0.73 22.1,22.1 0 0 1 9.2,4.83 23,23 0 0 1 5.77,7.72 22.35,22.35 0 0 1 2,8.61 40.68,40.68 0 0 1 -0.32,8 23.24,23.24 0 0 1 -2.32,6.79 24,24 0 0 1 -3.74,5.09 22.46,22.46 0 0 1 -8.23,5.37 24.56,24.56 0 0 1 -3.39,1 c -1,0.15 -1.84,0.31 -2.53,0.36 z"
               style="fill:#263238"
               id="path21363" />
            <path
               d="m 386.34,325 a 10.51,10.51 0 1 1 10.51,-10.5 10.51,10.51 0 0 1 -10.51,10.5 z m 0,-20.18 a 9.68,9.68 0 1 0 9.66,9.68 9.69,9.69 0 0 0 -9.66,-9.68 z"
               style="fill:#ffffff"
               id="path21365" />
            <path
               d="m 402.84,332.89 a 0.43,0.43 0 0 1 -0.3,-0.13 L 393,322.45 a 0.42,0.42 0 0 1 0.61,-0.57 l 9.59,10.31 a 0.43,0.43 0 0 1 0,0.59 0.46,0.46 0 0 1 -0.36,0.11 z"
               style="fill:#ffffff"
               id="path21367" />
            <path
               d="m 222.41,329.47 c -0.12,0 -0.22,-4.94 -0.22,-11 0,-6.06 0.1,-11 0.22,-11 0.12,0 0.21,4.94 0.21,11 0,6.06 -0.09,11 -0.21,11 z"
               style="fill:#966161"
               id="path21369" />
          </g>
          <g
             id="freepik--Character--inject-133">
            <path
               d="m 248.19,126.91 a 157.65,157.65 0 0 0 0.05,39 c 0.41,3.28 1.11,6.86 3.69,8.91 3.08,2.44 7.91,1.59 10.71,-1.16 2.8,-2.75 3.84,-6.88 3.79,-10.81 -0.05,-3.93 -1.06,-7.76 -1.77,-11.62 -0.94,-5.09 -1.41,-10.37 -3.69,-15 -2.28,-4.63 -7,-8.6 -12.12,-8.08"
               style="fill:#263238"
               id="path21372" />
            <path
               d="m 255.77,88.82 c 5.87,-5.78 18.46,-4.31 25,0.66 6.54,4.97 10,13.16 11.38,21.29 1.38,8.13 1.06,16.45 1.73,24.66 0.67,8.21 2.52,16.68 7.59,23.18 2.17,2.77 4.88,5.12 6.81,8.06 a 18.51,18.51 0 0 1 0.76,19 16.72,16.72 0 0 1 -17,8 c -6.82,-1.29 -12.06,-7.1 -14.67,-13.53 -2.61,-6.43 -3,-13.51 -3.57,-20.43 a 563.47,563.47 0 0 0 -8.68,-64.18"
               style="fill:#263238"
               id="path21374" />
            <path
               d="m 248.59,152.34 6.11,-1.66 h 26.93 l 14.6,8.62 c 0,0 -25.53,11.49 -35,6.88 a 26.57,26.57 0 0 1 -12.65,-13.07"
               style="fill:#c69481"
               id="path21376" />
            <path
               d="M 281.84,103.59 282,100 260.5,95.22 c -6.65,-0.92 -14.07,5.55 -14.7,12.23 -0.7,7.42 -1.26,16.51 -0.55,22.08 1.42,11.22 9.93,12.9 9.93,12.9 l 0.91,24.51 24.68,1.06 z"
               style="fill:#c69481"
               id="path21378" />
            <path
               d="m 249,115.28 a 1.43,1.43 0 0 0 1.33,1.49 1.38,1.38 0 0 0 1.52,-1.25 1.43,1.43 0 0 0 -1.33,-1.48 1.37,1.37 0 0 0 -1.52,1.24 z"
               style="fill:#263238"
               id="path21380" />
            <path
               d="m 248,111.41 c 0.17,0.19 1.28,-0.58 2.82,-0.52 1.54,0.06 2.65,0.85 2.82,0.67 0.17,-0.18 -0.09,-0.42 -0.57,-0.8 a 4,4 0 0 0 -2.24,-0.77 3.89,3.89 0 0 0 -2.26,0.65 c -0.45,0.36 -0.57,0.68 -0.57,0.77 z"
               style="fill:#263238"
               id="path21382" />
            <path
               d="m 264.06,116 a 1.43,1.43 0 0 0 1.33,1.49 1.38,1.38 0 0 0 1.52,-1.25 1.43,1.43 0 0 0 -1.34,-1.48 1.36,1.36 0 0 0 -1.51,1.24 z"
               style="fill:#263238"
               id="path21384" />
            <path
               d="m 263.16,112.21 c 0.17,0.19 1.28,-0.58 2.82,-0.53 1.54,0.05 2.64,0.86 2.82,0.68 0.18,-0.18 -0.09,-0.43 -0.57,-0.8 a 4,4 0 0 0 -2.25,-0.77 3.79,3.79 0 0 0 -2.25,0.65 c -0.48,0.35 -0.65,0.68 -0.57,0.77 z"
               style="fill:#263238"
               id="path21386" />
            <path
               d="m 257.22,124.25 a 10.34,10.34 0 0 0 -2.49,-0.53 c -0.39,0 -0.76,-0.14 -0.82,-0.41 a 2,2 0 0 1 0.3,-1.16 c 0.4,-0.94 0.82,-1.92 1.25,-3 1.75,-4.21 3,-7.68 2.86,-7.75 -0.14,-0.07 -1.73,3.29 -3.47,7.51 l -1.21,3 a 2.33,2.33 0 0 0 -0.25,1.54 1,1 0 0 0 0.63,0.6 3,3 0 0 0 0.66,0.11 10,10 0 0 0 2.54,0.09 z"
               style="fill:#263238"
               id="path21388" />
            <path
               d="m 255.21,142.45 a 29.5,29.5 0 0 0 15.44,-3.53 c 0,0 -3.78,7.72 -15.3,6.34 z"
               style="fill:#936457"
               id="path21390" />
            <path
               d="m 257.75,128 a 2.8,2.8 0 0 1 2.52,-1 2.54,2.54 0 0 1 1.72,1 1.62,1.62 0 0 1 0.07,1.84 1.88,1.88 0 0 1 -2,0.45 5.85,5.85 0 0 1 -1.93,-1.24 1.56,1.56 0 0 1 -0.42,-0.47 0.49,0.49 0 0 1 0,-0.57"
               style="fill:#936457"
               id="path21392" />
            <path
               d="m 261.72,125.46 c -0.25,0 -0.31,1.65 -1.78,2.79 -1.47,1.14 -3.24,0.9 -3.26,1.13 -0.02,0.23 0.39,0.34 1.14,0.38 a 4.14,4.14 0 0 0 2.72,-0.85 3.66,3.66 0 0 0 1.38,-2.34 c 0.08,-0.7 -0.09,-1.12 -0.2,-1.11 z"
               style="fill:#263238"
               id="path21394" />
            <path
               d="m 263,107.56 c 0.14,0.42 1.68,0.27 3.48,0.54 1.8,0.27 3.25,0.82 3.5,0.45 0.11,-0.18 -0.13,-0.58 -0.71,-1 a 5.71,5.71 0 0 0 -2.57,-1 5.83,5.83 0 0 0 -2.74,0.23 c -0.73,0.22 -1.07,0.58 -0.96,0.78 z"
               style="fill:#263238"
               id="path21396" />
            <path
               d="m 248.24,106.13 c 0.26,0.36 1.34,0 2.61,0.05 1.27,0.05 2.35,0.31 2.61,-0.05 0.11,-0.18 0,-0.53 -0.51,-0.88 a 3.77,3.77 0 0 0 -4.2,0 c -0.46,0.35 -0.62,0.75 -0.51,0.88 z"
               style="fill:#263238"
               id="path21398" />
            <path
               d="m 281.51,121.14 c 1.95,-1.29 2.8,-12.42 2.72,-17 C 284.15,99.56 281.7,95.5 278.48,92.26 275,88.76 270.92,87.53 266,87 c -2.76,-0.3 -5.72,-0.66 -8.39,0.1 -2.67,0.76 -4.16,1.7 -5.46,4.15 -0.72,1.36 -0.91,3.3 0.34,4.19 1.25,0.89 2.82,0.17 4.23,-0.23 3.74,-1.07 7.84,0.14 11.07,2.3 3.23,2.16 5.77,5.21 8.26,8.21 3.23,3.91 4.76,10.41 5.48,15.42"
               style="fill:#966161"
               id="path21400" />
            <path
               d="m 243.85,95.12 c 1.43,-4.54 10.27,-10.16 19.63,-6 4.3,0.15 8.48,0.86 13.06,5 8.27,7.55 5.1,26 5.1,26 a 41.91,41.91 0 0 1 -13.19,-10.65 c -5.31,-6.4 -8.22,-11.41 -9.26,-14.45 v 0 c -8.64,2.08 -11.9,9.63 -13.42,12.9 -1.95,-2.14 -4.45,-4.79 -1.92,-12.8 z"
               style="fill:#263238"
               id="path21402" />
            <path
               d="m 279.81,119.06 c 0.18,-0.09 7.36,-2.51 7.43,4.92 0.07,7.43 -7.4,6 -7.41,5.75 -0.01,-0.25 -0.02,-10.67 -0.02,-10.67 z"
               style="fill:#c69481"
               id="path21404" />
            <path
               d="m 282.07,126.89 c 0,0 0.13,0.09 0.35,0.19 a 1.27,1.27 0 0 0 1,0 3.2,3.2 0 0 0 1.45,-2.89 4.35,4.35 0 0 0 -0.38,-1.84 1.5,1.5 0 0 0 -1,-1 0.65,0.65 0 0 0 -0.76,0.36 c -0.1,0.21 -0.05,0.36 -0.09,0.37 -0.04,0.01 -0.16,-0.12 -0.1,-0.43 a 0.84,0.84 0 0 1 0.28,-0.47 1,1 0 0 1 0.72,-0.19 1.8,1.8 0 0 1 1.36,1.14 4.41,4.41 0 0 1 0.47,2.06 c 0,1.5 -0.79,2.91 -1.86,3.23 a 1.35,1.35 0 0 1 -1.18,-0.19 c -0.25,-0.16 -0.33,-0.32 -0.26,-0.34 z"
               style="fill:#936457"
               id="path21406" />
            <path
               d="m 199.85,284.82 -15,1.66 -9.13,5.73 c 0,0 -0.18,1.86 2.42,1.56 l 5.15,-2.17 -4.08,4.46 c 0,0 1,1.79 3.23,0.54 a 12.66,12.66 0 0 0 3.62,-3.14 l 9,-0.63 c 0,0 -6.8,6.54 -5.55,8.24 1.25,1.7 2.06,1.34 3,0.72 0.94,-0.62 1.53,-2.78 3.76,-3.49 2.23,-0.71 5.94,-2.81 9.94,-4.71 3.45,-1.63 6.94,-13.3 6.94,-13.3 l -11.49,-2.24 z"
               style="fill:#c69481"
               id="path21408" />
            <path
               d="m 193.89,288.64 c 0,0.19 -3.78,0.92 -8.51,1.63 h -0.12 l 0.19,-0.1 c -3.3,3.38 -6.07,6 -6.21,5.87 -0.14,-0.13 2.42,-3 5.72,-6.35 l 0.08,-0.09 h 0.11 0.13 c 4.72,-0.72 8.58,-1.15 8.61,-0.96 z"
               style="fill:#936457"
               id="path21410" />
            <polygon
               points="270.11,384.3 289.66,379.01 286.87,354.83 264.45,361.11 "
               style="fill:#c69481"
               id="polygon21412" />
            <path
               d="m 289.91,379 3.79,28.18 9.43,21.43 a 2.91,2.91 0 0 1 -1.68,3.91 v 0 a 2.91,2.91 0 0 1 -2.65,-0.34 c -4.93,-3.44 -23,-16.16 -23.19,-18.24 -0.19,-2.41 -6,-29.46 -6,-29.46 z"
               style="fill:#966161"
               id="path21414" />
            <g
               style="opacity:0.6"
               id="g21418">
              <path
                 d="M 301.45,432.47 275.31,412 l 0.19,1.19 a 4.36,4.36 0 0 0 1.47,2.64 c 2.12,1.82 8.06,6.7 21.75,16.31 a 2.89,2.89 0 0 0 2.73,0.33 z"
                 style="fill:#ffffff"
                 id="path21416" />
            </g>
            <g
               style="opacity:0.6"
               id="g21422">
              <path
                 d="m 279.65,402 a 1.76,1.76 0 0 1 0.83,2.2 1.69,1.69 0 0 1 -2.17,0.85 1.85,1.85 0 0 1 -0.87,-2.33 1.75,1.75 0 0 1 2.35,-0.63"
                 style="fill:#ffffff"
                 id="path21420" />
            </g>
            <path
               d="m 293.09,421.21 a 8.71,8.71 0 0 1 2.12,-2.57 c 1.51,-1.1 3.13,-0.95 3.14,-1.13 0.01,-0.18 -0.38,-0.24 -1.05,-0.22 a 4.42,4.42 0 0 0 -2.45,0.84 4.51,4.51 0 0 0 -1.62,2 c -0.23,0.65 -0.23,1.07 -0.14,1.08 z"
               style="fill:#263238"
               id="path21424" />
            <path
               d="m 295.69,424.66 c 0.15,0.1 0.91,-1 2.29,-1.6 a 23.11,23.11 0 0 1 2.69,-0.79 c 0.06,-0.16 -1.39,-0.54 -3,0.22 -1.61,0.76 -2.14,2.12 -1.98,2.17 z"
               style="fill:#263238"
               id="path21426" />
            <path
               d="m 288.61,417 c 0.15,0.11 1.31,-1.52 3.37,-2.71 2.06,-1.19 4,-1.44 4,-1.63 0,-0.19 -2.13,-0.22 -4.33,1.09 -2.2,1.31 -3.19,3.17 -3.04,3.25 z"
               style="fill:#263238"
               id="path21428" />
            <path
               d="m 286.74,408.51 c 0.1,0.15 1.55,-0.74 3.56,-1.13 2.01,-0.39 3.68,-0.16 3.71,-0.34 0.03,-0.18 -1.68,-0.72 -3.84,-0.27 -2.16,0.45 -3.54,1.62 -3.43,1.74 z"
               style="fill:#263238"
               id="path21430" />
            <path
               d="m 285.41,400.26 c 0.12,0.15 1.53,-1 3.68,-1.27 2.15,-0.27 3.8,0.52 3.87,0.35 0.07,-0.17 -0.33,-0.37 -1,-0.65 a 6.3,6.3 0 0 0 -2.92,-0.32 6.19,6.19 0 0 0 -2.75,1 c -0.65,0.45 -0.93,0.84 -0.88,0.89 z"
               style="fill:#263238"
               id="path21432" />
            <path
               d="m 288.79,397.43 a 2.37,2.37 0 0 0 -0.13,-1.07 7.45,7.45 0 0 0 -1.28,-2.65 3.33,3.33 0 0 0 -1.65,-1.34 1.18,1.18 0 0 0 -1.27,0.46 1.93,1.93 0 0 0 -0.24,1.34 4.11,4.11 0 0 0 4.16,3.2 4.76,4.76 0 0 0 4.24,-3.2 1.63,1.63 0 0 0 -0.13,-1.37 1.16,1.16 0 0 0 -1.29,-0.42 4,4 0 0 0 -1.69,1.26 8.33,8.33 0 0 0 -1.58,2.48 2.5,2.5 0 0 0 -0.27,1 13.28,13.28 0 0 1 2.17,-3.22 3.75,3.75 0 0 1 1.5,-1.05 0.6,0.6 0 0 1 0.7,0.22 1.1,1.1 0 0 1 0,0.9 4.27,4.27 0 0 1 -3.71,2.74 3.57,3.57 0 0 1 -3.57,-2.67 1.38,1.38 0 0 1 0.13,-0.94 0.64,0.64 0 0 1 0.69,-0.27 3.08,3.08 0 0 1 1.43,1.17 11,11 0 0 1 1.79,3.43 z"
               style="fill:#263238"
               id="path21434" />
            <path
               d="m 237.8,240.52 -0.41,6.1 c 0,0 -5.15,9.75 -5.62,18.49 -0.28,5.07 -0.39,12.55 -0.44,17.93 a 22.67,22.67 0 0 0 3.46,12.25 l 10.32,16.55 -1.42,18.69 18.71,37.47 27.69,-7 -3.28,-69.15 -11.14,-36.52 -2.12,-17.33 z"
               style="fill:#263238"
               id="path21436" />
            <path
               d="m 293.58,236.72 0.49,7.95 c 0,0 22.24,-47.36 52.58,-53.2 19.71,-3.8 27.48,17.69 20.56,34.75 -4.16,10.27 -21.44,29.93 -21.46,30.38 -0.55,10.55 -11.29,9 -11.29,9 0,0 -13.46,21.25 -17.46,25.4 -2.74,2.85 -31.65,1.83 -31.65,1.83 l -9.09,-18.79 -3.66,-36 z"
               style="fill:#263238"
               id="path21438" />
            <path
               d="m 255.13,286.37 a 8.83,8.83 0 0 1 -0.52,1.71 c -0.41,1.2 -0.93,2.74 -1.57,4.58 -1.31,3.87 -3,9.25 -4.68,15.27 -1.68,6.02 -2.88,11.53 -3.71,15.53 -0.39,1.91 -0.71,3.51 -1,4.75 a 8.05,8.05 0 0 1 -0.42,1.73 9.66,9.66 0 0 1 0.18,-1.78 c 0.14,-1.13 0.4,-2.77 0.76,-4.79 0.72,-4 1.9,-9.57 3.54,-15.61 1.64,-6.04 3.44,-11.41 4.87,-15.25 0.71,-1.92 1.32,-3.47 1.77,-4.52 a 9.49,9.49 0 0 1 0.78,-1.62 z"
               style="fill:#455a64"
               id="path21440" />
            <path
               d="m 248.23,278.91 a 38.46,38.46 0 0 1 -0.44,4.5 c -0.32,2.78 -0.69,6.61 -0.9,10.86 -0.21,4.25 -0.21,8.11 -0.16,10.9 a 38.26,38.26 0 0 1 0,4.52 4.71,4.71 0 0 1 -0.2,-1.2 c -0.09,-0.78 -0.18,-1.91 -0.26,-3.31 a 106,106 0 0 1 0,-10.94 107.75,107.75 0 0 1 1.08,-10.89 c 0.22,-1.38 0.42,-2.5 0.59,-3.26 a 4.66,4.66 0 0 1 0.29,-1.18 z"
               style="fill:#455a64"
               id="path21442" />
            <path
               d="m 290.09,359.53 a 2.48,2.48 0 0 1 0,-0.34 c 0,-0.26 0,-0.58 -0.08,-1 0,-0.91 -0.14,-2.18 -0.24,-3.8 -0.19,-3.35 -0.45,-8.11 -0.78,-14 -0.6,-11.85 -1.43,-28.15 -2.33,-46.15 -0.29,-4.5 -0.19,-8.94 -1.14,-13 A 36.61,36.61 0 0 0 280.9,270 a 34.65,34.65 0 0 0 -15.24,-13.43 36.86,36.86 0 0 0 -13.45,-3.3 c -1.64,-0.07 -2.92,0 -3.79,0 l -1,0.05 h -0.34 a 26.67,26.67 0 0 1 5.13,-0.3 35.86,35.86 0 0 1 13.63,3.13 35.38,35.38 0 0 1 8.25,5.12 35.91,35.91 0 0 1 7.31,8.42 36.93,36.93 0 0 1 4.68,11.39 c 1,4.21 0.87,8.67 1.16,13.15 0.84,18 1.6,34.3 2.15,46.16 0.24,5.87 0.43,10.64 0.57,14 0,1.62 0.1,2.89 0.13,3.81 0,0.4 0,0.73 0,1 0,0.27 0.02,0.33 0,0.33 z"
               style="fill:#455a64"
               id="path21444" />
            <path
               d="m 277.42,261.13 c -0.13,-0.12 2.52,-3.55 5.92,-7.67 3.4,-4.12 6.28,-7.37 6.42,-7.26 0.14,0.11 -2.51,3.55 -5.92,7.67 -3.41,4.12 -6.28,7.37 -6.42,7.26 z"
               style="fill:#455a64"
               id="path21446" />
            <path
               d="m 321.72,233.07 a 123.24,123.24 0 0 1 8.62,-12.31 31,31 0 0 1 4.12,-4.61 56,56 0 0 1 -3.59,5.07 c -2.25,3.09 -5.29,7.42 -8.35,12.41 -3.06,4.99 -5.94,9.56 -6.47,13.38 a 12.75,12.75 0 0 0 0.58,6.12 3.39,3.39 0 0 1 -0.81,-1.51 10.63,10.63 0 0 1 -0.43,-4.71 19.48,19.48 0 0 1 2.2,-6.6"
               style="fill:#455a64"
               id="path21448" />
            <path
               d="m 337.16,210 c 0.14,0.13 -0.94,1.48 -1.61,3.45 -0.67,1.97 -0.69,3.69 -0.89,3.7 -0.2,0.01 -0.47,-1.81 0.28,-3.91 0.75,-2.1 2.11,-3.34 2.22,-3.24 z"
               style="fill:#455a64"
               id="path21450" />
            <path
               d="m 274.49,310.24 c -0.16,-0.08 1.23,-3.33 3.11,-7.26 1.88,-3.93 3.54,-7.05 3.7,-7 0.16,0.05 -1.23,3.32 -3.11,7.25 -1.88,3.93 -3.54,7.08 -3.7,7.01 z"
               style="fill:#455a64"
               id="path21452" />
            <path
               d="m 258.82,299.49 c 0.17,-0.06 0.88,1.45 1.59,3.38 0.71,1.93 1.14,3.54 1,3.6 -0.14,0.06 -0.88,-1.45 -1.58,-3.38 -0.7,-1.93 -1.18,-3.53 -1.01,-3.6 z"
               style="fill:#455a64"
               id="path21454" />
            <path
               d="m 222.85,173.14 c 1.6,-13.84 10.48,-16.94 10.48,-16.94 l 1.3,81.77 -10.2,42.23 a 9.46,9.46 0 0 1 -12,6.83 l -20.66,-6.28 c 0,0 29.49,-93.75 31.08,-107.61 z"
               style="fill:#966161"
               id="path21456" />
            <path
               d="m 309.07,166 c 0,0 5.11,11.63 5.11,17.75 0,6.12 6.12,45.77 0,54.17 -6.12,8.4 -18.18,8.08 -21.57,7.83 -4.67,-0.39 -26.45,-40.67 -25.56,-41.19 l 12.25,-2.66 c 0,0 8.58,0.53 12.67,4 4.09,3.47 8.09,-0.53 8.09,-0.53 l 8.65,-37.17"
               style="fill:#966161"
               id="path21458" />
            <path
               d="m 292,156.2 c 0,0 14,4.8 17.07,9.8 3.07,5 -14.59,70.42 -14.59,70.42 l -56.68,4.06 c 0,0 -4.47,-0.81 -5.69,-4.87 -1.22,-4.06 1.22,-79.45 1.22,-79.45 l 15.77,-5.58 c 0,0 6.78,7 11.66,8.43 4.88,1.43 31.24,-2.81 31.24,-2.81 z"
               style="fill:#966161"
               id="path21460" />
            <path
               d="m 236.88,174.15 a 2.94,2.94 0 0 1 0.06,0.67 c 0,0.52 0,1.16 0.06,1.93 0,1.68 0,4.11 0,7.11 a 233.32,233.32 0 0 1 -1.74,23.37 c -0.57,4.54 -1.25,8.86 -1.95,12.76 -0.7,3.9 -1.46,7.39 -1.38,10.37 a 14.45,14.45 0 0 0 1.62,6.75 19.53,19.53 0 0 0 1.46,2.13 c 0,0 -0.2,-0.13 -0.51,-0.45 a 9.25,9.25 0 0 1 -1.17,-1.56 14.17,14.17 0 0 1 -1.86,-6.86 c -0.14,-3 0.57,-6.6 1.25,-10.48 0.68,-3.88 1.33,-8.21 1.89,-12.74 1.14,-9.06 1.69,-17.32 1.94,-23.31 0.1,-2.92 0.18,-5.32 0.24,-7.09 0,-0.77 0,-1.41 0.06,-1.93 a 2.09,2.09 0 0 1 0.03,-0.67 z"
               style="fill:#263238"
               id="path21462" />
            <path
               d="m 292,209.16 a 25,25 0 0 0 -2,-2.38 10.07,10.07 0 0 0 -2.69,-1.86 13,13 0 0 0 -3.89,-1 15.86,15.86 0 0 0 -7.29,0.42 6.25,6.25 0 0 0 -1.91,1.08 c -0.37,0.38 -0.59,0.58 -0.63,0.56 -0.04,-0.02 0.12,-0.29 0.45,-0.73 a 5.47,5.47 0 0 1 1.92,-1.34 14.72,14.72 0 0 1 7.55,-0.63 12.86,12.86 0 0 1 4.06,1.13 9.58,9.58 0 0 1 2.76,2.08 8.22,8.22 0 0 1 1.33,1.9 c 0.27,0.46 0.34,0.75 0.34,0.77 z"
               style="fill:#263238"
               id="path21464" />
            <path
               d="m 277.24,221.65 c 0.1,0 0.55,1.53 1.59,3.93 a 73.75,73.75 0 0 0 4.79,9 71.8,71.8 0 0 0 5.93,8.31 19.3,19.3 0 0 0 2.14,2.21 6.17,6.17 0 0 0 0.92,0.63 c 0,0 -0.46,0 -1.08,-0.43 a 14.76,14.76 0 0 1 -2.32,-2.11 60.9,60.9 0 0 1 -10.8,-17.46 30.49,30.49 0 0 1 -1,-3 4.09,4.09 0 0 1 -0.17,-1.08 z"
               style="fill:#263238"
               id="path21466" />
            <path
               d="m 298.84,172.53 c -0.14,-0.09 1.15,-2.13 3.28,-4.2 2.13,-2.07 4.19,-3.32 4.28,-3.18 0.09,0.14 -1.76,1.61 -3.83,3.64 -2.07,2.03 -3.57,3.86 -3.73,3.74 z"
               style="fill:#263238"
               id="path21468" />
            <path
               d="m 231.38,158.33 c 0.09,-0.14 2.38,1.27 4.44,3.82 2.06,2.55 3,5.06 2.84,5.12 -0.16,0.06 -1.33,-2.26 -3.35,-4.71 -2.02,-2.45 -4.04,-4.08 -3.93,-4.23 z"
               style="fill:#263238"
               id="path21470" />
            <path
               d="m 283.91,230.22 a 15.9,15.9 0 0 1 -2,-3.21 46.07,46.07 0 0 1 -5,-17.38 15.09,15.09 0 0 1 0,-3.77 35.41,35.41 0 0 1 0.48,3.72 59.43,59.43 0 0 0 1.79,8.81 60.45,60.45 0 0 0 3.14,8.42 33.25,33.25 0 0 1 1.59,3.41 z"
               style="fill:#263238"
               id="path21472" />
            <path
               d="m 305,213.25 a 20.36,20.36 0 0 1 -2.1,-2 49.94,49.94 0 0 0 -5.32,-4.57 18.3,18.3 0 0 0 -3.22,-2 4.19,4.19 0 0 0 -2.91,-0.31 3.21,3.21 0 0 0 -1.64,1.12 c -0.27,0.4 -0.33,0.68 -0.38,0.67 -0.05,-0.01 -0.06,-0.31 0.17,-0.79 a 3,3 0 0 1 1.7,-1.43 4.48,4.48 0 0 1 3.29,0.19 16.77,16.77 0 0 1 3.37,2.06 34.6,34.6 0 0 1 5.27,4.78 9.74,9.74 0 0 1 1.77,2.28 z"
               style="fill:#263238"
               id="path21474" />
            <g
               style="opacity:0.3"
               id="g21478">
              <path
                 d="m 278.55,226.21 c -2.93,0.74 -5.9,-1 -8.92,-1.12 -2.74,-0.14 -5.36,1 -8,1.71 a 27.55,27.55 0 0 1 -17.43,-1.05 4.71,4.71 0 0 1 -1.76,-1.09 2.22,2.22 0 0 1 -0.33,-2.2 c 5.09,-0.05 10.17,0.17 15.27,0.12 a 5.83,5.83 0 0 0 3,-0.59 1.29,1.29 0 0 0 0.54,-0.56 c 0,0 3.05,-0.1 4.14,-0.11 2.45,0 5.28,0.19 7.73,0.18 1.07,0 4.51,0.15 4.43,0.15"
                 id="path21476" />
            </g>
            <g
               style="opacity:0.3"
               id="g21482">
              <path
                 d="m 295.33,204.39 a 23.65,23.65 0 0 1 11.67,5.74 3.84,3.84 0 0 1 0.93,1.12 1.4,1.4 0 0 1 0,1.39 1.45,1.45 0 0 1 -1.61,0.46 4.29,4.29 0 0 1 -1.51,-0.95 L 295.09,204"
                 id="path21480" />
            </g>
            <path
               d="m 298.05,176.35 a 23.17,23.17 0 0 1 0.09,4.15 c -0.05,2.55 -0.23,6.09 -0.6,10 -0.37,3.91 -0.86,7.4 -1.29,9.92 a 22,22 0 0 1 -0.86,4.05 30.47,30.47 0 0 1 0.41,-4.12 c 0.31,-2.53 0.73,-6 1.1,-9.91 0.37,-3.91 0.61,-7.39 0.78,-9.93 a 30.58,30.58 0 0 1 0.37,-4.16 z"
               style="fill:#263238"
               id="path21484" />
            <polygon
               points="260.94,221.43 253.89,204.37 247.96,191.59 227.57,190.31 226.85,191.5 242.31,221.28 "
               style="fill:#455a64"
               id="polygon21486" />
            <path
               d="m 253.17,205.56 -5.93,-12.79 -20.39,-1.28 14.74,31 16.53,0.12 a 3.93,3.93 0 0 0 2.67,-1 l 0.15,-0.14 z"
               style="fill:#455a64"
               id="path21488" />
            <path
               d="m 237.7,197.51 a 1,1 0 1 0 -0.06,-1.45 1,1 0 0 0 0.06,1.45 z"
               style="fill:#ebebeb"
               id="path21490" />
            <path
               d="m 277.06,206.21 -7.88,0.46 a 11.17,11.17 0 0 0 -8.45,-4.71 l -2.81,-0.18 -2.06,2 c 0,0 -13.83,-0.26 -14.44,1.41 v 0.55 0.32 l 11.75,1.53 c 0,0 -10,-0.66 -10.64,-0.68 -0.64,-0.02 -2.79,-0.34 -2.82,0.84 0,1 1.08,1.81 2.8,2.17 0.7,0.15 9.35,1.45 9.35,1.45 l -9.57,-0.69 c -1.07,-0.08 -1,1.65 -0.42,1.91 0.58,0.26 12.53,4.54 12.53,4.54 a 7.4,7.4 0 0 1 -3.82,1 c -1.68,-0.22 -4.43,-2.57 -5.09,-1.58 -0.66,0.99 -0.58,1.59 -0.24,1.85 a 44.44,44.44 0 0 0 5.48,3 c 1.3,0.44 14.66,-0.23 14.66,-0.23 l 13.95,0.48 z"
               style="fill:#c69481"
               id="path21492" />
            <path
               d="m 251.15,203.69 a 41.11,41.11 0 0 1 4.85,0.13 39,39 0 0 1 4.84,0.43 38.67,38.67 0 0 1 -4.85,-0.13 36.85,36.85 0 0 1 -4.84,-0.43 z"
               style="fill:#936457"
               id="path21494" />
            <path
               d="m 252,203.13 c 0,0 -0.14,-0.27 -0.37,-0.76 -0.23,-0.49 -0.59,-1.28 -1,-2.13 -0.86,-1.92 -2,-4.46 -3.32,-7.38 h 0.08 l -4.67,-0.3 -11.27,-0.75 -3.41,-0.25 -0.93,-0.08 h -0.32 0.32 0.93 l 3.42,0.19 11.27,0.69 4.67,0.31 h 0.06 v 0.05 l 3.26,7.41 0.93,2.15 c 0.29,0.57 0.35,0.85 0.35,0.85 z"
               style="fill:#263238"
               id="path21496" />
            <path
               d="m 330.81,271.42 -13.58,17.08 c 0,0 13.72,18.24 11.52,21.64 l -35,-23.85 20.07,-27.48 z"
               style="fill:#966161"
               id="path21498" />
            <g
               style="opacity:0.6"
               id="g21502">
              <path
                 d="m 307.78,279.25 a 1.72,1.72 0 0 0 -2.13,0.87 1.67,1.67 0 0 0 0.85,2.13 1.83,1.83 0 0 0 2.26,-0.95 1.73,1.73 0 0 0 -1.13,-2.11"
                 style="fill:#ffffff"
                 id="path21500" />
            </g>
            <g
               style="opacity:0.6"
               id="g21506">
              <path
                 d="m 293.76,286.29 2,-2.77 33,24.21 a 2.92,2.92 0 0 1 0,2.79 z"
                 style="fill:#ffffff"
                 id="path21504" />
            </g>
            <path
               d="m 317.91,288.73 c -0.13,0.16 -1,-0.38 -2.23,-0.45 -1.23,-0.07 -2.17,0.31 -2.27,0.13 -0.1,-0.18 0.85,-1 2.32,-0.84 1.47,0.16 2.33,1.03 2.18,1.16 z"
               style="fill:#263238"
               id="path21508" />
            <path
               d="m 320.39,292.84 c -0.08,0.19 -1,-0.06 -2.09,0.23 -1.09,0.29 -1.8,0.91 -2,0.78 -0.2,-0.13 0.43,-1.15 1.78,-1.48 1.35,-0.33 2.42,0.31 2.31,0.47 z"
               style="fill:#263238"
               id="path21510" />
            <path
               d="m 319.26,298.62 c -0.17,-0.08 0.21,-1.08 1.31,-1.68 1.1,-0.6 2.14,-0.38 2.11,-0.19 -0.03,0.19 -0.87,0.32 -1.77,0.83 -0.9,0.51 -1.47,1.14 -1.65,1.04 z"
               style="fill:#263238"
               id="path21512" />
            <path
               d="m 320.57,284.49 c -0.18,0.1 -0.77,-0.69 -1.76,-1.32 -0.99,-0.63 -1.94,-0.87 -1.92,-1.08 0.02,-0.21 1.16,-0.28 2.31,0.48 1.15,0.76 1.55,1.85 1.37,1.92 z"
               style="fill:#263238"
               id="path21514" />
            <path
               d="m 323.25,281 c -0.05,0.07 -0.79,-0.31 -1.7,-1.27 a 9.16,9.16 0 0 1 -1.38,-1.87 9.52,9.52 0 0 1 -0.6,-1.24 2.8,2.8 0 0 1 -0.22,-0.78 0.91,0.91 0 0 1 0.58,-0.94 1.13,1.13 0 0 1 1,0.16 2.34,2.34 0 0 1 0.57,0.56 7.31,7.31 0 0 1 0.79,1.14 7.4,7.4 0 0 1 0.82,2.2 3.52,3.52 0 0 1 0,2.12 c -0.12,0 -0.12,-0.8 -0.48,-2 a 8.22,8.22 0 0 0 -0.89,-2 7.68,7.68 0 0 0 -0.75,-1 c -0.29,-0.36 -0.6,-0.59 -0.81,-0.49 -0.21,0.1 -0.1,0.05 -0.1,0.22 a 2,2 0 0 0 0.16,0.57 9.77,9.77 0 0 0 0.52,1.18 12.94,12.94 0 0 0 1.18,1.85 c 0.77,0.98 1.38,1.5 1.31,1.59 z"
               style="fill:#263238"
               id="path21516" />
            <path
               d="m 322.85,281.08 a 3.5,3.5 0 0 1 0.77,-2 6.85,6.85 0 0 1 1.61,-1.7 7,7 0 0 1 1.2,-0.71 1.75,1.75 0 0 1 1.72,-0.06 1,1 0 0 1 0.37,1 3.09,3.09 0 0 1 -0.29,0.75 4.58,4.58 0 0 1 -0.85,1.15 4.86,4.86 0 0 1 -2,1.23 2.72,2.72 0 0 1 -2.13,0 19,19 0 0 0 2,-0.49 4.77,4.77 0 0 0 1.72,-1.21 4.26,4.26 0 0 0 0.7,-1 c 0.21,-0.41 0.29,-0.8 0.13,-0.86 a 1.19,1.19 0 0 0 -1,0.12 6.12,6.12 0 0 0 -1.1,0.61 7.61,7.61 0 0 0 -1.7,1.49 c -0.76,0.96 -1,1.72 -1.15,1.68 z"
               style="fill:#263238"
               id="path21518" />
            <polygon
               points="317.13,254.66 334.46,265.59 330.18,270.95 314.22,259.11 "
               style="fill:#c69481"
               id="polygon21520" />
          </g>
          <g
             id="freepik--speech-bubble--inject-133">
            <path
               d="m 219.85,135.07 -13.1,-5.17 a 32.86,32.86 0 1 1 7.56,-9 v 0 z"
               style="fill:#fafafa"
               id="path21523" />
            <path
               d="m 219.85,135.07 c -0.34,-0.92 -2,-5.28 -5.39,-14.24 l -0.08,-0.2 -0.15,0.15 v 0 l 0.22,0.16 a 32.55,32.55 0 0 0 4.39,-16.52 29,29 0 0 0 -0.46,-5.18 c -0.17,-0.88 -0.32,-1.78 -0.52,-2.68 -0.2,-0.9 -0.53,-1.78 -0.81,-2.69 A 33.14,33.14 0 0 0 201.15,75.38 32.65,32.65 0 0 0 187.81,71.66 33.54,33.54 0 0 0 173.39,74.08 32.35,32.35 0 0 0 161,83 a 33,33 0 0 0 -7.19,13.79 33.5,33.5 0 0 0 -0.18,14.9 32.4,32.4 0 0 0 5.85,12.83 33.32,33.32 0 0 0 21.17,12.75 35.59,35.59 0 0 0 10.78,-0.09 32.59,32.59 0 0 0 15.41,-7.18 h -0.14 l 13.15,5 -13,-5.3 h -0.07 l -0.06,0.05 a 32.63,32.63 0 0 1 -15.33,7 35.38,35.38 0 0 1 -10.64,0 33,33 0 0 1 -20.83,-12.63 31.82,31.82 0 0 1 -5.73,-12.63 33,33 0 0 1 0.19,-14.65 32.46,32.46 0 0 1 7.07,-13.57 31.84,31.84 0 0 1 12.18,-8.71 33,33 0 0 1 14.18,-2.4 32.33,32.33 0 0 1 13.13,3.65 32.75,32.75 0 0 1 15.68,18.19 l 0.8,2.65 c 0.21,0.88 0.35,1.77 0.53,2.64 a 29.23,29.23 0 0 1 0.48,5.12 32.52,32.52 0 0 1 -4.24,16.37 l -0.53,0.94 0.75,-0.77 v 0 h -0.23 z"
               style="fill:#263238"
               id="path21525" />
            <path
               d="M 181.15,100.71 H 183 L 187,95 v -3.7 c 0,0 2.86,-0.2 2.56,4.65 -0.3,4.85 0.06,3.62 0.06,3.62 0,0 6.09,0 6.6,0.5 0.51,0.5 0.58,6.43 0.67,9.71 a 3.54,3.54 0 0 1 -2.49,3.6 2.48,2.48 0 0 1 -0.65,0.09 c -1.52,0 -9.29,-1.16 -9.29,-1.16 h -3.21 z"
               style="fill:#966161"
               id="path21527" />
            <polygon
               points="180.15,99.96 175.83,99.74 177.07,112.42 180.25,112.39 "
               style="fill:#966161"
               id="polygon21529" />
          </g>
          <g
             id="freepik--Floor--inject-133">
            <path
               d="m 469.26,468.87 c 0,0.14 -97.05,0.26 -216.74,0.26 -119.69,0 -216.77,-0.13 -216.77,-0.26 0,-0.13 97,-0.26 216.77,-0.26 119.77,0 216.74,0.12 216.74,0.26 z"
               style="fill:#263238"
               id="path21532" />
          </g>
          <g
             id="freepik--Plant--inject-133">
            <path
               d="m 116.29,392.49 a 21.57,21.57 0 0 1 13.34,-1.62 c 2.43,0.4 5,1.13 6.6,2.95 1.6,1.82 2,5 0.07,6.58 a 6.31,6.31 0 0 1 -4.16,1.05 c -3.53,0 -7.44,-0.66 -10.26,1.46 -1.61,1.21 -2.68,3.23 -4.61,3.82 a 4.53,4.53 0 0 1 -5,-2.22 7.8,7.8 0 0 1 -0.56,-5.74 8.75,8.75 0 0 1 4.58,-6.28 z"
               style="fill:#966161"
               id="path21535" />
            <path
               d="m 107,374.54 c 2.48,3.54 7.3,2.37 9.54,0.21 2.24,-2.16 3.18,-5.3 4,-8.3 2,-6.83 4,-14 2.49,-21 a 11.64,11.64 0 0 0 -2.68,-5.7 6.09,6.09 0 0 0 -5.76,-1.92 c -2.44,0.65 -4,3 -5,5.29 a 50.11,50.11 0 0 0 -4.94,21.45 c 0,3.45 0.4,7.08 2.35,9.93"
               style="fill:#966161"
               id="path21537" />
            <path
               d="m 100.17,379.63 c 2.69,-3.2 3.21,-7.87 2,-11.88 a 22.92,22.92 0 0 0 -7,-10.2 37.91,37.91 0 0 0 -12.59,-7.43 13.47,13.47 0 0 0 -5.66,-1 6,6 0 0 0 -4.78,2.88 c -1.33,2.52 -0.06,5.59 1.32,8.09 a 96.27,96.27 0 0 0 8.27,12.6 c 2.48,3.19 5.32,6.34 9.09,7.79 3.77,1.45 7.71,1.27 9.71,-1.35"
               style="fill:#966161"
               id="path21539" />
            <path
               d="m 106.82,428 a 8.17,8.17 0 0 0 0.22,-1.61 c 0.12,-1.17 0.26,-2.64 0.43,-4.39 0.17,-1.75 0.48,-4.06 1,-6.45 a 49.33,49.33 0 0 1 2.33,-7.55 28.19,28.19 0 0 1 3.89,-6.88 14.55,14.55 0 0 1 4.91,-4.12 14,14 0 0 1 4.14,-1.29 7.14,7.14 0 0 0 1.61,-0.23 7.42,7.42 0 0 0 -1.64,0 12.48,12.48 0 0 0 -4.31,1.12 14.4,14.4 0 0 0 -5.18,4.12 27.17,27.17 0 0 0 -4,7 46.28,46.28 0 0 0 -2.33,7.73 A 55.1,55.1 0 0 0 107,422 c -0.14,1.87 -0.19,3.38 -0.22,4.43 a 7.07,7.07 0 0 0 0.04,1.57 z"
               style="fill:#263238"
               id="path21541" />
            <path
               d="m 107.12,424.64 a 3.13,3.13 0 0 0 0,-0.75 v -2.14 c 0,-1.85 0,-4.54 0.09,-7.85 0.17,-6.63 0.74,-13.77 1.84,-23.83 1,-9.46 2.45,-20.47 3.93,-27.63 0.31,-1.62 0.63,-3.09 0.93,-4.37 0.3,-1.28 0.54,-2.4 0.77,-3.29 0.23,-0.89 0.37,-1.53 0.5,-2.08 a 3.1,3.1 0 0 0 0.13,-0.74 3.75,3.75 0 0 0 -0.26,0.7 c -0.16,0.54 -0.37,1.22 -0.62,2 -0.25,0.78 -0.56,2 -0.88,3.27 -0.32,1.27 -0.69,2.74 -1,4.37 a 239.75,239.75 0 0 0 -4.12,25.7 c -1.1,10.08 -1.6,19.26 -1.65,25.91 0,3.32 0,6 0.12,7.87 0,0.87 0.1,1.58 0.13,2.14 a 3.58,3.58 0 0 0 0.09,0.72 z"
               style="fill:#263238"
               id="path21543" />
            <path
               d="m 107.17,406.94 a 16.71,16.71 0 0 0 0,-2.24 c -0.08,-1.43 -0.28,-3.51 -0.68,-6.05 a 80.47,80.47 0 0 0 -2,-8.81 72.49,72.49 0 0 0 -3.69,-10.43 55.58,55.58 0 0 0 -10.8,-16.86 29.41,29.41 0 0 0 -2.55,-2.37 c -0.39,-0.33 -0.74,-0.66 -1.09,-0.92 l -1,-0.68 a 13.8,13.8 0 0 0 -1.88,-1.2 63.18,63.18 0 0 1 6.17,5.5 58.52,58.52 0 0 1 10.55,16.79 82.91,82.91 0 0 1 3.71,10.33 86.48,86.48 0 0 1 2.09,8.72 c 0.46,2.52 0.73,4.57 0.89,6 a 13,13 0 0 0 0.28,2.22 z"
               style="fill:#263238"
               id="path21545" />
            <polygon
               points="124.83,438.17 90.05,438.17 91.83,462.47 123.05,462.47 "
               style="fill:#263238"
               id="polygon21547" />
            <rect
               x="87.040001"
               y="428.59"
               width="41.509998"
               height="9.5799999"
               style="fill:#263238"
               id="rect21549" />
            <polygon
               points="88.99,464.2 127.86,464.2 127.86,461.54 87.04,461.54 87.04,464.2 "
               style="fill:#455a64"
               id="polygon21551" />
            <polygon
               points="124.15,468.87 90.9,468.87 88.99,464.2 126.38,464.2 "
               style="fill:#455a64"
               id="polygon21553" />
            <path
               d="m 124.24,446.11 c 0,0 0,0.08 -0.14,0.22 -0.14,0.14 -0.28,0.37 -0.47,0.62 l -1.82,2.33 -0.08,0.1 -0.08,-0.1 -4.46,-6.19 h 0.25 l -4.4,6.23 -0.13,0.2 -0.16,-0.18 c -1.62,-1.94 -3.39,-4 -5.22,-6.21 h 0.3 l -0.28,0.36 -4.67,5.85 -0.15,0.2 -0.15,-0.2 C 101,447.09 99.52,445 98.18,443.11 h 0.26 l -5.44,6.18 -0.1,0.11 -0.07,-0.13 -1.7,-2.85 -0.44,-0.76 a 1.13,1.13 0 0 1 -0.13,-0.27 1.47,1.47 0 0 1 0.18,0.24 c 0.13,0.19 0.29,0.43 0.48,0.73 l 1.79,2.8 h -0.17 l 5.33,-6.25 0.13,-0.16 0.13,0.17 4.44,6.2 h -0.3 l 4.65,-5.86 0.29,-0.36 0.15,-0.18 0.15,0.18 c 1.83,2.18 3.59,4.28 5.2,6.22 h -0.29 c 1.61,-2.24 3.1,-4.33 4.45,-6.2 l 0.13,-0.18 0.12,0.18 4.38,6.25 h -0.16 l 1.89,-2.26 0.51,-0.59 a 1,1 0 0 1 0.2,-0.21 z"
               style="fill:#e0e0e0"
               id="path21555" />
            <path
               d="m 125.26,438 c 0,0.1 -7.82,0.19 -17.47,0.19 -9.65,0 -17.48,-0.09 -17.48,-0.19 0,-0.1 7.82,-0.2 17.48,-0.2 9.66,0 17.47,0.1 17.47,0.2 z"
               style="fill:#455a64"
               id="path21557" />
            <path
               d="m 126.84,464.46 c 0,0.11 -8.51,0.19 -19,0.19 -10.49,0 -19,-0.08 -19,-0.19 0,-0.11 8.5,-0.2 19,-0.2 10.5,0 19,0.09 19,0.2 z"
               style="fill:#263238"
               id="path21559" />
          </g>
        </g>
      </g>
    </g>
  </g>
</svg>
