<?xml version="1.0" encoding="UTF-8" standalone="no"?>
<svg
   xmlns:dc="http://purl.org/dc/elements/1.1/"
   xmlns:cc="http://creativecommons.org/ns#"
   xmlns:rdf="http://www.w3.org/1999/02/22-rdf-syntax-ns#"
   xmlns:svg="http://www.w3.org/2000/svg"
   xmlns="http://www.w3.org/2000/svg"
   xmlns:xlink="http://www.w3.org/1999/xlink"
   xmlns:sodipodi="http://sodipodi.sourceforge.net/DTD/sodipodi-0.dtd"
   xmlns:inkscape="http://www.inkscape.org/namespaces/inkscape"
   style="enable-background:new"
   id="svg8"
   version="1.1"
   viewBox="0 0 198.3232 248.3612"
   height="9.7779999in"
   width="7.8080001in"
   sodipodi:docname="nfccard-feature3.svg"
   inkscape:version="0.92.5 (2060ec1f9f, 2020-04-08)">
  <sodipodi:namedview
     pagecolor="#ffffff"
     bordercolor="#666666"
     borderopacity="1"
     objecttolerance="10"
     gridtolerance="10"
     guidetolerance="10"
     inkscape:pageopacity="0"
     inkscape:pageshadow="2"
     inkscape:window-width="885"
     inkscape:window-height="480"
     id="namedview19115"
     showgrid="false"
     inkscape:zoom="0.25141474"
     inkscape:cx="247.82559"
     inkscape:cy="469.34399"
     inkscape:window-x="0"
     inkscape:window-y="27"
     inkscape:window-maximized="0"
     inkscape:current-layer="svg8" />
  <defs
     id="defs2">
    <linearGradient
       id="linearGradient11062">
      <stop
         id="stop11058"
         offset="0"
         style="stop-color:#0c0d12;stop-opacity:1" />
      <stop
         id="stop11060"
         offset="1"
         style="stop-color:#272b2f;stop-opacity:1" />
    </linearGradient>
    <clipPath
       clipPathUnits="userSpaceOnUse"
       id="clipPath5315">
      <rect
         style="opacity:1;fill:#cababa;fill-opacity:0.66037741;stroke:none;stroke-width:0.23566131;stroke-miterlimit:4;stroke-dasharray:none;stroke-dashoffset:39.22031021;stroke-opacity:1"
         id="rect5317"
         width="203.19998"
         height="292.10001"
         x="1274.9778"
         y="361.77451" />
    </clipPath>
    <clipPath
       clipPathUnits="userSpaceOnUse"
       id="clipPath5734">
      <rect
         style="opacity:1;fill:#cababa;fill-opacity:0.66037741;stroke:none;stroke-width:0.23566131;stroke-miterlimit:4;stroke-dasharray:none;stroke-dashoffset:39.22031021;stroke-opacity:1"
         id="rect5736"
         width="203.19998"
         height="292.09998"
         x="1071.7778"
         y="361.77451" />
    </clipPath>
    <clipPath
       clipPathUnits="userSpaceOnUse"
       id="clipPath10302">
      <rect
         style="opacity:1;fill:#00495a;fill-opacity:0.94117647;stroke:none;stroke-width:0.73812002;stroke-miterlimit:4;stroke-dasharray:none;stroke-dashoffset:39.22031021;stroke-opacity:1"
         id="rect10304"
         width="225.71364"
         height="292.10001"
         x="1068.3546"
         y="328.10712" />
    </clipPath>
    <clipPath
       clipPathUnits="userSpaceOnUse"
       id="clipPath10923">
      <rect
         style="opacity:1;fill:#00495a;fill-opacity:0.94117647;stroke:none;stroke-width:0.70602781;stroke-miterlimit:4;stroke-dasharray:none;stroke-dashoffset:39.22031021;stroke-opacity:1"
         id="rect10925"
         width="215.89999"
         height="279.39999"
         x="1286"
         y="340.80713" />
    </clipPath>
    <clipPath
       clipPathUnits="userSpaceOnUse"
       id="clipPath10927">
      <rect
         style="opacity:1;fill:#00495a;fill-opacity:0.94117647;stroke:none;stroke-width:0.73812002;stroke-miterlimit:4;stroke-dasharray:none;stroke-dashoffset:39.22031021;stroke-opacity:1"
         id="rect10929"
         width="225.71364"
         height="292.10001"
         x="1294.0682"
         y="328.10712" />
    </clipPath>
    <clipPath
       clipPathUnits="userSpaceOnUse"
       id="clipPath10302-3">
      <rect
         style="opacity:1;fill:#00495a;fill-opacity:0.94117647;stroke:none;stroke-width:0.73812002;stroke-miterlimit:4;stroke-dasharray:none;stroke-dashoffset:39.22031021;stroke-opacity:1"
         id="rect10304-1"
         width="225.71364"
         height="292.10001"
         x="1068.3546"
         y="328.10712" />
    </clipPath>
    <clipPath
       clipPathUnits="userSpaceOnUse"
       id="clipPath10302-31">
      <rect
         style="opacity:1;fill:#00495a;fill-opacity:0.94117647;stroke:none;stroke-width:0.73812002;stroke-miterlimit:4;stroke-dasharray:none;stroke-dashoffset:39.22031021;stroke-opacity:1"
         id="rect10304-8"
         width="225.71364"
         height="292.10001"
         x="1068.3546"
         y="328.10712" />
    </clipPath>
    <linearGradient
       gradientTransform="translate(-62.560459,-47.1052)"
       gradientUnits="userSpaceOnUse"
       y2="453.12543"
       x2="-331.7717"
       y1="394.05887"
       x1="-368.22598"
       id="linearGradient11064"
       xlink:href="#linearGradient11062" />
    <filter
       id="filter11528"
       style="color-interpolation-filters:sRGB">
      <feFlood
         id="feFlood11518"
         result="flood"
         flood-color="rgb(0,0,0)"
         flood-opacity="1" />
      <feComposite
         id="feComposite11520"
         result="composite1"
         operator="in"
         in2="SourceGraphic"
         in="flood" />
      <feGaussianBlur
         id="feGaussianBlur11522"
         result="blur"
         stdDeviation="0.8"
         in="composite1" />
      <feOffset
         id="feOffset11524"
         result="offset"
         dy="0.6"
         dx="-0.4" />
      <feComposite
         id="feComposite11526"
         result="composite2"
         operator="over"
         in2="offset"
         in="SourceGraphic" />
    </filter>
    <clipPath
       id="clipPath11736"
       clipPathUnits="userSpaceOnUse">
      <rect
         ry="1.5119048"
         rx="2.5000002"
         y="291.1712"
         x="-687.23627"
         height="133.88718"
         width="182.94048"
         id="rect11738"
         style="opacity:1;fill:#f5f5f5;fill-opacity:0.96078431;stroke:none;stroke-width:4.71460152;stroke-miterlimit:4;stroke-dasharray:none;stroke-dashoffset:39.22031021;stroke-opacity:1" />
    </clipPath>
    <clipPath
       id="clipPath11740"
       clipPathUnits="userSpaceOnUse">
      <rect
         ry="1.5119048"
         rx="2.5000002"
         y="291.1712"
         x="-687.23627"
         height="133.88718"
         width="182.94048"
         id="rect11742"
         style="opacity:1;fill:#f5f5f5;fill-opacity:0.96078431;stroke:none;stroke-width:4.71460152;stroke-miterlimit:4;stroke-dasharray:none;stroke-dashoffset:39.22031021;stroke-opacity:1" />
    </clipPath>
    <clipPath
       id="clipPath11744"
       clipPathUnits="userSpaceOnUse">
      <rect
         ry="1.5119048"
         rx="2.5000002"
         y="291.1712"
         x="-687.23627"
         height="133.88718"
         width="182.94048"
         id="rect11746"
         style="opacity:1;fill:#f5f5f5;fill-opacity:0.96078431;stroke:none;stroke-width:4.71460152;stroke-miterlimit:4;stroke-dasharray:none;stroke-dashoffset:39.22031021;stroke-opacity:1" />
    </clipPath>
    <clipPath
       id="clipPath11748"
       clipPathUnits="userSpaceOnUse">
      <rect
         ry="1.5119048"
         rx="2.5000002"
         y="307.74191"
         x="-343.5304"
         height="68.399162"
         width="93.459106"
         id="rect11750"
         style="opacity:1;fill:#f5f5f5;fill-opacity:0.96078431;stroke:none;stroke-width:2.40855622;stroke-miterlimit:4;stroke-dasharray:none;stroke-dashoffset:39.22031021;stroke-opacity:1" />
    </clipPath>
    <clipPath
       id="clipPath11748-1"
       clipPathUnits="userSpaceOnUse">
      <rect
         ry="1.5119048"
         rx="2.5000002"
         y="307.74191"
         x="-343.5304"
         height="68.399162"
         width="93.459106"
         id="rect11750-7"
         style="opacity:1;fill:#f5f5f5;fill-opacity:0.96078431;stroke:none;stroke-width:2.40855622;stroke-miterlimit:4;stroke-dasharray:none;stroke-dashoffset:39.22031021;stroke-opacity:1" />
    </clipPath>
    <clipPath
       id="clipPath11744-8"
       clipPathUnits="userSpaceOnUse">
      <rect
         ry="1.5119048"
         rx="2.5000002"
         y="291.1712"
         x="-687.23627"
         height="133.88718"
         width="182.94048"
         id="rect11746-5"
         style="opacity:1;fill:#f5f5f5;fill-opacity:0.96078431;stroke:none;stroke-width:4.71460152;stroke-miterlimit:4;stroke-dasharray:none;stroke-dashoffset:39.22031021;stroke-opacity:1" />
    </clipPath>
    <clipPath
       id="clipPath11740-1"
       clipPathUnits="userSpaceOnUse">
      <rect
         ry="1.5119048"
         rx="2.5000002"
         y="291.1712"
         x="-687.23627"
         height="133.88718"
         width="182.94048"
         id="rect11742-8"
         style="opacity:1;fill:#f5f5f5;fill-opacity:0.96078431;stroke:none;stroke-width:4.71460152;stroke-miterlimit:4;stroke-dasharray:none;stroke-dashoffset:39.22031021;stroke-opacity:1" />
    </clipPath>
    <clipPath
       id="clipPath11736-5"
       clipPathUnits="userSpaceOnUse">
      <rect
         ry="1.5119048"
         rx="2.5000002"
         y="291.1712"
         x="-687.23627"
         height="133.88718"
         width="182.94048"
         id="rect11738-9"
         style="opacity:1;fill:#f5f5f5;fill-opacity:0.96078431;stroke:none;stroke-width:4.71460152;stroke-miterlimit:4;stroke-dasharray:none;stroke-dashoffset:39.22031021;stroke-opacity:1" />
    </clipPath>
    <filter
       id="filter2222"
       style="color-interpolation-filters:sRGB">
      <feColorMatrix
         result="fbSourceGraphic"
         id="feColorMatrix2220"
         values="1 -2.77556e-17 -2.77556e-17 0 0 -2.77556e-17 1 -2.77556e-17 0 0 -2.77556e-17 -2.77556e-17 1 0 0 0 0 0 1 0 " />
      <feColorMatrix
         id="feColorMatrix3104"
         values="0 0 0 -1 0 0 0 0 -1 0 0 0 0 -1 0 0 0 0 1 0"
         in="fbSourceGraphic"
         result="fbSourceGraphicAlpha" />
      <feColorMatrix
         in="fbSourceGraphic"
         values="1.4 -0.2 -0.2 0 0 -0.2 1.4 -0.2 0 0 -0.2 -0.2 1.4 0 0 0 0 0 1 0 "
         id="feColorMatrix3106" />
    </filter>
    <clipPath
       id="clipPath3286"
       clipPathUnits="userSpaceOnUse">
      <rect
         transform="rotate(0.8565307)"
         ry="2.0000012"
         rx="2.0000012"
         y="659.26459"
         x="850.31317"
         height="15.84168"
         width="35.579533"
         id="rect3288"
         style="opacity:0.64099995;fill:#fbfbfb;fill-opacity:1;stroke:none;stroke-width:0.65540189;stroke-miterlimit:4;stroke-dasharray:none;stroke-dashoffset:39.22031021;stroke-opacity:1" />
    </clipPath>
    <filter
       id="filter2222-9"
       style="color-interpolation-filters:sRGB">
      <feColorMatrix
         result="fbSourceGraphic"
         id="feColorMatrix2220-4"
         values="1 -2.77556e-17 -2.77556e-17 0 0 -2.77556e-17 1 -2.77556e-17 0 0 -2.77556e-17 -2.77556e-17 1 0 0 0 0 0 1 0 " />
      <feColorMatrix
         id="feColorMatrix3104-6"
         values="0 0 0 -1 0 0 0 0 -1 0 0 0 0 -1 0 0 0 0 1 0"
         in="fbSourceGraphic"
         result="fbSourceGraphicAlpha" />
      <feColorMatrix
         in="fbSourceGraphic"
         values="1.4 -0.2 -0.2 0 0 -0.2 1.4 -0.2 0 0 -0.2 -0.2 1.4 0 0 0 0 0 1 0 "
         id="feColorMatrix3106-9" />
    </filter>
    <clipPath
       id="clipPath3325"
       clipPathUnits="userSpaceOnUse">
      <rect
         transform="matrix(-0.99988826,-0.01494872,-0.01494872,0.99988826,0,0)"
         ry="2.0000012"
         rx="2.0000012"
         y="651.6571"
         x="-875.36938"
         height="4.6772165"
         width="18.708866"
         id="rect3327"
         style="opacity:0.64099995;fill:#fbfbfb;fill-opacity:1;stroke:none;stroke-width:0.50099999;stroke-miterlimit:4;stroke-dasharray:none;stroke-dashoffset:39.22031021;stroke-opacity:1" />
    </clipPath>
    <filter
       id="filter2222-2"
       style="color-interpolation-filters:sRGB">
      <feColorMatrix
         result="fbSourceGraphic"
         id="feColorMatrix2220-47"
         values="1 -2.77556e-17 -2.77556e-17 0 0 -2.77556e-17 1 -2.77556e-17 0 0 -2.77556e-17 -2.77556e-17 1 0 0 0 0 0 1 0 " />
      <feColorMatrix
         id="feColorMatrix3104-7"
         values="0 0 0 -1 0 0 0 0 -1 0 0 0 0 -1 0 0 0 0 1 0"
         in="fbSourceGraphic"
         result="fbSourceGraphicAlpha" />
      <feColorMatrix
         in="fbSourceGraphic"
         values="1.4 -0.2 -0.2 0 0 -0.2 1.4 -0.2 0 0 -0.2 -0.2 1.4 0 0 0 0 0 1 0 "
         id="feColorMatrix3106-5" />
    </filter>
    <clipPath
       id="clipPath3834"
       clipPathUnits="userSpaceOnUse">
      <path
         id="path3836"
         d="m 949.92495,619.12604 -3.96978,-3.88144 -9.99168,0.29263 -0.007,-0.86102 -1.76676,-0.0431 0.0272,-0.81338 -1.05898,-0.56461 -4.57031,0.29488 -0.0245,0.29174 0.64525,0.8292 -0.041,0.52861 -13.38555,0.5168 -0.0132,-0.3222 -7.49414,-7.05025 -0.38621,-7.62437 0.36743,-0.0418 -0.0438,-0.48254 -1.35336,-0.64294 -0.23384,-0.004 -0.14151,-3.23902 -0.49881,-0.17252 0.003,-0.21046 0.48013,-0.0891 -0.88771,-0.61156 0.0204,-0.60108 -0.34723,-0.005 0.021,-0.34152 -2.5514,0.0405 -0.0434,0.30709 -1.13208,0.0168 0.002,0.56795 c -0.001,0.0742 0.52236,-0.0254 0.46055,0.0148 l -0.006,0.78796 -4.1107,0.10356 0.16198,4.07367 -0.81159,-0.002 -0.0126,0.50472 0.48096,-0.002 -0.0305,0.4283 0.19715,0.0592 0.0144,1.79791 -6.6754,0.02 0.003,0.33681 -0.30497,0.0444 -0.0559,0.48317 -0.43802,0.0605 -0.0571,0.30109 -4.96813,4.74885 -18.35115,-8.72355 -8.29802,0.41377 -2.73251,-50.85995 0.18749,-0.0732 -0.11942,-2.59499 -168.74946,-115.92965 -58.89811,18.46797 -48.124,-26.30542 0.0192,317.00536 380.97453,0.0719 0.0141,-120.61622 -1.45073,-0.88501 z"
         style="opacity:0.56499999;fill:#2b0000;fill-opacity:1;stroke:none;stroke-width:1.76200008;stroke-miterlimit:4;stroke-dasharray:none;stroke-dashoffset:39.22031021;stroke-opacity:1" />
    </clipPath>
    <clipPath
       id="clipPath3834-7"
       clipPathUnits="userSpaceOnUse">
      <path
         id="path3836-2"
         d="m 949.92495,619.12604 -3.96978,-3.88144 -9.99168,0.29263 -0.007,-0.86102 -1.76676,-0.0431 0.0272,-0.81338 -1.05898,-0.56461 -4.57031,0.29488 -0.0245,0.29174 0.64525,0.8292 -0.041,0.52861 -13.38555,0.5168 -0.0132,-0.3222 -7.49414,-7.05025 -0.38621,-7.62437 0.36743,-0.0418 -0.0438,-0.48254 -1.35336,-0.64294 -0.23384,-0.004 -0.14151,-3.23902 -0.49881,-0.17252 0.003,-0.21046 0.48013,-0.0891 -0.88771,-0.61156 0.0204,-0.60108 -0.34723,-0.005 0.021,-0.34152 -2.5514,0.0405 -0.0434,0.30709 -1.13208,0.0168 0.002,0.56795 c -0.001,0.0742 0.52236,-0.0254 0.46055,0.0148 l -0.006,0.78796 -4.1107,0.10356 0.16198,4.07367 -0.81159,-0.002 -0.0126,0.50472 0.48096,-0.002 -0.0305,0.4283 0.19715,0.0592 0.0144,1.79791 -6.6754,0.02 0.003,0.33681 -0.30497,0.0444 -0.0559,0.48317 -0.43802,0.0605 -0.0571,0.30109 -4.96813,4.74885 -18.35115,-8.72355 -8.29802,0.41377 -2.73251,-50.85995 0.18749,-0.0732 -0.11942,-2.59499 -168.74946,-115.92965 -58.89811,18.46797 -48.124,-26.30542 0.0192,317.00536 380.97453,0.0719 0.0141,-120.61622 -1.45073,-0.88501 z"
         style="opacity:0.56499999;fill:#2b0000;fill-opacity:1;stroke:none;stroke-width:1.76200008;stroke-miterlimit:4;stroke-dasharray:none;stroke-dashoffset:39.22031021;stroke-opacity:1" />
    </clipPath>
    <filter
       id="filter2222-4"
       style="color-interpolation-filters:sRGB">
      <feColorMatrix
         result="fbSourceGraphic"
         id="feColorMatrix2220-0"
         values="1 -2.77556e-17 -2.77556e-17 0 0 -2.77556e-17 1 -2.77556e-17 0 0 -2.77556e-17 -2.77556e-17 1 0 0 0 0 0 1 0 " />
      <feColorMatrix
         id="feColorMatrix3104-62"
         values="0 0 0 -1 0 0 0 0 -1 0 0 0 0 -1 0 0 0 0 1 0"
         in="fbSourceGraphic"
         result="fbSourceGraphicAlpha" />
      <feColorMatrix
         in="fbSourceGraphic"
         values="1.4 -0.2 -0.2 0 0 -0.2 1.4 -0.2 0 0 -0.2 -0.2 1.4 0 0 0 0 0 1 0 "
         id="feColorMatrix3106-99" />
    </filter>
    <clipPath
       id="clipPath3325-1"
       clipPathUnits="userSpaceOnUse">
      <rect
         transform="matrix(-0.99988826,-0.01494872,-0.01494872,0.99988826,0,0)"
         ry="2.0000012"
         rx="2.0000012"
         y="651.6571"
         x="-875.36938"
         height="4.6772165"
         width="18.708866"
         id="rect3327-3"
         style="opacity:0.64099995;fill:#fbfbfb;fill-opacity:1;stroke:none;stroke-width:0.50099999;stroke-miterlimit:4;stroke-dasharray:none;stroke-dashoffset:39.22031021;stroke-opacity:1" />
    </clipPath>
    <filter
       id="filter2222-2-1"
       style="color-interpolation-filters:sRGB">
      <feColorMatrix
         result="fbSourceGraphic"
         id="feColorMatrix2220-47-1"
         values="1 -2.77556e-17 -2.77556e-17 0 0 -2.77556e-17 1 -2.77556e-17 0 0 -2.77556e-17 -2.77556e-17 1 0 0 0 0 0 1 0 " />
      <feColorMatrix
         id="feColorMatrix3104-7-0"
         values="0 0 0 -1 0 0 0 0 -1 0 0 0 0 -1 0 0 0 0 1 0"
         in="fbSourceGraphic"
         result="fbSourceGraphicAlpha" />
      <feColorMatrix
         in="fbSourceGraphic"
         values="1.4 -0.2 -0.2 0 0 -0.2 1.4 -0.2 0 0 -0.2 -0.2 1.4 0 0 0 0 0 1 0 "
         id="feColorMatrix3106-5-3" />
    </filter>
    <clipPath
       id="clipPath3286-4"
       clipPathUnits="userSpaceOnUse">
      <rect
         transform="rotate(0.8565307)"
         ry="2.0000012"
         rx="2.0000012"
         y="659.26459"
         x="850.31317"
         height="15.84168"
         width="35.579533"
         id="rect3288-0"
         style="opacity:0.64099995;fill:#fbfbfb;fill-opacity:1;stroke:none;stroke-width:0.65540189;stroke-miterlimit:4;stroke-dasharray:none;stroke-dashoffset:39.22031021;stroke-opacity:1" />
    </clipPath>
    <filter
       id="filter2222-9-3"
       style="color-interpolation-filters:sRGB">
      <feColorMatrix
         result="fbSourceGraphic"
         id="feColorMatrix2220-4-9"
         values="1 -2.77556e-17 -2.77556e-17 0 0 -2.77556e-17 1 -2.77556e-17 0 0 -2.77556e-17 -2.77556e-17 1 0 0 0 0 0 1 0 " />
      <feColorMatrix
         id="feColorMatrix3104-6-1"
         values="0 0 0 -1 0 0 0 0 -1 0 0 0 0 -1 0 0 0 0 1 0"
         in="fbSourceGraphic"
         result="fbSourceGraphicAlpha" />
      <feColorMatrix
         in="fbSourceGraphic"
         values="1.4 -0.2 -0.2 0 0 -0.2 1.4 -0.2 0 0 -0.2 -0.2 1.4 0 0 0 0 0 1 0 "
         id="feColorMatrix3106-9-9" />
    </filter>
    <clipPath
       id="clipPath3834-6"
       clipPathUnits="userSpaceOnUse">
      <path
         id="path3836-9"
         d="m 949.92495,619.12604 -3.96978,-3.88144 -9.99168,0.29263 -0.007,-0.86102 -1.76676,-0.0431 0.0272,-0.81338 -1.05898,-0.56461 -4.57031,0.29488 -0.0245,0.29174 0.64525,0.8292 -0.041,0.52861 -13.38555,0.5168 -0.0132,-0.3222 -7.49414,-7.05025 -0.38621,-7.62437 0.36743,-0.0418 -0.0438,-0.48254 -1.35336,-0.64294 -0.23384,-0.004 -0.14151,-3.23902 -0.49881,-0.17252 0.003,-0.21046 0.48013,-0.0891 -0.88771,-0.61156 0.0204,-0.60108 -0.34723,-0.005 0.021,-0.34152 -2.5514,0.0405 -0.0434,0.30709 -1.13208,0.0168 0.002,0.56795 c -0.001,0.0742 0.52236,-0.0254 0.46055,0.0148 l -0.006,0.78796 -4.1107,0.10356 0.16198,4.07367 -0.81159,-0.002 -0.0126,0.50472 0.48096,-0.002 -0.0305,0.4283 0.19715,0.0592 0.0144,1.79791 -6.6754,0.02 0.003,0.33681 -0.30497,0.0444 -0.0559,0.48317 -0.43802,0.0605 -0.0571,0.30109 -4.96813,4.74885 -18.35115,-8.72355 -8.29802,0.41377 -2.73251,-50.85995 0.18749,-0.0732 -0.11942,-2.59499 -168.74946,-115.92965 -58.89811,18.46797 -48.124,-26.30542 0.0192,317.00536 380.97453,0.0719 0.0141,-120.61622 -1.45073,-0.88501 z"
         style="opacity:0.56499999;fill:#2b0000;fill-opacity:1;stroke:none;stroke-width:1.76200008;stroke-miterlimit:4;stroke-dasharray:none;stroke-dashoffset:39.22031021;stroke-opacity:1" />
    </clipPath>
    <filter
       id="filter2222-3"
       style="color-interpolation-filters:sRGB">
      <feColorMatrix
         result="fbSourceGraphic"
         id="feColorMatrix2220-3"
         values="1 -2.77556e-17 -2.77556e-17 0 0 -2.77556e-17 1 -2.77556e-17 0 0 -2.77556e-17 -2.77556e-17 1 0 0 0 0 0 1 0 " />
      <feColorMatrix
         id="feColorMatrix3104-8"
         values="0 0 0 -1 0 0 0 0 -1 0 0 0 0 -1 0 0 0 0 1 0"
         in="fbSourceGraphic"
         result="fbSourceGraphicAlpha" />
      <feColorMatrix
         in="fbSourceGraphic"
         values="1.4 -0.2 -0.2 0 0 -0.2 1.4 -0.2 0 0 -0.2 -0.2 1.4 0 0 0 0 0 1 0 "
         id="feColorMatrix3106-0" />
    </filter>
    <meshgradient
       y="296.89255"
       x="-696.17609"
       gradientTransform="matrix(1,0,0,1.3672249,696.18066,-398.80817)"
       gradientUnits="userSpaceOnUse"
       id="meshgradient5331">
      <meshrow
         id="meshrow5343">
        <meshpatch
           id="meshpatch5341">
          <stop
             path="c 66.1047,0  132.209,0  198.314,0"
             style="stop-color:#006880;stop-opacity:1"
             id="stop5333" />
          <stop
             path="c 1.5119,47.2566  0,114.168  0,171.252"
             style="stop-color:#455a64;stop-opacity:1"
             id="stop5335" />
          <stop
             path="c -66.1047,0  -132.209,0  -198.314,0"
             style="stop-color:#00495a;stop-opacity:1"
             id="stop5337" />
          <stop
             path="c 0,-57.084  0,-114.168  0,-171.252"
             style="stop-color:#455a64;stop-opacity:1"
             id="stop5339" />
        </meshpatch>
      </meshrow>
    </meshgradient>
    <linearGradient
       y2="453.12543"
       x2="-331.7717"
       y1="394.05887"
       x1="-368.22598"
       gradientTransform="matrix(1.9574389,0,0,1.9574389,72.734214,-450.04861)"
       gradientUnits="userSpaceOnUse"
       id="linearGradient5345"
       xlink:href="#linearGradient11062" />
  </defs>
  <metadata
     id="metadata5">
    <rdf:RDF>
      <cc:Work
         rdf:about="">
        <dc:format>image/svg+xml</dc:format>
        <dc:type
           rdf:resource="http://purl.org/dc/dcmitype/StillImage" />
        <dc:title />
      </cc:Work>
    </rdf:RDF>
  </metadata>
  <rect
     ry="12"
     rx="12"
     y="7.1106"
     x="0.0046056178"
     height="234.14"
     width="198.314"
     id="rect5286"
     style="opacity:1;fill:url(#meshgradient5331);fill-opacity:1;stroke:none;stroke-width:0.53429019;stroke-miterlimit:4;stroke-dasharray:none;stroke-dashoffset:39.22031021;stroke-opacity:1" />
  <path
     inkscape:connector-curvature="0"
     transform="translate(700.68213,-274.89681)"
     clip-path="url(#clipPath11744)"
     id="path5288"
     d="m -670.93612,328.50839 47.74984,-16.50728 c 3.07763,-1.06393 8.93202,0.61044 10.43054,3.4823 l 54.50796,104.46182 c 1.49911,2.87164 2.37241,11.03858 -0.88198,11.1516 l -73.23026,2.54368 c -3.25439,0.11298 -5.83706,0.0952 -7.00231,-2.92739 l -35.68014,-92.55004 c -1.16523,-3.02248 1.17509,-8.64131 4.10635,-9.65469 z"
     style="opacity:1;fill:#010101;fill-opacity:1;stroke:none;stroke-width:0.86522657;stroke-miterlimit:4;stroke-dasharray:none;stroke-dashoffset:39.22031021;stroke-opacity:1" />
  <rect
     transform="matrix(0.99987591,-0.01575325,0.12618979,0.99200612,0,0)"
     ry="2.9302704"
     rx="2.9992998"
     y="29.741041"
     x="74.919754"
     height="46.990482"
     width="83.353462"
     id="rect5290"
     style="opacity:1;fill:#40442b;fill-opacity:1;stroke:none;stroke-width:0.96765053;stroke-miterlimit:4;stroke-dasharray:none;stroke-dashoffset:39.22031021;stroke-opacity:1" />
  <rect
     transform="matrix(0.99984188,-0.01778236,0.12690381,0.99191503,0,0)"
     style="fill:#1a1a1a;fill-opacity:1;stroke:none;stroke-width:4.82317114;stroke-dasharray:38.58536734, 9.64634184;stroke-dashoffset:0;stroke-opacity:1"
     id="rect5292"
     width="88.582756"
     height="49.482574"
     x="69.770844"
     y="29.708307"
     rx="2.5"
     ry="2.5" />
  <g
     id="g5300"
     transform="matrix(1.4611304,-0.02598645,0.16206352,1.266733,-6.7198842,-35.187964)"
     style="fill:#ffffff;fill-opacity:1">
    <path
       style="fill:#ffffff;fill-opacity:1"
       d="m 69.249173,71.26143 -1.719005,-1.04663 -0.06747,-0.20241 -0.06747,-0.2024 5.887515,-3.1356 5.887521,-3.13559 6.28385,3.13279 6.28386,3.13279 v 0.18432 0.18431 l -1.93586,1.06861 -1.93585,1.06862 -4.26278,-2.16354 -4.26278,-2.16354 -2.201894,1.151 -2.201885,1.15099 -1.765955,1.0208 -1.765954,1.02079 -0.218421,-0.009 -0.218421,-0.009 z"
       id="path5294"
       inkscape:connector-curvature="0" />
    <path
       style="fill:#ffffff;fill-opacity:1"
       d="m 73.415573,73.60888 -1.256771,-0.79772 0.0031,-0.17606 0.0031,-0.17607 1.518215,-0.8226 1.518215,-0.82261 2.037774,-1.10081 2.037778,-1.10082 3.8492,1.91919 3.84921,1.91919 v 0.14677 0.14676 l -1.4754,0.89419 -1.4754,0.89418 -2.35158,-1.15265 -2.35158,-1.15264 -0.73709,0.37775 -0.73708,0.37775 -1.268413,0.73036 -1.268414,0.73037 -0.319086,-0.0184 -0.319086,-0.0184 z"
       id="path5296"
       inkscape:connector-curvature="0" />
    <path
       style="fill:#ffffff;fill-opacity:1"
       d="m 77.648907,76.22696 -1.785938,-1.11623 v -0.1786 -0.1786 l 1.752184,-0.97987 1.752181,-0.97988 1.94913,1.02325 1.94913,1.02325 0.003,0.13757 0.003,0.13757 -1.81373,1.1192 -1.81373,1.1192 -0.1045,-0.005 -0.1045,-0.005 z"
       id="path5298"
       inkscape:connector-curvature="0" />
  </g>
  <path
     inkscape:connector-curvature="0"
     transform="translate(700.68213,-274.89681)"
     clip-path="url(#clipPath11740)"
     style="opacity:1;fill:url(#linearGradient5345);fill-opacity:1;stroke:none;stroke-width:0.86522657;stroke-miterlimit:4;stroke-dasharray:none;stroke-dashoffset:39.22031021;stroke-opacity:1"
     d="m -669.53037,328.13845 47.74983,-16.50728 c 3.07765,-1.06393 8.9442,0.60415 10.43056,3.4823 l 54.13802,104.83176 c 1.4864,2.87823 2.37292,11.05447 -0.88199,11.1516 l -72.86031,2.17374 c -3.25491,0.0971 -5.83707,0.0952 -7.00231,-2.92737 l -35.68016,-92.55006 c -1.16521,-3.02248 1.17511,-8.64131 4.10636,-9.65469 z"
     id="path5304" />
  <path
     inkscape:connector-curvature="0"
     transform="translate(700.68213,-274.89681)"
     clip-path="url(#clipPath11736)"
     style="opacity:1;fill:#e6e9ec;fill-opacity:1;stroke:none;stroke-width:0.77425766;stroke-miterlimit:4;stroke-dasharray:none;stroke-dashoffset:39.22031021;stroke-opacity:1"
     d="m -666.34814,329.90165 5.40453,-1.92743 c 0,0 1.1336,3.88489 2.73971,3.27789 11.16053,-4.21799 24.7182,-8.4856 31.42963,-10.77698 2.22463,-0.75952 -0.11689,-4.39284 -0.11689,-4.39284 l 5.73039,-1.6901 c 2.7949,-0.82432 6.83016,0.0581 8.12521,2.65161 l 51.76613,103.66743 c 1.29502,2.59343 2.12298,9.87684 -0.78922,9.97916 l -64.78256,2.27614 c -2.91221,0.10232 -5.18483,0.0694 -6.26612,-2.61956 l -36.91473,-91.8057 c -1.0814,-2.68943 1.04099,-7.76412 3.67462,-8.63962 z"
     id="path5306" />
  <path
     inkscape:connector-curvature="0"
     id="path19740"
     style="font-style:normal;font-variant:normal;font-weight:normal;font-stretch:normal;font-size:24px;line-height:1.25;font-family:'DejaVu Sans';-inkscape-font-specification:'DejaVu Sans';letter-spacing:1.2189219px;word-spacing:0px;fill:#fff2f2;fill-opacity:1;stroke:#ffffff;stroke-width:0.68791664;stroke-miterlimit:4;stroke-dasharray:none;stroke-opacity:1"
     d="m 16.878899,170.42709 h 1.321913 v 5.9063 q 0,1.56285 0.566518,2.25312 0.566518,0.68377 1.836363,0.68377 1.263288,0 1.829862,-0.68377 0.566518,-0.69027 0.566518,-2.25312 v -5.9063 h 1.321913 v 6.06911 q 0,1.90149 -0.944216,2.87171 -0.937713,0.97028 -2.774077,0.97028 -1.842865,0 -2.78708,-0.97028 -0.937714,-0.97022 -0.937714,-2.87171 z" />
  <path
     inkscape:connector-curvature="0"
     id="path19742"
     style="font-style:normal;font-variant:normal;font-weight:normal;font-stretch:normal;font-size:24px;line-height:1.25;font-family:'DejaVu Sans';-inkscape-font-specification:'DejaVu Sans';letter-spacing:1.2189219px;word-spacing:0px;fill:#fff2f2;fill-opacity:1;stroke:#ffffff;stroke-width:0.68791664;stroke-miterlimit:4;stroke-dasharray:none;stroke-opacity:1"
     d="m 33.477797,175.74731 v 4.40206 h -1.198163 v -4.363 q 0,-1.03535 -0.403758,-1.5498 -0.403704,-0.51445 -1.211221,-0.51445 -0.970221,0 -1.530294,0.61864 -0.560016,0.61865 -0.560016,1.68656 v 4.12205 h -1.204664 v -7.29333 h 1.204664 v 1.13309 q 0.42982,-0.65771 1.009341,-0.98334 0.586078,-0.32557 1.347974,-0.32557 1.256787,0 1.90149,0.7814 0.644647,0.77495 0.644647,2.28569 z" />
  <path
     inkscape:connector-curvature="0"
     id="path19744"
     style="font-style:normal;font-variant:normal;font-weight:normal;font-stretch:normal;font-size:24px;line-height:1.25;font-family:'DejaVu Sans';-inkscape-font-specification:'DejaVu Sans';letter-spacing:1.2189219px;word-spacing:0px;fill:#fff2f2;fill-opacity:1;stroke:#ffffff;stroke-width:0.68791664;stroke-miterlimit:4;stroke-dasharray:none;stroke-opacity:1"
     d="m 36.544996,170.01683 h 1.198218 v 10.13254 h -1.198218 z" />
  <path
     inkscape:connector-curvature="0"
     id="path19746"
     style="font-style:normal;font-variant:normal;font-weight:normal;font-stretch:normal;font-size:24px;line-height:1.25;font-family:'DejaVu Sans';-inkscape-font-specification:'DejaVu Sans';letter-spacing:1.2189219px;word-spacing:0px;fill:#fff2f2;fill-opacity:1;stroke:#ffffff;stroke-width:0.68791664;stroke-miterlimit:4;stroke-dasharray:none;stroke-opacity:1"
     d="m 40.927607,172.85604 h 1.198218 v 7.29333 h -1.198218 z m 0,-2.83921 h 1.198218 v 1.51729 h -1.198218 z" />
  <path
     inkscape:connector-curvature="0"
     id="path19748"
     style="font-style:normal;font-variant:normal;font-weight:normal;font-stretch:normal;font-size:24px;line-height:1.25;font-family:'DejaVu Sans';-inkscape-font-specification:'DejaVu Sans';letter-spacing:1.2189219px;word-spacing:0px;fill:#fff2f2;fill-opacity:1;stroke:#ffffff;stroke-width:0.68791664;stroke-miterlimit:4;stroke-dasharray:none;stroke-opacity:1"
     d="m 50.988624,174.25608 q 0.449325,-0.80746 1.074468,-1.19166 0.625142,-0.3842 1.471669,-0.3842 1.139593,0 1.758234,0.80096 0.618641,0.79446 0.618641,2.26613 v 4.40206 h -1.204719 v -4.363 q 0,-1.0484 -0.371196,-1.5563 -0.371196,-0.50795 -1.133036,-0.50795 -0.931213,0 -1.471725,0.61864 -0.540456,0.61865 -0.540456,1.68656 v 4.12205 h -1.20472 v -4.363 q 0,-1.05491 -0.371195,-1.5563 -0.371141,-0.50795 -1.146095,-0.50795 -0.918154,0 -1.458666,0.62515 -0.540457,0.61864 -0.540457,1.68005 v 4.12205 h -1.204719 v -7.29333 h 1.204719 v 1.13309 q 0.410205,-0.67077 0.98328,-0.98984 0.57302,-0.31907 1.360977,-0.31907 0.794459,0 1.347974,0.40376 0.560017,0.4037 0.827022,1.1721 z" />
  <path
     inkscape:connector-curvature="0"
     id="path19750"
     style="font-style:normal;font-variant:normal;font-weight:normal;font-stretch:normal;font-size:24px;line-height:1.25;font-family:'DejaVu Sans';-inkscape-font-specification:'DejaVu Sans';letter-spacing:1.2189219px;word-spacing:0px;fill:#fff2f2;fill-opacity:1;stroke:#ffffff;stroke-width:0.68791664;stroke-miterlimit:4;stroke-dasharray:none;stroke-opacity:1"
     d="m 58.978836,172.85604 h 1.198162 v 7.29333 h -1.198162 z m 0,-2.83921 h 1.198162 v 1.51729 h -1.198162 z" />
  <path
     inkscape:connector-curvature="0"
     id="path19752"
     style="font-style:normal;font-variant:normal;font-weight:normal;font-stretch:normal;font-size:24px;line-height:1.25;font-family:'DejaVu Sans';-inkscape-font-specification:'DejaVu Sans';letter-spacing:1.2189219px;word-spacing:0px;fill:#fff2f2;fill-opacity:1;stroke:#ffffff;stroke-width:0.68791664;stroke-miterlimit:4;stroke-dasharray:none;stroke-opacity:1"
     d="m 64.546606,170.78523 v 2.07081 h 2.468007 v 0.93121 h -2.468007 v 3.95924 q 0,0.89209 0.240944,1.14609 0.247445,0.25395 0.996282,0.25395 h 1.230781 v 1.00284 h -1.230781 q -1.387038,0 -1.914492,-0.51445 -0.527453,-0.52096 -0.527453,-1.88843 v -3.95924 h -0.87909 v -0.93121 h 0.87909 v -2.07081 z" />
  <path
     inkscape:connector-curvature="0"
     id="path19754"
     style="font-style:normal;font-variant:normal;font-weight:normal;font-stretch:normal;font-size:24px;line-height:1.25;font-family:'DejaVu Sans';-inkscape-font-specification:'DejaVu Sans';letter-spacing:1.2189219px;word-spacing:0px;fill:#fff2f2;fill-opacity:1;stroke:#ffffff;stroke-width:0.68791664;stroke-miterlimit:4;stroke-dasharray:none;stroke-opacity:1"
     d="m 75.506217,176.20313 v 0.58608 h -5.50909 q 0.07818,1.23728 0.742391,1.88849 0.670709,0.64465 1.86237,0.64465 0.690268,0 1.334971,-0.16932 0.651148,-0.16932 1.28935,-0.50789 v 1.13303 q -0.644703,0.27351 -1.321913,0.41676 -0.677266,0.14326 -1.374036,0.14326 -1.745176,0 -2.76752,-1.01584 -1.015898,-1.01585 -1.015898,-2.74802 0,-1.7908 0.963775,-2.8392 0.970277,-1.05491 2.611262,-1.05491 1.471725,0 2.324753,0.95072 0.859585,0.94421 0.859585,2.57219 z m -1.198218,-0.35163 q -0.01278,-0.98328 -0.553515,-1.56936 -0.533955,-0.58608 -1.419546,-0.58608 -1.00284,0 -1.608478,0.56652 -0.599081,0.56657 -0.690269,1.59542 z" />
  <path
     inkscape:connector-curvature="0"
     id="path19756"
     style="font-style:normal;font-variant:normal;font-weight:normal;font-stretch:normal;font-size:24px;line-height:1.25;font-family:'DejaVu Sans';-inkscape-font-specification:'DejaVu Sans';letter-spacing:1.2189219px;word-spacing:0px;fill:#fff2f2;fill-opacity:1;stroke:#ffffff;stroke-width:0.68791664;stroke-miterlimit:4;stroke-dasharray:none;stroke-opacity:1"
     d="m 82.949415,173.96307 v -3.94624 h 1.198162 v 10.13254 h -1.198162 v -1.09403 q -0.377698,0.6512 -0.957274,0.97028 -0.57302,0.31257 -1.380482,0.31257 -1.321912,0 -2.155436,-1.05491 -0.827022,-1.05491 -0.827022,-2.77408 0,-1.71911 0.827022,-2.77407 0.833524,-1.05491 2.155436,-1.05491 0.807462,0 1.380482,0.31907 0.579576,0.31257 0.957274,0.96378 z m -4.082987,2.54613 q 0,1.32192 0.540512,2.07731 0.547014,0.74889 1.49773,0.74889 0.950717,0 1.497731,-0.74889 0.547014,-0.75539 0.547014,-2.07731 0,-1.32191 -0.547014,-2.07075 -0.547014,-0.75539 -1.497731,-0.75539 -0.950716,0 -1.49773,0.75539 -0.540512,0.74884 -0.540512,2.07075 z" />
  <path
     inkscape:connector-curvature="0"
     id="path19758"
     style="font-style:normal;font-variant:normal;font-weight:normal;font-stretch:normal;font-size:24px;line-height:1.25;font-family:'DejaVu Sans';-inkscape-font-specification:'DejaVu Sans';letter-spacing:1.2189219px;word-spacing:0px;fill:#fff2f2;fill-opacity:1;stroke:#ffffff;stroke-width:0.68791664;stroke-miterlimit:4;stroke-dasharray:none;stroke-opacity:1"
     d="m 90.913676,170.42709 h 8.224543 v 1.10703 h -3.451343 v 8.61525 h -1.321913 v -8.61525 h -3.451287 z" />
  <path
     inkscape:connector-curvature="0"
     id="path19760"
     style="font-style:normal;font-variant:normal;font-weight:normal;font-stretch:normal;font-size:24px;line-height:1.25;font-family:'DejaVu Sans';-inkscape-font-specification:'DejaVu Sans';letter-spacing:1.2189219px;word-spacing:0px;fill:#fff2f2;fill-opacity:1;stroke:#ffffff;stroke-width:0.68791664;stroke-miterlimit:4;stroke-dasharray:none;stroke-opacity:1"
     d="m 102.14029,176.48314 q -1.45216,0 -2.01218,0.33213 -0.560016,0.33213 -0.560016,1.1331 0,0.63814 0.416762,1.01584 0.423264,0.37119 1.146094,0.37119 0.99628,0 1.59542,-0.70332 0.60558,-0.70978 0.60558,-1.88193 v -0.26701 z m 2.38983,-0.49489 v 4.16112 h -1.19817 v -1.10703 q -0.41026,0.6642 -1.02234,0.98328 -0.61214,0.31257 -1.49779,0.31257 -1.120031,0 -1.784238,-0.62514 -0.657705,-0.63165 -0.657705,-1.68656 0,-1.23078 0.82052,-1.85592 0.827023,-0.62514 2.461503,-0.62514 h 1.68005 v -0.1172 q 0,-0.82702 -0.54701,-1.27634 -0.54046,-0.45583 -1.52379,-0.45583 -0.62515,0 -1.21772,0.14976 -0.592585,0.14981 -1.139598,0.44932 v -1.10697 q 0.657705,-0.254 1.276348,-0.3777 0.61864,-0.13025 1.20472,-0.13025 1.58236,0 2.36381,0.82052 0.78141,0.82046 0.78141,2.48751 z" />
  <path
     inkscape:connector-curvature="0"
     id="path19762"
     style="font-style:normal;font-variant:normal;font-weight:normal;font-stretch:normal;font-size:24px;line-height:1.25;font-family:'DejaVu Sans';-inkscape-font-specification:'DejaVu Sans';letter-spacing:1.2189219px;word-spacing:0px;fill:#fff2f2;fill-opacity:1;stroke:#ffffff;stroke-width:0.68791664;stroke-miterlimit:4;stroke-dasharray:none;stroke-opacity:1"
     d="m 108.8346,179.05534 v 3.8681 h -1.20472 v -10.0674 h 1.20472 v 1.10703 q 0.37769,-0.65121 0.95071,-0.96378 0.57958,-0.31907 1.38054,-0.31907 1.32842,0 2.15544,1.05491 0.83352,1.05496 0.83352,2.77407 0,1.71917 -0.83352,2.77408 -0.82702,1.05491 -2.15544,1.05491 -0.80096,0 -1.38054,-0.31257 -0.57302,-0.31908 -0.95071,-0.97028 z m 4.07643,-2.54614 q 0,-1.32191 -0.54696,-2.07075 -0.54051,-0.75539 -1.49123,-0.75539 -0.95077,0 -1.49773,0.75539 -0.54051,0.74884 -0.54051,2.07075 0,1.32192 0.54051,2.07731 0.54696,0.74889 1.49773,0.74889 0.95072,0 1.49123,-0.74889 0.54696,-0.75539 0.54696,-2.07731 z" />
  <path
     inkscape:connector-curvature="0"
     id="path19764"
     style="font-style:normal;font-variant:normal;font-weight:normal;font-stretch:normal;font-size:24px;line-height:1.25;font-family:'DejaVu Sans';-inkscape-font-specification:'DejaVu Sans';letter-spacing:1.2189219px;word-spacing:0px;fill:#fff2f2;fill-opacity:1;stroke:#ffffff;stroke-width:0.68791664;stroke-miterlimit:4;stroke-dasharray:none;stroke-opacity:1"
     d="m 121.46781,173.07092 v 1.13309 q -0.50795,-0.2605 -1.05496,-0.3907 -0.54701,-0.13025 -1.13304,-0.13025 -0.89214,0 -1.34147,0.27351 -0.44282,0.2735 -0.44282,0.82046 0,0.41676 0.31907,0.65771 0.31913,0.23444 1.28285,0.44932 l 0.41026,0.0912 q 1.27634,0.27351 1.8103,0.7749 0.54051,0.49489 0.54051,1.38704 0,1.01584 -0.80746,1.60842 -0.80102,0.59258 -2.20756,0.59258 -0.58608,0 -1.22422,-0.1172 -0.63165,-0.11069 -1.33497,-0.33863 v -1.23722 q 0.6642,0.34513 1.30891,0.52095 0.6447,0.16931 1.27634,0.16931 0.84653,0 1.30236,-0.28656 0.45582,-0.29301 0.45582,-0.82047 0,-0.48839 -0.33207,-0.74889 -0.32563,-0.26045 -1.43917,-0.50139 l -0.41676,-0.0977 q -1.11353,-0.23444 -1.60842,-0.71633 -0.49489,-0.48839 -0.49489,-1.33492 0,-1.0289 0.72933,-1.58891 0.72934,-0.56002 2.07075,-0.56002 0.66427,0 1.25029,0.0977 0.58608,0.0977 1.08102,0.29301 z" />
  <text
     id="text5321"
     y="206.79048"
     x="15.80057"
     style="font-style:normal;font-weight:normal;font-size:10.81928062px;line-height:1.25;font-family:sans-serif;letter-spacing:0px;word-spacing:0px;fill:#fefefe;fill-opacity:1;stroke:none;stroke-width:0.45080334"
     xml:space="preserve"><tspan
       style="fill:#fefefe;fill-opacity:1;stroke-width:0.45080334"
       y="206.79048"
       x="15.80057"
       id="tspan5316">Infinitely Reusable. No </tspan><tspan
       style="fill:#fefefe;fill-opacity:1;stroke-width:0.45080334"
       y="220.31459"
       x="15.80057"
       id="tspan5319">subscriptions needed</tspan></text>
  <rect
     y="190.58815"
     x="16.387194"
     height="0.66145831"
     width="97.234375"
     id="rect5323"
     style="opacity:1;fill:#fefefe;fill-opacity:1;stroke:#428a8a;stroke-width:0.565;stroke-miterlimit:4;stroke-dasharray:none;stroke-dashoffset:39.22031021;stroke-opacity:1" />
  <path
     inkscape:connector-curvature="0"
     id="path5327"
     d="m 74.121081,83.62616 c -4.3333,1.42926 -7.83053,4.87143 -9.1506,10.31363 -1.7808,7.34018 0.39377,13.65048 6.73284,19.54752 4.58738,4.26682 9.33446,6.03734 15.15484,5.67309 11.96314,-0.74895 17.139829,-14.35092 9.79765,-25.76074 -5.74749,-8.93322 -15.31169,-12.15542 -22.53473,-9.7735 z m 2.04757,2.69617 3.11233,1.72587 c 1.70856,0.95118 3.28238,2.09185 3.50449,2.54034 0.22191,0.4481 -0.45957,1.12327 -1.52144,1.50882 -1.7199,0.62523 -2.10546,0.35121 -3.51385,-2.53622 z m -2.60495,2.03924 c 0.4074,-0.2681 1.06074,0.4775 1.92354,2.21974 1.33997,2.70584 1.28492,3.1466 -0.4347,3.77101 -1.90844,0.69296 -1.95074,0.63627 -2.02426,-2.24493 -0.0626,-2.2385 0.1211,-3.48868 0.53605,-3.74601 z m 8.19017,-2.07997 c 0.14277,-0.47234 3.08887,0.63982 5.22231,1.96611 1.58878,0.98745 1.62465,1.18589 0.29115,1.67008 -1.27874,0.46432 -5.84498,-2.54163 -5.51461,-3.63505 z m -11.68733,4.31588 c 0.38726,-0.30882 0.44744,0.28208 0.53224,2.35247 0.078,1.89166 -0.46141,3.20997 -1.47547,3.57818 -1.58341,0.57493 -1.59069,0.57759 -1.03657,-1.74544 0.31226,-1.28605 0.9823,-2.89786 1.48523,-3.58151 0.20838,-0.29195 0.37307,-0.49831 0.50009,-0.60691 z m -0.93769,7.96569 c 1.66547,-0.60474 2.02543,-0.34856 3.03542,2.20073 0.95413,2.40908 0.8176,3.07213 -0.83869,3.94315 -2.08245,1.09258 -2.68427,0.53011 -3.59478,-3.35197 -0.34181,-1.45946 0.0916,-2.31849 1.39746,-2.79267 z m 6.51376,-2.36518 c 2.03252,-0.73801 2.3583,-0.53911 3.72097,2.21256 1.35621,2.73862 1.29352,3.09443 -0.69138,3.81516 -2.79317,1.01421 -3.1777,0.78617 -4.32097,-2.50461 -0.79656,-2.29951 -0.59609,-2.83776 1.29138,-3.52311 z m 6.76884,-2.45776 c 2.15581,-0.78279 3.89744,0.3894 5.63155,3.80381 0.32578,0.65787 -0.50684,1.46242 -2.15936,2.06246 -2.57502,0.93499 -2.77642,0.83992 -4.20184,-2.03843 -1.36237,-2.75105 -1.30244,-3.09072 0.72933,-3.82846 z m 6.57945,-2.38903 c 1.88274,-0.68362 3.48197,0.40579 4.94925,3.36865 0.5729,1.15686 0.28409,1.86009 -0.97643,2.31778 -2.33896,0.84928 -3.14107,0.39559 -4.61106,-2.57278 -0.99048,-2.00008 -0.87533,-2.56287 0.63855,-3.11256 z m -17.0604,14.32833 c 1.97631,-0.71761 2.4486,-0.47578 4.05038,2.09292 1.60991,2.58165 1.60547,2.98118 0.0166,3.55811 -1.21673,0.44179 -2.38634,0.0278 -3.63959,-1.28643 -2.79104,-2.92843 -2.85668,-3.48254 -0.42687,-4.3648 z m 7.16392,-2.60124 c 1.98562,-0.72098 2.32658,-0.51318 3.68318,2.22626 1.36338,2.75309 1.30266,3.09113 -0.72913,3.82888 -1.8871,0.68521 -2.47999,0.43672 -3.85565,-1.65494 -1.97121,-2.98964 -1.89378,-3.38519 0.9016,-4.4002 z m 6.77775,-2.46102 c 2.71493,-0.98579 3.4056,-0.56855 4.41133,2.73181 0.62682,2.04804 0.34832,2.66771 -1.46619,3.32659 -2.0296,0.73694 -2.35829,0.5391 -3.72117,-2.21298 -1.36932,-2.76509 -1.30245,-3.09072 0.77603,-3.84542 z m 6.99464,-2.53976 c 2.38274,-0.8652 2.97645,-0.33343 3.86183,3.44053 0.33537,1.43776 -0.086,2.31646 -1.34109,2.77217 -1.58886,0.57693 -2.04417,0.25204 -3.33442,-2.35337 -1.37548,-2.77752 -1.31338,-3.08675 0.81379,-3.85913 z m -3.45883,10.42021 c 1.65816,-0.60209 1.95952,-0.42555 1.97834,1.14397 0.0167,1.02006 -0.25985,2.55215 -0.61699,3.40295 -0.55804,1.34165 -0.83057,1.19551 -1.98748,-1.14065 -1.14268,-2.30745 -1.04975,-2.79776 0.62666,-3.40649 z m 6.04224,-2.19395 c 1.54506,-0.56103 1.58746,-0.38417 0.54511,2.33505 -1.43111,3.76466 -2.65233,4.20304 -2.39441,0.86943 0.11048,-1.4675 0.92216,-2.87408 1.85452,-3.19435 z m -18.32521,6.65392 c 0.92486,-0.33581 2.65679,0.11667 3.96589,1.06872 v 0 c 2.97991,2.1625 1.76497,2.62095 -2.39444,0.86942 -3.02021,-1.25349 -3.1235,-1.38732 -1.58649,-1.96943 z m 7.01523,-2.47518 c 0.3758,-0.13645 0.71078,-0.13795 0.86821,-0.0678 0.31749,0.15868 1.02343,1.42344 1.54536,2.81631 l 0.95783,2.5209 -3.09039,-1.90757 -3.08685,-1.92208 1.54618,-0.89782 c 0.423,-0.24969 0.87624,-0.43832 1.26031,-0.55371 z"
     style="fill:#2b3143;fill-opacity:1;stroke:#e6e9ec;stroke-width:0.68599999;stroke-miterlimit:4;stroke-dasharray:none;stroke-opacity:1" />
</svg>
