<?xml version="1.0" encoding="UTF-8" standalone="no"?>
<!-- Created with Inkscape (http://www.inkscape.org/) -->

<svg
   width="1.5in"
   height="1in"
   viewBox="0 0 38.100001 25.399999"
   version="1.1"
   id="svg1"
   xml:space="preserve"
   inkscape:version="1.4 (e7c3feb1, 2024-10-09)"
   sodipodi:docname="simple-logo.svg"
   xmlns:inkscape="http://www.inkscape.org/namespaces/inkscape"
   xmlns:sodipodi="http://sodipodi.sourceforge.net/DTD/sodipodi-0.dtd"
   xmlns="http://www.w3.org/2000/svg"
   xmlns:svg="http://www.w3.org/2000/svg"><sodipodi:namedview
     id="namedview1"
     pagecolor="#ffffff"
     bordercolor="#000000"
     borderopacity="0.25"
     inkscape:showpageshadow="2"
     inkscape:pageopacity="0.0"
     inkscape:pagecheckerboard="0"
     inkscape:deskcolor="#d1d1d1"
     inkscape:document-units="mm"
     inkscape:zoom="2.552239"
     inkscape:cx="46.429822"
     inkscape:cy="45.254383"
     inkscape:window-width="1440"
     inkscape:window-height="872"
     inkscape:window-x="0"
     inkscape:window-y="28"
     inkscape:window-maximized="0"
     inkscape:current-layer="layer1" /><defs
     id="defs1" /><g
     inkscape:label="Layer 1"
     inkscape:groupmode="layer"
     id="layer1"><text
       xml:space="preserve"
       style="font-size:3.175px;font-family:'Times New Roman';-inkscape-font-specification:'Times New Roman, ';text-align:start;letter-spacing:0.550333px;writing-mode:lr-tb;direction:ltr;text-anchor:start;fill:#1a1a1a;fill-opacity:0.284892;stroke-width:0.264583"
       x="-55.721722"
       y="-85.276672"
       id="text2-4"><tspan
         sodipodi:role="line"
         id="tspan2-5"
         style="stroke-width:0.264583"
         x="-55.721722"
         y="-85.276672" /></text><path
       inkscape:connector-curvature="0"
       id="card_bkg"
       style="fill:#060c24;fill-opacity:1;fill-rule:nonzero;stroke:none;stroke-width:0.672039"
       d="m 103.78634,-69.593609 h 83.6729 c 1.13135,0 2.04223,3.300427 2.04223,7.406128 V 123.29603 c 0,4.1057 -0.91088,7.40614 -2.04223,7.40614 h -83.6729 c -1.13136,0 -2.04258,-3.30044 -2.04258,-7.40614 V -62.187481 c 0,-4.105701 0.91122,-7.406128 2.04258,-7.406128 z" /><g
       id="g9"
       transform="translate(152.83031,113.87798)"><path
         style="fill:#060c24;fill-opacity:1;fill-rule:nonzero;stroke:none;stroke-width:0.352777;stroke-opacity:1"
         d="m -134.06818,-97.835025 -5.0741,2.792079 v 0.508495 l 2.5864,1.590085 2.58537,1.591633 0.30334,0.01394 2.62465,-1.594218 2.62671,-1.594736 -0.008,-0.391189 z"
         id="rung1"
         inkscape:label="#rung1" /><path
         style="fill:#060c24;fill-opacity:1;fill-rule:nonzero;stroke:none;stroke-width:0.352777;stroke-opacity:1"
         d="m -134.19943,-103.79125 -2.95021,1.5689 -2.94918,1.56786 -2.19934,1.171505 -2.19832,1.171504 -0.008,0.501261 1.81901,1.136883 1.82005,1.13688 0.92345,0.05219 1.8371,-1.040246 1.83555,-1.040247 1.06763,-0.538985 1.0666,-0.537435 3.40393,1.641242 3.40496,1.642795 2.1363,-1.274857 2.13579,-1.273308 v -0.417546 z"
         id="rung2"
         inkscape:label="#rung2" /><path
         style="fill:#060c24;fill-opacity:1;fill-rule:nonzero;stroke:none;stroke-width:0.352777;stroke-opacity:1"
         d="m -134.35395,-111.01717 -8.52299,4.46588 -8.52454,4.46639 0.0977,0.28836 0.0982,0.28887 2.48873,1.48983 2.48874,1.492419 0.31729,0.01241 0.31523,0.01344 2.55592,-1.455208 2.55798,-1.453661 3.1874,-1.63814 3.1874,-1.64021 6.17224,3.08147 6.17068,3.082495 2.80294,-1.522905 2.80189,-1.52239 v -0.52504 l -9.09665,-4.46226 z"
         id="rung3"
         inkscape:label="#rung3" /></g><text
       xml:space="preserve"
       style="font-size:6.01927px;font-family:'Times New Roman';-inkscape-font-specification:'Times New Roman, ';text-align:start;letter-spacing:0.00981166px;writing-mode:lr-tb;direction:ltr;text-anchor:start;fill:#142878;fill-opacity:1;stroke-width:0.501604"
       x="127.58825"
       y="-12.229458"
       id="text2"
       transform="scale(0.88958956,1.1241139)"><tspan
         sodipodi:role="line"
         id="tspan2"
         style="font-style:normal;font-variant:normal;font-weight:normal;font-stretch:normal;font-family:'مِصحفي ذهبي';-inkscape-font-specification:'مِصحفي ذهبي';letter-spacing:0.00981166px;fill:#142878;fill-opacity:1;stroke-width:0.501604"
         x="127.58825"
         y="-12.229458">Connecting to </tspan></text><path
       style="fill:#2345d2;fill-opacity:1;stroke-width:0.213771"
       d=""
       id="path5" /></g></svg>
